<svg width="120" height="120" viewBox="0 0 120 120" fill="none" xmlns="http://www.w3.org/2000/svg">
<g opacity="0.4">
<path d="M26.0634 63.5906C26.0634 64.6867 26.0408 65.7263 26.0747 66.7659C26.086 67.2179 25.9278 67.3196 25.521 67.297C24.956 67.2744 24.391 67.2518 23.8373 67.297C23.3514 67.3309 23.2158 67.1727 23.2271 66.6868C23.2497 63.1838 23.2384 59.6921 23.2384 56.1891V55.6015C23.2384 54.0647 23.2384 54.0647 24.8091 53.8274C25.8826 53.6692 26.9561 53.511 28.0296 53.6353C30.8546 53.9743 32.4366 55.771 32.4818 58.7316C32.4931 59.2966 32.4253 59.8503 32.3123 60.404C31.736 63.3985 29.1031 64.5285 26.5493 63.7262C26.4137 63.681 26.2668 63.6471 26.0634 63.5906ZM26.0521 58.6638C26.0521 59.4209 26.0408 60.178 26.0521 60.9351C26.0521 61.1046 25.9956 61.2741 26.2894 61.3645C28.3347 62.0312 29.4986 61.2402 29.5664 59.1045V58.7203C29.4986 56.6976 28.4703 55.8162 26.4702 56.0535C26.1425 56.0874 26.0295 56.2004 26.0408 56.5281C26.0747 57.24 26.0521 57.9519 26.0521 58.6638ZM17.2494 50.4939C18.515 50.3357 19.6337 50.6521 20.7411 51.1154C20.9897 51.2171 21.2044 51.251 21.0349 51.6691C20.8315 52.1889 20.5942 52.6974 20.4586 53.2398C20.3682 53.5901 20.0292 53.4884 19.758 53.3641C18.7862 52.9234 17.7692 52.8669 16.7296 52.9573C16.1081 53.0138 15.5205 53.2059 15.4979 53.9743C15.4753 54.5619 15.7578 55.0139 16.3002 55.2512C17.2494 55.658 18.2099 56.0422 19.1704 56.4264C21.4078 57.3191 21.9728 58.9011 21.7694 60.6639C21.5434 62.5623 20.2439 63.5228 18.4585 63.8957C16.5036 64.2912 14.6278 64.0765 12.7859 63.3081C12.3904 63.1386 12.2435 62.9465 12.4582 62.5397C12.5034 62.4606 12.5147 62.3815 12.5486 62.3024C12.7633 61.7939 12.7633 61.0029 13.1927 60.8221C13.5543 60.6639 14.1645 61.1385 14.6843 61.2967C15.7691 61.6131 16.8765 61.647 17.9613 61.3306C18.854 61.0707 19.0574 59.952 18.3794 59.3079C17.8709 58.822 17.2042 58.6299 16.5714 58.37C15.7013 58.031 14.8086 57.7485 14.0176 57.2061C12.6955 56.3021 12.3339 55.0026 12.5825 53.5336C12.8085 52.2002 13.6447 51.3075 14.9216 50.8103C15.7013 50.5165 16.4697 50.347 17.2494 50.4939ZM36.3125 59.7373C36.7645 61.1837 37.8041 61.6018 39.0923 61.6131C39.8946 61.6244 40.6856 61.5227 41.454 61.2628C41.793 61.1498 41.9173 61.2402 41.9512 61.5679C41.9738 61.8052 42.019 62.0425 42.0642 62.2685C42.2902 63.5341 42.3015 63.5454 41.0359 63.8053C40.1884 63.9748 39.3296 64.0878 38.4595 64.0539C35.239 63.9296 33.3293 61.8278 33.5101 58.6073C33.657 55.9179 35.0808 54.1099 37.4199 53.6579C40.1432 53.1268 42.4032 54.7314 42.7535 57.4886C42.8213 58.0649 42.7761 58.6525 42.81 59.2288C42.8439 59.6808 42.6292 59.7486 42.245 59.7486C40.5161 59.726 38.7872 59.7373 37.0696 59.7373H36.3125ZM36.3012 57.805C37.4764 57.805 38.5951 57.7937 39.7138 57.805C40.0641 57.805 40.098 57.6581 40.0528 57.3643C39.9285 56.6411 39.3748 56.0422 38.6629 55.9179C37.7815 55.771 37.0244 56.1326 36.6741 56.8897C36.5385 57.1609 36.4481 57.4434 36.3012 57.805ZM93.7051 59.7373H90.9253C90.6089 59.7373 90.3717 59.6808 90.6315 60.178C91.14 61.1837 91.965 61.534 92.9819 61.6131C93.852 61.6696 94.7109 61.5792 95.5358 61.2967C95.9877 61.1385 96.1007 61.2854 96.1347 61.6809C96.1572 61.9182 96.2024 62.1555 96.2477 62.3815C96.451 63.5115 96.451 63.5341 95.3549 63.7714C93.9989 64.0652 92.6203 64.2121 91.2531 63.8618C89.445 63.3985 88.2812 62.2685 87.8518 60.4266C87.5693 59.1949 87.5919 57.9858 88.0099 56.788C88.9478 54.1099 91.818 52.8443 94.4283 53.9404C95.9538 54.5845 96.6657 55.8275 96.9143 57.3982C97.0273 58.144 97.2533 59.0367 96.8578 59.613C96.564 60.0311 95.6488 59.7147 95.0046 59.7373C94.5639 59.7486 94.1346 59.7373 93.7051 59.7373ZM92.3153 57.805C92.8351 57.805 93.3548 57.7937 93.8633 57.805C94.191 57.8163 94.2701 57.692 94.2136 57.3869C94.078 56.5507 93.4227 55.9518 92.5751 55.9066C91.5695 55.8614 90.6655 56.5846 90.4846 57.5677C90.4395 57.7937 90.5863 57.805 90.7558 57.805H92.3153ZM75.8173 60.1441V63.0595C75.8173 63.3081 75.8286 63.5115 75.4896 63.568C73.6138 63.9296 71.7267 64.1782 69.8283 63.8166C68.0768 63.4889 67.2293 62.3928 67.2519 60.63C67.2745 59.3757 67.896 58.4604 69.0825 57.9971C70.2125 57.5451 71.4103 57.4886 72.5855 57.6807C73.1053 57.7598 73.1392 57.5677 73.0601 57.1835C72.9471 56.5846 72.6081 56.1665 71.9866 56.0309C71.0148 55.8162 70.043 55.9179 69.1051 56.1778C68.5514 56.336 68.4158 56.1552 68.4158 55.6693C68.4158 55.5676 68.3932 55.4546 68.3706 55.3529C68.1333 53.963 68.122 53.9517 69.5119 53.737C70.4046 53.6014 71.3086 53.5223 72.2239 53.6014C74.5403 53.7822 75.7043 54.9687 75.7833 57.2965C75.8398 58.2457 75.806 59.1949 75.8173 60.1441C75.8173 60.1441 75.806 60.1441 75.8173 60.1441ZM73.094 60.6978V59.9181C73.094 59.726 73.0601 59.5791 72.8341 59.5565C72.1674 59.5 71.5007 59.4322 70.8453 59.6356C70.3029 59.8051 70.0317 60.178 70.0656 60.7543C70.0995 61.3193 70.4385 61.6131 70.9583 61.7148C71.2973 61.7826 71.6476 61.7826 71.9866 61.7826C73.1053 61.7826 73.1053 61.7713 73.094 60.6978ZM77.6704 58.935C77.6704 57.5112 77.6817 56.0874 77.6704 54.6636C77.6704 54.3472 77.7044 54.1551 78.0773 54.076C79.6706 53.737 81.2638 53.4771 82.8911 53.6805C84.8912 53.9291 85.9986 55.0478 86.1793 57.0592C86.3714 59.1723 86.2132 61.2854 86.2584 63.4098C86.2697 63.7488 86.1003 63.8053 85.8177 63.794C85.2188 63.7827 84.6087 63.7601 84.0098 63.794C83.5691 63.8166 83.4109 63.6923 83.4221 63.229C83.4561 61.7826 83.4334 60.3362 83.4334 58.8898C83.4334 58.6525 83.4334 58.4152 83.4221 58.1779C83.3204 56.3247 82.8458 55.9179 81.004 56.0535C80.5745 56.0874 80.4842 56.2456 80.4842 56.6411C80.5068 58.822 80.4842 61.0029 80.5068 63.1838C80.5068 63.6471 80.4277 63.8505 79.9079 63.8053C79.3316 63.7601 78.7439 63.7714 78.1563 63.8053C77.7495 63.8279 77.6479 63.681 77.6479 63.2855C77.6817 61.8278 77.6704 60.3814 77.6704 58.935Z" fill="white"/>
<path d="M83.6249 44.7874C84.9583 44.1659 86.3934 43.9964 87.8285 43.8834C88.1675 43.8608 88.3257 43.8382 88.1901 43.3975C88.0771 43.0246 87.998 42.5952 88.0997 42.1884C88.4387 42.1545 88.5969 41.8946 88.789 41.6573C89.4444 40.8324 89.9642 39.9171 90.7213 39.1713C91.0264 40.3126 91.6027 41.3861 91.6479 42.5839C91.727 44.9795 90.7326 46.9231 89.0489 48.5503V48.1209C89.4218 47.2395 89.3314 46.3694 88.9246 45.5332C88.9133 45.3976 88.9359 45.2394 88.8003 45.1377C88.789 44.923 88.7438 44.7309 88.5517 44.6066C88.5291 44.4032 88.5517 44.1772 88.2692 44.019C88.3257 44.2902 88.3709 44.4823 88.5291 44.6292C88.5404 44.8439 88.563 45.0473 88.789 45.149C88.789 45.2959 88.7551 45.4541 88.9246 45.5332C89.0715 46.392 89.0828 47.2621 89.0602 48.1322C88.8681 48.2904 88.8229 48.5164 88.789 48.7537C87.3765 49.9741 85.7267 50.5617 83.8735 50.5956C82.7548 50.6182 81.6248 50.6069 80.5174 50.8329C80.4609 50.5504 80.6191 50.3357 80.7434 50.121C81.1276 49.4769 81.5118 48.8441 81.9073 48.2113C82.5853 47.1265 83.2068 46.0078 83.6249 44.7874Z" fill="white"/>
<path d="M99.2309 67.3874C100.982 67.3874 102.723 67.3987 104.474 67.3761C104.87 67.3761 104.994 67.4326 104.915 67.8846C104.598 69.5796 104.327 71.2859 104.067 72.9922C104.011 73.399 103.841 73.512 103.434 73.5007C99.9202 73.4894 96.3946 73.4781 92.8803 73.5007C92.4057 73.5007 92.304 73.3877 92.3944 72.9244C92.6995 71.252 92.9707 69.5683 93.2306 67.8846C93.2984 67.4778 93.4679 67.3761 93.8634 67.3761C95.6488 67.3987 97.4455 67.3874 99.2309 67.3874ZM101.389 72.6532H102.553C102.858 72.6645 102.881 72.4498 102.915 72.2238C102.971 71.8961 102.723 71.9526 102.542 71.9413C102.259 71.93 101.977 71.9413 101.694 71.9413C100.835 71.9413 100.824 71.8961 101.061 71.0712C101.197 70.5853 101.536 70.8226 101.796 70.7887C102.158 70.7435 102.666 70.9243 102.621 70.3028C102.576 69.7604 102.101 70.1785 101.852 70.0542C101.672 69.9638 101.254 70.2576 101.333 69.7604C101.389 69.444 101.265 68.9694 101.875 69.0033C102.282 69.0372 102.7 69.0033 103.107 69.0146C103.423 69.0259 103.423 68.7999 103.457 68.5852C103.514 68.2462 103.265 68.314 103.084 68.314C102.497 68.3027 101.92 68.3366 101.333 68.3027C100.926 68.2801 100.756 68.4157 100.7 68.8225C100.576 69.6361 100.406 70.4384 100.237 71.2407C99.9654 72.6645 99.9541 72.6645 101.389 72.6532ZM98.4399 68.314C97.9201 68.314 97.4003 68.3253 96.8805 68.314C96.5189 68.3027 96.5415 68.5852 96.5189 68.7999C96.485 69.105 96.7336 68.992 96.8805 69.0033C97.0726 69.0259 97.276 69.0259 97.4568 69.0033C97.8523 68.9581 97.8749 69.1276 97.7958 69.4553C97.6037 70.3367 97.4342 71.2294 97.276 72.1221C97.2421 72.2916 97.0274 72.5628 97.389 72.6306C97.6828 72.6871 97.9766 72.721 98.0331 72.2577C98.1348 71.5345 98.3043 70.8226 98.4512 70.0994C98.6546 69.0598 98.6546 69.0598 99.6716 69.0033C99.762 69.0033 99.8524 69.0146 99.9315 68.992C100.157 68.9129 100.146 68.6869 100.157 68.5061C100.18 68.2688 99.9767 68.314 99.8411 68.314H98.4399ZM94.7787 72.6532C95.2194 72.6532 95.5923 72.6306 95.9539 72.6645C96.3381 72.6984 96.372 72.4385 96.3946 72.1786C96.4285 71.8396 96.1347 71.9639 95.9765 71.9526C95.5923 71.93 95.1968 71.93 94.8126 71.9526C94.4736 71.9639 94.3493 71.9074 94.4397 71.5119C94.6431 70.6305 94.8126 69.7378 94.9595 68.8451C94.9934 68.6643 95.2081 68.3479 94.7674 68.314C94.451 68.2801 94.2476 68.3253 94.1911 68.7208C94.0668 69.5683 93.8634 70.4158 93.7052 71.2633C93.6261 71.704 93.3549 72.2916 93.547 72.5515C93.773 72.8566 94.4058 72.608 94.7787 72.6532Z" fill="white"/>
<path d="M98.3833 56.336C98.3833 54.6636 98.3946 53.2737 98.372 51.8951C98.3607 51.4996 98.4737 51.3075 98.8805 51.2623C99.502 51.1945 100.124 51.1041 100.734 50.9685C101.163 50.8781 101.242 51.025 101.231 51.4205C101.197 52.0872 101.231 52.7652 101.22 53.4319C101.208 53.737 101.31 53.85 101.626 53.8387C102.429 53.8161 103.231 53.85 104.022 53.8274C104.451 53.8048 104.666 53.9065 104.61 54.3811C104.553 54.9574 104.847 55.7032 104.497 56.0648C104.146 56.4377 103.389 56.1439 102.824 56.1891C102.316 56.223 101.649 55.9631 101.333 56.2908C101.016 56.6185 101.254 57.2739 101.242 57.7937C101.231 58.5056 101.22 59.2175 101.242 59.9294C101.287 61.2176 101.796 61.6809 103.084 61.6018C103.389 61.5792 103.706 61.5792 103.977 61.4662C104.598 61.195 104.7 61.5453 104.745 62.0199C104.757 62.1103 104.768 62.1894 104.779 62.2798C105.028 63.6358 105.028 63.6471 103.66 63.8957C102.847 64.0426 102.022 64.0539 101.208 63.907C99.6715 63.6471 98.7449 62.6753 98.5189 61.082C98.259 59.4209 98.4511 57.7259 98.3833 56.336ZM53.0025 56.3812C53.0025 54.6636 53.0138 53.2398 52.9912 51.816C52.9912 51.5222 53.0364 51.3301 53.3754 51.2849C54.0647 51.1945 54.7427 51.0928 55.4207 50.9685C55.7484 50.912 55.8388 51.025 55.8275 51.3414C55.8162 52.0081 55.8501 52.6861 55.8162 53.3528C55.7936 53.7596 55.9405 53.8613 56.336 53.85C57.1383 53.8161 57.9293 53.8613 58.7316 53.8387C59.0932 53.8274 59.2401 53.9178 59.2175 54.302C59.1836 54.9009 59.4096 55.6693 59.1045 56.0535C58.7881 56.4716 57.9745 56.1778 57.3869 56.1891C55.8275 56.2117 55.8275 56.2004 55.8275 57.7711C55.8275 58.5508 55.8049 59.3305 55.8501 60.0989C55.9179 61.2289 56.4038 61.647 57.5112 61.6018C57.9406 61.5792 58.37 61.5227 58.7881 61.3984C59.1497 61.2967 59.2514 61.3984 59.274 61.7374C59.2966 61.9973 59.3644 62.2459 59.4096 62.5058C59.613 63.568 59.613 63.568 58.5282 63.8392C57.6129 64.0652 56.6863 64.0765 55.7597 63.9183C54.2681 63.6584 53.3641 62.7318 53.1155 61.2063C52.8443 59.5 53.0703 57.7937 53.0025 56.3812ZM49.1492 53.5675C49.8046 53.5562 50.5617 53.7031 51.3075 53.9517C51.6013 54.0534 51.7369 54.1551 51.6126 54.5054C51.4544 54.9687 51.3301 55.4546 51.2397 55.9405C51.1719 56.2795 51.0476 56.3699 50.7199 56.2456C50.1888 56.0422 49.6351 55.997 49.0701 56.0083C47.5559 56.0309 46.844 57.127 46.6858 58.3474C46.5954 58.9802 46.6519 59.6243 46.9344 60.2571C47.3977 61.2628 48.2 61.6131 49.2283 61.6244C49.8837 61.6357 50.5278 61.5566 51.138 61.3532C51.4205 61.2628 51.5335 61.308 51.5674 61.5905C51.6126 61.9521 51.6804 62.3137 51.7369 62.6753C51.8951 63.6132 51.8951 63.6132 50.9459 63.8392C49.8385 64.0991 48.7198 64.1443 47.6011 63.9296C45.3637 63.4889 44.1207 61.9408 43.8721 59.3531C43.5444 56.0648 45.7818 53.5562 49.1492 53.5675ZM60.7995 59.0254V54.8218C60.7995 54.5393 60.8334 54.3472 61.1611 54.2455C62.9804 53.6805 64.8223 53.4319 66.7094 53.8387C67.1727 53.9404 67.3196 54.0986 67.1727 54.5732C67.0145 55.1043 67.1049 55.8162 66.7772 56.1778C66.4382 56.5507 65.7941 56.0874 65.263 56.0535C63.681 55.9744 63.6358 56.0083 63.6358 57.5338C63.6358 59.4322 63.6245 61.3306 63.6471 63.229C63.6584 63.6923 63.5115 63.8279 63.0708 63.8053C62.5284 63.7714 61.986 63.7714 61.4549 63.8053C60.969 63.8392 60.7769 63.7262 60.7995 63.1838C60.8334 61.7826 60.7995 60.404 60.7995 59.0254Z" fill="white"/>
<path d="M89.2074 73.5346C87.4107 73.5459 86.2694 72.2238 86.518 70.4497C86.8118 68.314 88.5294 66.958 90.4956 67.3196C90.8459 67.3874 91.1623 67.5117 91.4448 67.7151C92.3375 68.3592 92.3036 68.7321 91.3431 69.1954C91.1171 69.3084 90.9928 69.2971 90.7894 69.1163C90.1114 68.4948 89.1509 68.5965 88.5746 69.3084C87.9418 70.0768 87.9418 71.3876 88.5633 71.8735C88.9475 72.1786 89.8063 72.2125 90.2244 71.9639C90.473 71.817 90.5182 71.591 90.4843 71.3537C90.4504 71.0938 90.2131 71.2294 90.0662 71.1955C89.8967 71.1503 89.5238 71.3198 89.6142 70.9582C89.6933 70.6305 89.5012 70.122 90.0549 70.009H90.1227C92.1906 69.783 92.1906 69.783 91.8064 71.7605C91.5352 73.0261 90.8233 73.5233 89.2074 73.5346Z" fill="white"/>
<path d="M83.626 44.7874C83.2192 46.0078 82.5977 47.1152 81.9197 48.2C81.5242 48.8328 81.1287 49.4656 80.7558 50.1097C80.6315 50.3244 80.4733 50.5504 80.5298 50.8216C79.3207 51.1945 78.1794 51.6578 77.3658 52.7426C77.1511 50.3696 79.9422 46.1547 83.626 44.7874Z" fill="white"/>
<path d="M82.5865 72.382C82.4735 72.382 82.3718 72.3933 82.2588 72.382C81.9876 72.3594 81.5469 72.5063 81.4678 72.3029C81.3548 71.9865 81.4452 71.5458 81.6712 71.2633C82.5752 70.1446 83.5018 69.0259 84.4624 67.9524C84.8579 67.5117 85.4342 67.7716 85.9314 67.7942C86.1235 67.8055 86.0331 68.0428 85.9992 68.1784C85.7958 68.992 85.7845 69.8395 85.4455 70.6192C85.3664 70.8 85.3551 71.1051 85.5811 71.1729C85.8297 71.252 85.9992 71.3311 85.8636 71.591C85.728 71.8622 85.9766 72.3481 85.4116 72.382C85.0048 72.4046 85.163 72.7662 85.0726 72.9696C84.9935 73.1278 85.05 73.3877 84.7674 73.3764C84.4284 73.3651 84.0781 73.4555 83.7504 73.3199C83.7165 73.3086 83.6939 73.1956 83.7052 73.1504C84.0442 72.0995 83.2645 72.4159 82.7673 72.382H82.5865ZM82.9933 71.139C84.1799 71.3198 84.225 71.2633 84.3154 69.67C83.8747 70.1559 83.4679 70.6079 82.9933 71.139Z" fill="white"/>
<path d="M90.7105 39.1826C89.9647 39.9284 89.4336 40.8437 88.7782 41.6686C88.5861 41.9059 88.4392 42.1658 88.0889 42.1997C87.9646 41.9059 88.0663 41.6799 88.2584 41.4539C89.0155 40.5951 89.7274 39.6911 90.2585 38.6741C90.3263 38.5272 90.4958 38.3803 90.5975 38.4707C90.8235 38.6515 90.7218 38.934 90.7105 39.1826Z" fill="white"/>
<path d="M90.2709 38.6741C89.7285 39.6911 89.0279 40.5951 88.2708 41.4539C88.4403 40.177 89.1183 39.2504 90.2709 38.6741Z" fill="white"/>
<path d="M89.0387 48.1322V48.5616C88.9935 48.6746 88.9031 48.7424 88.7788 48.7537C88.8127 48.5277 88.8579 48.3017 89.0387 48.1322Z" fill="white"/>
<path d="M26.0516 58.6638C26.0516 57.9519 26.0629 57.24 26.0403 56.5281C26.029 56.1891 26.1533 56.0874 26.4697 56.0535C28.4698 55.8162 29.4981 56.6863 29.5659 58.7203V59.1045C29.4981 61.2402 28.3342 62.0425 26.2889 61.3645C25.9951 61.2741 26.0516 61.1046 26.0516 60.9351V58.6638ZM36.3007 57.805C36.4476 57.4434 36.538 57.1609 36.6736 56.901C37.0352 56.1439 37.7923 55.7823 38.6624 55.9292C39.363 56.0535 39.928 56.6411 40.0523 57.3756C40.0975 57.6694 40.0636 57.8163 39.7133 57.8163C38.5946 57.7937 37.4759 57.805 36.3007 57.805ZM92.3148 57.805H90.7667C90.6085 57.805 90.4616 57.7937 90.4955 57.5677C90.6763 56.5846 91.5803 55.8614 92.586 55.9066C93.4222 55.9405 94.0776 56.5507 94.2245 57.3869C94.281 57.7033 94.2019 57.8163 93.8742 57.805C93.3431 57.7937 92.8233 57.805 92.3148 57.805ZM73.0935 60.6978C73.0935 61.7713 73.0935 61.7826 71.9861 61.7826C71.6471 61.7826 71.2968 61.7713 70.9578 61.7148C70.4493 61.6131 70.099 61.3306 70.0651 60.7543C70.0312 60.178 70.2911 59.8051 70.8448 59.6356C71.5002 59.4322 72.1669 59.5 72.8336 59.5565C73.0596 59.5791 73.1048 59.726 73.0935 59.9181V60.6978Z" fill="#FEFEFE" fill-opacity="0.2"/>
<path d="M89.0491 48.1435C89.083 47.2734 89.0604 46.4033 88.9135 45.5445C89.3316 46.392 89.422 47.2508 89.0491 48.1435C89.0378 48.1322 89.0491 48.1435 89.0491 48.1435ZM88.518 44.6405C88.3485 44.4936 88.3033 44.3015 88.2581 44.0303C88.5519 44.1998 88.518 44.4145 88.5406 44.6179L88.518 44.6405ZM88.5406 44.6292C88.7327 44.7535 88.7779 44.9456 88.7892 45.1603L88.7779 45.1716C88.5519 45.0699 88.5293 44.8665 88.518 44.6518C88.518 44.6405 88.5406 44.6292 88.5406 44.6292Z" fill="white"/>
<path d="M88.7893 45.149C88.9249 45.2507 88.9023 45.3977 88.9136 45.5446C88.7441 45.4655 88.778 45.3072 88.7893 45.149C88.778 45.1603 88.7893 45.149 88.7893 45.149Z" fill="white"/>
<path d="M101.39 72.6532C99.9664 72.6532 99.9663 72.6532 100.249 71.2407C100.407 70.4384 100.588 69.6361 100.712 68.8225C100.769 68.4157 100.949 68.2801 101.345 68.3027C101.921 68.3366 102.509 68.3027 103.096 68.314C103.277 68.314 103.526 68.2462 103.469 68.5852C103.435 68.7999 103.435 69.0259 103.119 69.0146C102.712 69.0033 102.294 69.0372 101.887 69.0033C101.277 68.9581 101.401 69.444 101.345 69.7604C101.266 70.2576 101.684 69.9638 101.865 70.0542C102.113 70.1785 102.588 69.7604 102.633 70.3028C102.678 70.9243 102.17 70.7435 101.808 70.7887C101.56 70.8226 101.209 70.574 101.074 71.0712C100.848 71.8961 100.859 71.9413 101.707 71.9413H102.554C102.735 71.9413 102.972 71.8848 102.927 72.2238C102.893 72.4385 102.87 72.6645 102.565 72.6532H101.39ZM98.4408 68.314H99.8647C100 68.314 100.204 68.2688 100.181 68.5061C100.17 68.6869 100.181 68.9129 99.9551 68.992C99.876 69.0146 99.7856 69.0033 99.6952 69.0033C98.6782 69.0598 98.6782 69.0598 98.4748 70.0994C98.3279 70.8226 98.1584 71.5345 98.0567 72.2577C97.9889 72.721 97.695 72.6871 97.4125 72.6306C97.0509 72.5628 97.2656 72.2916 97.2995 72.1221C97.4577 71.2294 97.6272 70.3367 97.8193 69.4553C97.8871 69.1276 97.8645 68.9581 97.4803 69.0033C97.2882 69.0259 97.0961 69.0259 96.904 69.0033C96.7571 68.992 96.5085 69.0937 96.5424 68.7999C96.565 68.5852 96.5424 68.3027 96.904 68.314C97.4012 68.3253 97.921 68.314 98.4408 68.314Z" fill="#FEFEFE"/>
</g>
</svg>
