<svg width="120" height="120" viewBox="0 0 120 120" fill="none" xmlns="http://www.w3.org/2000/svg">
<g opacity="0.4">
<g clip-path="url(#clip0_1550_23004)">
<path d="M63.7999 66.7969C63.8008 66.6769 63.8487 66.5619 63.9339 66.4756C64.019 66.3894 64.1347 66.3385 64.2571 66.3335C64.456 66.3335 64.5795 66.4827 64.5795 66.676C64.5803 66.7954 64.5333 66.9103 64.4485 66.9961C64.3637 67.0819 64.2479 67.1317 64.1261 67.1349C64.0813 67.136 64.0368 67.1278 63.9954 67.111C63.9541 67.0941 63.9168 67.0689 63.886 67.037C63.8553 67.0052 63.8317 66.9673 63.8169 66.9259C63.802 66.8845 63.7962 66.8406 63.7999 66.7969V66.7969ZM65.3035 66.7969C65.3045 66.677 65.3525 66.5621 65.4376 66.4758C65.5227 66.3896 65.6384 66.3387 65.7607 66.3335C65.9596 66.3335 66.0831 66.4827 66.0831 66.676C66.0841 66.7953 66.0372 66.9103 65.9526 66.9961C65.8679 67.0819 65.7522 67.1317 65.6304 67.1349C65.5855 67.1361 65.541 67.128 65.4995 67.1112C65.4581 67.0944 65.4207 67.0692 65.3899 67.0373C65.359 67.0054 65.3354 66.9675 65.3205 66.9261C65.3056 66.8847 65.2998 66.8406 65.3035 66.7969V66.7969ZM66.807 66.7969C66.8081 66.677 66.8561 66.5621 66.9412 66.4758C67.0263 66.3896 67.1419 66.3387 67.2643 66.3335C67.4632 66.3335 67.5874 66.4827 67.5874 66.676C67.5882 66.7954 67.5412 66.9103 67.4564 66.9961C67.3716 67.0819 67.2558 67.1317 67.134 67.1349C67.0891 67.1359 67.0446 67.1278 67.0032 67.1109C66.9618 67.0941 66.9245 67.0689 66.8937 67.0371C66.8629 67.0052 66.8392 66.9674 66.8243 66.926C66.8094 66.8846 66.8035 66.8406 66.807 66.7969ZM67.8069 68.0713L67.9928 67.6497C68.0545 67.6825 68.1238 67.6995 68.194 67.699C68.4226 67.699 68.6512 67.5064 68.8036 67.2065L68.886 67.0468L68.4158 64.4152H69.0056L69.1755 65.7582C69.2068 65.9977 69.2312 66.3052 69.2441 66.5566H69.2662C69.3859 66.3074 69.523 66.0089 69.6473 65.7582L70.3217 64.4152H70.9009L69.3722 67.2132C69.0391 67.7922 68.7008 68.1645 68.1597 68.1645C68.0366 68.1586 67.9163 68.1267 67.8069 68.0713V68.0713ZM70.875 66.0522C70.875 65.0375 71.6248 64.3465 72.3701 64.3465C72.9798 64.3465 73.3822 64.7666 73.3822 65.4292C73.3822 66.4439 72.6331 67.1349 71.8878 67.1349C71.2773 67.1349 70.875 66.7148 70.875 66.0522ZM72.7801 65.4486C72.7801 65.0479 72.6148 64.8188 72.3023 64.8188C71.8717 64.8188 71.4717 65.3531 71.4717 66.0328C71.4717 66.4335 71.637 66.6626 71.9487 66.6626C72.3831 66.6626 72.7832 66.1313 72.7832 65.4486H72.7801ZM75.9069 67.07H75.423L75.4489 66.6887H75.4268C75.1548 66.9312 74.8431 67.1364 74.5161 67.1364C74.0589 67.1364 73.8729 66.8894 73.8729 66.4648C73.8737 66.3393 73.8886 66.2142 73.9172 66.0918L74.2593 64.4152H74.8522L74.5222 66.0194C74.4981 66.1115 74.4835 66.2057 74.4788 66.3007C74.4788 66.5245 74.5893 66.6409 74.8172 66.6409C75.0001 66.6409 75.2127 66.5126 75.487 66.229L75.8543 64.4152H76.4472L75.9069 67.07ZM77.2695 64.4152H77.7534L77.7046 64.9285H77.7267C77.9409 64.5995 78.2396 64.3503 78.565 64.3503C78.6584 64.346 78.7516 64.3631 78.8371 64.4003L78.6382 64.9091C78.5587 64.8755 78.4723 64.8606 78.3859 64.8658C78.1314 64.8658 77.8708 65.0628 77.6475 65.4672L77.3267 67.0737H76.7345L77.2695 64.4152ZM80.4024 67.3296L80.25 68.122H79.6578L80.4199 64.4114H80.9038L80.8909 64.7383H80.9061C81.1667 64.5144 81.4784 64.3465 81.7886 64.3465C82.2656 64.3465 82.5621 64.6927 82.5621 65.3165C82.5621 66.332 81.8549 67.1349 81.105 67.1349C80.9827 67.1332 80.8631 67.1002 80.7579 67.039C80.6528 66.9779 80.5659 66.8908 80.506 66.7864H80.4946L80.4024 67.3296ZM80.8474 65.2106L80.6188 66.3425C80.7362 66.5663 80.897 66.6566 81.0699 66.6566C81.5272 66.6566 81.9494 66.0783 81.9494 65.3941C81.9494 65.0069 81.797 64.8248 81.5455 64.8248C81.3313 64.8248 81.0547 64.9502 80.8474 65.2106V65.2106ZM84.4459 64.3465C85.0762 64.3465 85.3101 64.7771 85.3101 65.327C85.3053 65.5202 85.2651 65.711 85.1912 65.8903H83.5391C83.4819 66.4507 83.7982 66.6887 84.2112 66.6887C84.4125 66.6744 84.605 66.6023 84.7645 66.4812L84.9809 66.8543C84.709 67.0393 84.3853 67.1375 84.0542 67.1356C83.4065 67.1356 82.9667 66.7222 82.9667 66.0097C82.9667 65.0173 83.7319 64.3465 84.4459 64.3465V64.3465ZM84.7904 65.5217C84.8082 65.4451 84.8171 65.3667 84.8171 65.2882C84.8171 65.0307 84.7043 64.7987 84.3751 64.7987C84.0458 64.7987 83.7227 65.0673 83.5924 65.5217H84.7904ZM87.3098 65.4135C87.3262 65.3552 87.3341 65.2949 87.3334 65.2344C87.3334 64.9181 87.181 64.8054 86.9074 64.8054C86.6727 64.8054 86.4586 64.8875 86.1972 65.0293L86.012 64.6204C86.3258 64.4544 86.6745 64.3617 87.0309 64.3495C87.5902 64.3495 87.9194 64.6047 87.9194 65.1807C87.9181 65.3062 87.9033 65.4313 87.8752 65.5538L87.5704 67.0714H87.0896L87.0972 66.7812H87.0796C86.8678 66.9759 86.5462 67.1364 86.2551 67.1364C85.8855 67.1364 85.5761 66.8916 85.5761 66.4805C85.5738 65.7127 86.3122 65.4396 87.3098 65.4135V65.4135ZM86.153 66.3619C86.153 66.576 86.3054 66.6827 86.518 66.6827C86.7123 66.6827 86.899 66.576 87.1124 66.3925L87.2412 65.7821C86.531 65.797 86.153 66.0089 86.153 66.3619V66.3619ZM88.4178 66.0522C88.4178 65.1001 89.1296 64.3465 89.974 64.3465C90.1108 64.3451 90.2461 64.3737 90.3701 64.4303C90.4941 64.4868 90.6035 64.5699 90.6903 64.6733L90.3543 65.0218C90.2285 64.8852 90.118 64.8188 89.9367 64.8188C89.4505 64.8188 89.0222 65.3725 89.0222 66.0328C89.0222 66.4335 89.2035 66.6626 89.5701 66.6626C89.7598 66.6547 89.9409 66.583 90.083 66.4596L90.3375 66.8252C90.085 67.0244 89.7709 67.1335 89.4466 67.1349C88.8507 67.1349 88.4178 66.7409 88.4178 66.0522ZM92.2686 64.3465C92.8988 64.3465 93.1335 64.7771 93.1335 65.327C93.1286 65.5203 93.088 65.7111 93.0139 65.8903H91.3617C91.3046 66.4507 91.6208 66.6887 92.0339 66.6887C92.2351 66.6744 92.4276 66.6023 92.5871 66.4812L92.8036 66.8543C92.5316 67.0393 92.208 67.1375 91.8769 67.1356C91.2291 67.1356 90.7894 66.7222 90.7894 66.0097C90.7909 65.0173 91.553 64.3465 92.2686 64.3465V64.3465ZM92.6138 65.5217C92.631 65.445 92.6396 65.3667 92.6397 65.2882C92.6397 65.0307 92.5269 64.7987 92.1977 64.7987C91.8685 64.7987 91.5454 65.0673 91.4151 65.5217H92.6138ZM93.1701 67.6915C93.5572 67.5676 93.7798 67.3341 93.84 67.07L93.9017 66.5976L94.0541 66.9961C93.9938 67.0459 93.9187 67.0755 93.84 67.0804C93.6274 67.0804 93.4749 66.9573 93.4749 66.7558C93.4741 66.7 93.4848 66.6445 93.5063 66.5927C93.5278 66.541 93.5598 66.494 93.6003 66.4546C93.6407 66.4152 93.6889 66.3842 93.7418 66.3634C93.7948 66.3426 93.8515 66.3324 93.9086 66.3335C94.154 66.3335 94.2896 66.5029 94.2896 66.7752C94.2896 67.3841 93.8781 67.8706 93.2395 68.022L93.1701 67.6915ZM96.1254 66.0522C96.1254 65.0375 96.8753 64.3465 97.6206 64.3465C98.2303 64.3465 98.6326 64.7666 98.6326 65.4292C98.6326 66.4439 97.8835 67.1349 97.1382 67.1349C96.5309 67.1349 96.1254 66.7148 96.1254 66.0522ZM98.0306 65.4486C98.0306 65.0479 97.8645 64.8188 97.5528 64.8188C97.1222 64.8188 96.7214 65.3531 96.7214 66.0328C96.7214 66.4335 96.8875 66.6626 97.1992 66.6626C97.6366 66.6626 98.0367 66.1313 98.0367 65.4486H98.0306ZM101.16 67.07H100.676L100.702 66.6887H100.68C100.408 66.9312 100.097 67.1364 99.7658 67.1364C99.3086 67.1364 99.1219 66.8894 99.1219 66.4648C99.1226 66.3392 99.1377 66.2141 99.1669 66.0918L99.509 64.4137H100.102L99.7719 66.0179C99.7478 66.11 99.7332 66.2042 99.7285 66.2992C99.7285 66.523 99.839 66.6394 100.066 66.6394C100.25 66.6394 100.462 66.5111 100.736 66.2276L101.101 64.4137H101.694L101.16 67.07ZM102.527 64.4152H103.011L102.962 64.9285H102.984C103.199 64.5995 103.497 64.3503 103.822 64.3503C103.916 64.346 104.009 64.3631 104.094 64.4003L103.896 64.9091C103.816 64.8755 103.73 64.8606 103.643 64.8658C103.389 64.8658 103.128 65.0628 102.905 65.4672L102.584 67.0737H101.992L102.527 64.4152ZM104.889 67.6109C104.889 67.2841 105.194 67.0677 105.499 66.9334V66.9162C105.446 66.873 105.404 66.8186 105.375 66.7571C105.347 66.6956 105.333 66.6286 105.334 66.5611C105.334 66.3641 105.475 66.182 105.686 66.0567V66.0351C105.596 65.9625 105.523 65.8714 105.474 65.7682C105.424 65.6649 105.398 65.5522 105.398 65.4381C105.398 64.8129 105.907 64.3473 106.541 64.3473C106.663 64.3448 106.783 64.3669 106.896 64.4122H107.862L107.775 64.8517H107.304C107.365 64.9494 107.397 65.0617 107.397 65.1762C107.397 65.7955 106.916 66.2283 106.243 66.2283C106.153 66.2298 106.062 66.2167 105.976 66.1895C105.933 66.2171 105.897 66.2539 105.871 66.2971C105.844 66.3402 105.828 66.3886 105.824 66.4387C105.824 66.5962 105.913 66.6581 106.306 66.7014C107.054 66.7924 107.283 66.9744 107.283 67.3177C107.283 67.9377 106.597 68.2459 105.919 68.2459C105.491 68.2451 104.889 68.1175 104.889 67.6109V67.6109ZM106.701 67.4617C106.701 67.2625 106.48 67.1849 106.123 67.1438C106.036 67.1326 105.921 67.111 105.798 67.0826C105.619 67.1729 105.402 67.3251 105.402 67.5094C105.402 67.7601 105.631 67.8728 105.981 67.8728C106.394 67.8706 106.701 67.6982 106.701 67.4594V67.4617ZM106.89 65.1867C106.89 64.9203 106.75 64.7554 106.525 64.7554C106.187 64.7554 105.945 65.0934 105.945 65.4314C105.945 65.6978 106.085 65.8619 106.311 65.8619C106.649 65.8597 106.89 65.5217 106.89 65.1845V65.1867ZM107.87 66.0522C107.87 65.0375 108.62 64.3465 109.366 64.3465C109.975 64.3465 110.378 64.7666 110.378 65.4292C110.378 66.4439 109.629 67.1349 108.883 67.1349C108.273 67.1349 107.87 66.7148 107.87 66.0522ZM109.776 65.4486C109.776 65.0479 109.61 64.8188 109.298 64.8188C108.867 64.8188 108.467 65.3531 108.467 66.0328C108.467 66.4335 108.633 66.6626 108.944 66.6626C109.379 66.6626 109.779 66.1313 109.779 65.4486H109.776ZM112.409 65.4135C112.425 65.3552 112.433 65.2949 112.432 65.2344C112.432 64.9181 112.28 64.8054 112.005 64.8054C111.772 64.8054 111.557 64.8875 111.296 65.0293L111.111 64.6204C111.425 64.4544 111.773 64.3617 112.13 64.3495C112.689 64.3495 113.018 64.6047 113.018 65.1807C113.017 65.3062 113.002 65.4313 112.974 65.5538L112.669 67.0714H112.188L112.196 66.7812H112.178C111.967 66.9759 111.645 67.1364 111.354 67.1364C110.984 67.1364 110.675 66.8916 110.675 66.4805C110.673 65.7127 111.411 65.4396 112.409 65.4135V65.4135ZM111.252 66.3619C111.252 66.576 111.404 66.6827 111.617 66.6827C111.811 66.6827 111.998 66.576 112.211 66.3925L112.34 65.7821C111.63 65.797 111.252 66.0089 111.252 66.3619V66.3619ZM114.239 63.2467H114.832L114.049 67.07H113.456L114.239 63.2467ZM115.371 53.9199L116 51.7681H107.908L106.604 53.9199H115.371Z" fill="white"/>
<path d="M114.451 57.0664L115.136 54.722H107.044L105.347 60.524H113.44L114.095 58.2871H109.541L109.898 57.0664H114.451Z" fill="white"/>
<path d="M105.282 53.9199L106.583 51.7711H99.9697C99.3482 51.771 98.7435 51.9691 98.2472 52.3354C97.7508 52.7017 97.3898 53.2163 97.2186 53.8013L97.1836 53.9222L105.282 53.9199Z" fill="white"/>
<path d="M96.9495 54.722L96.0686 57.7431C95.974 58.0678 95.9577 58.4096 96.0209 58.7415C96.0841 59.0735 96.2251 59.3865 96.4328 59.656C96.6405 59.9256 96.9092 60.1442 97.2179 60.2948C97.5265 60.4455 97.8666 60.5239 98.2115 60.524H103.351L104.005 58.2856H99.1069L100.149 54.7205L96.9495 54.722ZM87.7513 54.722L82.6538 60.524H86.5427L89.5803 57.0664H91.5319L92.3603 60.524H95.8232L94.4324 54.722H87.7513V54.722Z" fill="white"/>
<path d="M94.2416 53.9199L93.7265 51.7703L93.728 51.7681H90.3475L88.4575 53.9199H94.2416V53.9199Z" fill="white"/>
<path d="M83.9604 57.0664L84.6463 54.722H76.5531L75.8672 57.0664L74.856 60.524H82.9491L83.6038 58.2871H79.0504L79.407 57.0664H83.9604V57.0664Z" fill="white"/>
<path d="M84.8804 53.9199L85.5098 51.7681H77.4174L76.115 53.9199H84.8804Z" fill="white"/>
<path d="M65.6134 54.722L63.917 60.524H66.9653L67.9766 57.0664H72.1207C72.8542 57.0661 73.5689 56.8393 74.1632 56.4185C74.7575 55.9976 75.2012 55.404 75.4312 54.722H65.6134Z" fill="white"/>
<path d="M75.6623 53.9199C75.7141 53.6583 75.7062 53.3888 75.6391 53.1305C75.5721 52.8723 75.4476 52.6317 75.2745 52.4261C75.1014 52.2205 74.884 52.0549 74.6379 51.9411C74.3918 51.8273 74.1231 51.7683 73.8509 51.7681H66.4817L65.1755 53.9199H75.6623ZM56.7599 53.9199C56.8117 53.6583 56.8038 53.3888 56.7367 53.1305C56.6697 52.8723 56.5451 52.6317 56.372 52.4261C56.199 52.2205 55.9816 52.0549 55.7355 51.9411C55.4894 51.8273 55.2206 51.7683 54.9485 51.7681H47.535L46.2327 53.9199H56.7599Z" fill="white"/>
<path d="M56.5266 54.722H46.6707L46.2859 56.039L44.9744 60.524H48.0227L49.0339 57.0664H52.4907L51.4794 60.524H54.5277L55.2075 58.2006C55.2853 57.9368 55.2922 57.6578 55.2273 57.3906C55.1624 57.1235 55.028 56.8774 54.8371 56.6762C55.6379 56.2642 56.2438 55.5634 56.5266 54.722V54.722Z" fill="white"/>
<path d="M45.0081 53.9199L45.6338 51.7792H42.3942L41.7686 53.9199H45.0081V53.9199ZM38.7515 53.9199L38.2569 51.7792H34.8771L32.9521 53.9199H38.7515Z" fill="white"/>
<path d="M41.5348 54.722L40.0854 59.6794L38.9385 54.722H32.2315L30.292 56.8777H36.051L37.0165 60.524H43.0773L44.7744 54.722H41.5348V54.722Z" fill="white"/>
<path d="M26.1616 57.2351C26.1496 57.0639 26.1262 56.8937 26.0914 56.7255C26.0663 56.6091 26.0427 56.5382 26.0152 56.4061C25.3248 53.1798 23.1643 51.4958 23.1643 51.4958C23.1211 51.4579 23.0753 51.423 23.0272 51.3913C22.7035 51.1093 22.3687 50.8394 22.0227 50.5817C20.3759 49.3663 18.5706 48.5134 16.5267 48.1665C15.3345 47.9649 14.1175 47.9473 12.9198 48.1143C11.8071 48.2747 10.7185 48.5671 9.67795 48.985C8.12942 49.5909 6.81561 50.5004 5.76776 51.7748L5.68774 51.8718C5.67968 51.8836 5.67049 51.8946 5.66031 51.9047C5.51815 52.0716 5.38535 52.2459 5.26251 52.427C5.25722 52.4334 5.25003 52.4381 5.24193 52.4404C4.9371 52.8769 4.62313 53.3828 4.5896 53.4372C3.77529 54.7969 3.25641 56.3065 3.06545 57.8716C2.96246 58.7358 2.98247 59.61 3.12489 60.4689C3.30481 61.5436 3.67598 62.579 4.22152 63.5281C4.28172 63.6333 4.34116 63.7392 4.40899 63.8399C4.46611 63.9474 4.53846 64.0463 4.62389 64.1339C3.91516 62.7618 3.48764 61.3187 3.46402 59.7735L3.47316 59.7682V59.6451C3.47316 59.5705 3.46783 59.4922 3.46554 59.4161C3.49238 58.6203 3.62221 57.831 3.85191 57.0672C4.13357 56.148 4.54391 55.2714 5.07123 54.4624C5.07123 54.4624 5.1078 54.4035 5.17715 54.302C5.45911 53.8858 5.76707 53.4871 6.09926 53.1082C6.1084 53.097 6.11831 53.0865 6.12746 53.0768C6.27987 52.8993 6.45134 52.7172 6.63119 52.5374C6.63435 52.5335 6.63793 52.53 6.64186 52.5269C6.78512 52.3844 6.93601 52.2434 7.09148 52.1084H7.09529C7.61367 51.6315 8.18261 51.2103 8.79242 50.8518C10.123 50.0856 11.5679 49.658 13.0951 49.4655C14.2222 49.3234 15.3652 49.3546 16.4825 49.558C17.815 49.8024 19.0876 50.2937 20.2319 51.0056C21.2907 51.6645 22.2477 52.4686 23.0736 53.3932C23.0895 53.411 23.1071 53.4272 23.1262 53.4417C24.6428 55.2556 25.0604 57.9656 25.0779 58.0842C25.1053 58.5177 25.119 58.9527 25.1129 59.3885L25.1015 59.7697C25.0658 60.7869 24.903 61.796 24.6168 62.7744C24.0133 64.788 22.8493 66.4179 21.125 67.6639C19.8097 68.6115 18.3351 69.2308 16.7766 69.6785C16.3659 69.7956 15.9498 69.8941 15.5253 70.0031C15.5649 70.0061 15.6046 70.0061 15.6442 70.0031C15.9559 69.9508 16.2676 69.9001 16.5777 69.8359C17.9448 69.5612 19.2636 69.0927 20.4925 68.4451C21.801 67.7497 22.9441 66.8558 23.8753 65.7128C25.3545 63.8959 26.0396 61.7925 26.1852 59.5011C26.2384 58.7464 26.2305 57.9886 26.1616 57.2351V57.2351Z" fill="white"/>
<path d="M31.1169 51.3913C31.1025 51.2361 31.011 51.1674 30.8533 51.1861C30.5995 51.2204 30.3457 51.2607 30.0912 51.2958C29.0321 51.4454 27.9872 51.6789 26.9667 51.9942C26.4327 52.1598 25.908 52.3526 25.3945 52.5717C25.3641 52.5844 25.3183 52.6291 25.2817 52.6194C25.1568 52.6746 25.0432 52.7269 24.9655 52.7634C24.9569 52.7685 24.948 52.773 24.9388 52.7769C24.7026 52.8821 24.4732 53.0007 24.2377 53.1126C23.1761 53.6036 22.3005 54.3229 21.5598 55.2071C20.7482 56.177 20.0829 57.2403 19.4725 58.3409C19.2781 58.6908 19.0914 59.0445 18.9002 59.3952C18.6517 59.9174 18.0108 59.6645 17.7334 59.525C17.6886 59.5034 17.6456 59.4784 17.6046 59.4504C17.5452 59.4123 17.4873 59.3713 17.4263 59.3384C16.5038 58.8377 15.4973 58.5026 14.4542 58.3491C13.2448 58.1844 12.0134 58.2711 10.8405 58.6035C10.2103 58.7781 9.5846 58.9691 8.96732 59.1832C8.837 59.231 8.41939 59.384 7.55139 59.7197L7.4447 59.7637L7.40355 59.7787L7.22217 59.8533C7.20922 59.8742 7.18331 59.8846 7.13911 59.8898C7.06671 59.9219 6.99508 59.954 6.92496 59.9868C6.71768 60.0861 6.51345 60.1868 6.31531 60.2913C5.83292 60.5479 5.50141 60.7606 5.48312 60.7725C5.12433 61.0036 4.79215 61.272 4.49243 61.5731C4.89023 61.5172 5.2606 61.4627 5.63554 61.4127C7.15054 61.2098 8.66935 61.062 10.2019 61.109C11.0592 61.1359 11.9089 61.2232 12.7289 61.4866C13.2974 61.6686 13.8149 61.9343 14.2309 62.367C14.3072 62.4416 14.2995 62.4745 14.1921 62.5013C13.9574 62.5595 13.7265 62.6319 13.4917 62.6894C12.7731 62.8647 12.0438 62.9938 11.3328 63.2027C11.028 63.293 10.7178 63.3892 10.4587 63.5758C10.144 63.8056 10.134 63.8586 10.3954 64.1593C10.6568 64.46 11.012 64.6017 11.3755 64.7278C12.2732 65.0405 13.2128 65.1606 14.1509 65.2859C14.2378 65.2971 14.247 65.2725 14.2195 65.2016C14.1591 65.0465 14.1253 64.8826 14.1197 64.7166C14.1121 64.3995 14.2591 64.1861 14.564 64.0824C14.8076 64.0048 15.0594 63.9548 15.3146 63.9332C15.861 63.8765 16.4112 63.8854 16.9569 63.8213C17.6831 63.7362 18.3873 63.5735 19.048 63.2564C19.791 62.9005 20.3992 62.3745 20.9639 61.7962C21.4607 61.2889 21.9538 60.7778 22.443 60.2629C22.5192 60.1831 22.5779 60.1555 22.6831 60.2211C22.8096 60.2995 22.9513 60.3539 23.0847 60.4226C23.1487 60.4554 23.1815 60.4606 23.1822 60.3711C23.1903 60.1428 23.1742 59.9142 23.1342 59.6891C23.0771 59.4063 22.9818 59.1407 22.7242 58.9691C22.6195 58.8897 22.4968 58.836 22.3664 58.8125C22.2361 58.789 22.1019 58.7964 21.9751 58.8341C21.9896 58.7863 21.9972 58.7527 22.0094 58.7199C22.1988 58.1826 22.4367 57.663 22.7204 57.1672C23.0127 56.6483 23.402 56.1879 23.8681 55.8099C23.8983 55.7834 23.9336 55.7631 23.972 55.7503C24.0103 55.7374 24.051 55.7324 24.0914 55.7353C24.1992 55.7447 24.3075 55.7241 24.4038 55.6758C24.5 55.6274 24.5804 55.5534 24.6355 55.4622C24.7018 55.3645 24.7285 55.2503 24.7879 55.1399C24.9647 55.4593 25.2696 55.5212 25.5866 55.5294C25.9531 55.5391 26.1665 55.3324 26.2595 54.9959C26.5704 55.1862 26.7114 55.169 26.8547 54.9056C26.9156 54.7952 26.9735 54.7318 27.11 54.7504C27.1749 54.7517 27.238 54.729 27.2868 54.687C27.3962 54.6042 27.474 54.4878 27.5078 54.3565C27.5299 54.2863 27.5504 54.2766 27.619 54.3132C27.6798 54.3505 27.75 54.3704 27.8217 54.3704C27.8935 54.3704 27.9637 54.3505 28.0244 54.3132C28.1318 54.2435 28.2194 54.1482 28.279 54.0364C28.2833 54.0231 28.2904 54.0108 28.2997 54.0002C28.3091 53.9897 28.3205 53.9811 28.3333 53.9749C28.3461 53.9688 28.36 53.9653 28.3743 53.9645C28.3885 53.9638 28.4028 53.9659 28.4161 53.9707C28.7004 54.0304 28.8543 53.9341 28.9191 53.6596C28.9239 53.6295 28.9375 53.6015 28.9582 53.5789C28.9788 53.5562 29.0058 53.54 29.0357 53.532C29.3139 53.4275 29.4213 53.2686 29.4168 52.9776C29.4168 52.9149 29.4084 52.8522 29.4007 52.7903C29.3962 52.7567 29.3901 52.7246 29.4381 52.7231C29.4786 52.7274 29.5196 52.7233 29.5585 52.7112C29.5608 52.6984 29.5639 52.6857 29.5676 52.6732C29.5745 52.6821 29.5806 52.6903 29.5859 52.6985C29.6151 52.6816 29.6402 52.6587 29.6595 52.6314C29.6789 52.6041 29.692 52.573 29.698 52.5403C29.6982 52.5361 29.6982 52.5319 29.698 52.5277L29.7025 52.503C29.7127 52.3927 29.6963 52.2815 29.6545 52.1785C29.8725 52.2113 30.0653 52.2449 30.2596 52.2673C30.3482 52.282 30.4392 52.2757 30.5248 52.2489C30.6105 52.2222 30.6883 52.1758 30.7519 52.1136C30.8898 51.9823 31.0017 51.8273 31.0819 51.6562C31.1171 51.5724 31.1292 51.4811 31.1169 51.3913V51.3913Z" fill="white"/>
</g>
</g>
<defs>
<clipPath id="clip0_1550_23004">
<rect width="113" height="22" fill="white" transform="translate(3 48)"/>
</clipPath>
</defs>
</svg>
