<svg width="120" height="120" viewBox="0 0 120 120" fill="none" xmlns="http://www.w3.org/2000/svg">
<g opacity="0.4">
<path fill-rule="evenodd" clip-rule="evenodd" d="M88.2691 69.6998L84.2864 55.3281L78.3838 68.631C78.1737 69.0622 77.9158 69.3997 77.6102 69.6435C77.3237 69.8685 76.9607 69.981 76.5214 69.981C75.6618 69.981 75.0411 69.531 74.659 68.631L69.8838 58.4499L70.2179 69.6998H66.579V50.4625C66.8273 49.4875 67.4291 49 68.3841 49C68.7661 49 69.1195 49.1031 69.4442 49.3094C69.7881 49.5156 70.046 49.8156 70.2179 50.2094L76.636 64.6655L83.0538 50.2094C83.3982 49.4031 83.9807 49 84.8019 49C85.6805 49 86.2629 49.4875 86.55 50.4625L91.8792 69.6998H88.2691ZM20.1143 69.7937C18.6626 69.7937 17.3159 69.5312 16.0743 69.0062C14.8518 68.4624 13.7821 67.7312 12.8652 66.8124C11.9675 65.8749 11.2607 64.7687 10.745 63.4937C10.2483 62.2188 10 60.8406 10 59.3594C10 57.8594 10.2483 56.4907 10.745 55.2532C11.2607 54.0157 11.9675 52.9657 12.8652 52.1032C13.7821 51.222 14.8518 50.547 16.0743 50.0782C17.3159 49.5907 18.6626 49.347 20.1143 49.347H31.4034V52.9188H20.1143C19.1783 52.9188 18.3092 53.0876 17.507 53.4251C16.7238 53.7438 16.0457 54.1938 15.4726 54.7751C14.8996 55.3563 14.4507 56.05 14.1259 56.8563C13.8012 57.6625 13.6389 58.5532 13.6389 59.5281C13.6389 60.4844 13.8012 61.375 14.1259 62.2C14.4507 63.025 14.8996 63.7375 15.4726 64.3375C16.0457 64.9187 16.7238 65.378 17.507 65.7156C18.3092 66.0531 19.1783 66.2218 20.1143 66.2218H29.0252V60.9063H19.6272V57.8969H32.6928V69.7937H20.1143ZM35.6638 69.7937V49.347H39.3027V69.7937H35.6638ZM48.0017 69.0062C49.2433 69.5312 50.5899 69.7937 52.0416 69.7937H64.6201V57.8969H51.5545V60.9063H60.9525V66.2218H52.0416C51.1057 66.2218 50.2365 66.0531 49.4342 65.7156C48.6511 65.378 47.973 64.9187 47.3999 64.3375C46.8269 63.7375 46.378 63.025 46.0533 62.2C45.7286 61.375 45.5662 60.4844 45.5662 59.5281C45.5662 58.5532 45.7286 57.6625 46.0533 56.8563C46.378 56.05 46.8269 55.3563 47.3999 54.7751C47.973 54.1938 48.6511 53.7438 49.4342 53.4251C50.2365 53.0876 51.1057 52.9188 52.0416 52.9188H63.3307V49.347H52.0416C50.5899 49.347 49.2433 49.5907 48.0017 50.0782C46.7792 50.547 45.7094 51.222 44.7925 52.1032C43.8948 52.9657 43.1881 54.0157 42.6723 55.2532C42.1756 56.4907 41.9273 57.8594 41.9273 59.3594C41.9273 60.8406 42.1756 62.2188 42.6723 63.4937C43.1881 64.7687 43.8948 65.8749 44.7925 66.8124C45.7094 67.7312 46.7792 68.4624 48.0017 69.0062ZM103.281 67.6842C103.281 69.2704 102.189 69.8779 101.184 69.8779H101.175C99.9544 69.8779 99.0863 69.0763 99.0863 67.7432C99.0863 66.3764 99.9627 65.558 101.235 65.558C102.49 65.558 103.281 66.4355 103.281 67.6842ZM100.599 67.7179C100.599 68.3676 100.779 68.8317 101.201 68.8317H101.209C101.587 68.8317 101.768 68.3592 101.768 67.7179C101.768 67.1526 101.614 66.6042 101.201 66.6042C100.745 66.6042 100.599 67.1695 100.599 67.7179ZM98.8088 68.6292C98.637 68.7051 98.4479 68.7304 98.216 68.7304C97.6832 68.7304 97.2616 68.3761 97.2616 67.701C97.2533 67.0767 97.6397 66.6886 98.1987 66.6886C98.4651 66.6886 98.646 66.7308 98.7833 66.7814L98.9807 65.693C98.7405 65.6086 98.4051 65.5664 98.1132 65.5664C96.5825 65.5664 95.7578 66.5283 95.7578 67.7601C95.7578 69.0932 96.5997 69.8695 97.9241 69.8695C98.3533 69.8695 98.7488 69.802 98.9551 69.7176L98.8088 68.6292ZM94.5762 69.8779C95.0835 69.8779 95.4272 69.5236 95.4272 69.0089C95.4189 68.4773 95.0662 68.1314 94.5845 68.1314C94.1035 68.1314 93.7336 68.4942 93.7336 69.0089C93.7336 69.5236 94.0945 69.8779 94.568 69.8779H94.5762ZM103.804 69.7935H105.257V67.3552C105.257 67.2455 105.265 67.1357 105.3 67.0514C105.369 66.8995 105.498 66.7392 105.729 66.7392C106.065 66.7392 106.168 67.0598 106.168 67.448V69.7935H107.62V67.3552C107.62 67.2623 107.629 67.1357 107.655 67.0683C107.723 66.8742 107.87 66.7392 108.093 66.7392C108.411 66.7392 108.531 67.0429 108.531 67.5323V69.7935H109.984V67.3129C109.984 66.2161 109.529 65.558 108.643 65.558C108.377 65.558 108.145 65.617 107.939 65.7183C107.732 65.828 107.551 65.9883 107.397 66.1823H107.38C107.217 65.8026 106.83 65.558 106.305 65.558C105.66 65.558 105.291 65.9123 105.119 66.1486H105.093L105.024 65.6424H103.769C103.787 66.0389 103.804 66.5114 103.804 67.0261V69.7935ZM90.0331 52.4499H89.2898V50.2351H88.6232V49.6065H90.7122V50.2351H90.0331V52.4499ZM93.9544 52.4499H93.2498L93.2112 51.4669C93.2029 51.1758 93.1939 50.8046 93.1939 50.4038H93.1808C93.1083 50.7582 92.9965 51.1632 92.9192 51.4332L92.657 52.3908H92.0897L91.862 51.4374C91.7971 51.1674 91.7115 50.7666 91.6556 50.4038H91.6466C91.6342 50.6686 91.6225 50.9484 91.6115 51.1927V51.2011L91.6039 51.3691L91.5997 51.4669L91.5562 52.4499H90.8861L91.0794 49.6065H92.0166L92.2057 50.4123C92.2829 50.7413 92.3644 51.1041 92.4203 51.4458H92.4334C92.5017 51.1083 92.5921 50.7244 92.6694 50.408L92.8758 49.6065H93.7999L93.9544 52.4499Z" fill="white"/>
</g>
</svg>
