<svg width="120" height="120" viewBox="0 0 120 120" fill="none" xmlns="http://www.w3.org/2000/svg">
<g opacity="0.4">
<path d="M43.8552 65.2084C43.6689 65.2556 43.5765 65.3779 43.5426 65.5618C43.3832 66.4381 43.1953 67.3098 43.1576 68.2021C43.1283 68.6177 43.166 69.0353 43.2692 69.4393C43.464 70.1233 43.9045 70.5945 44.6067 70.7313C45.8903 70.9821 47.0707 70.7595 47.9424 69.7168C48.5976 68.9317 48.8664 68.028 48.4513 67.0233C48.4074 66.9169 48.3836 66.8075 48.5283 66.7786C48.9973 66.6851 49.4685 66.5506 49.9444 66.7459C50.4903 66.9739 50.759 67.398 50.7652 67.9619C50.7752 69.0046 50.3032 69.8368 49.497 70.4745C48.5214 71.2474 47.3918 71.6981 46.1613 71.9116C45.2866 72.0636 44.4065 72.0408 43.531 71.9511C42.2859 71.8235 41.114 71.4761 40.1138 70.6911C39.0358 69.8482 38.5283 68.7151 38.4329 67.3942C38.399 66.9329 38.4275 66.4678 38.3743 65.995C38.2142 66.375 38.0586 66.755 37.8931 67.135C37.3241 68.4301 36.5679 69.5913 35.4237 70.476C34.6777 71.0559 33.8037 71.4543 32.8727 71.6388C32.8145 71.6467 32.7559 71.6507 32.6971 71.6509C32.577 71.5932 32.4569 71.6547 32.336 71.6547C29.9028 71.6487 27.4699 71.6487 25.0372 71.6547C24.7446 71.6547 24.4527 71.6608 24.1255 71.6388C24.1802 71.559 24.2317 71.4921 24.2086 71.4108C24.9086 70.2632 25.1511 68.9742 25.406 67.6868C25.791 65.7214 26.1952 63.7584 26.5887 61.7938C26.7204 61.1371 26.8436 60.479 26.9737 59.8216C26.9874 59.7868 26.9983 59.7509 27.0061 59.7144C27.2355 58.6063 27.4645 57.4982 27.6929 56.3902C27.8104 56.023 27.8125 55.6292 27.6991 55.2608C27.6621 55.0769 27.6221 54.893 27.5874 54.709C27.5528 54.5008 27.6552 54.4598 27.8492 54.4613C29.2491 54.4681 30.6497 54.4613 32.0496 54.4613C32.3799 54.4613 32.3799 54.4613 32.3907 54.7835C32.3896 54.8415 32.3849 54.8994 32.3768 54.9568C32.1258 56.2235 31.874 57.4901 31.6214 58.7568C31.5444 59.13 31.4774 59.5039 31.3981 59.9166C31.6599 59.76 31.8794 59.6262 32.1011 59.4963C33.0814 58.9202 34.1031 58.5014 35.2828 58.5805C36.6942 58.6762 37.736 59.3116 38.3412 60.5914C38.7778 61.5156 38.8687 62.4975 38.8032 63.5007C38.7924 63.6755 38.7832 63.8503 38.7732 64.0244C38.8967 63.7828 39.0077 63.5352 39.1058 63.2826C39.4285 62.5325 39.8805 61.8591 40.3771 61.2124C40.4042 61.19 40.4299 61.1662 40.4541 61.1409C41.2656 60.2031 42.3095 59.489 43.4841 59.0684C44.7893 58.5821 46.1907 58.4 47.5789 58.5364C48.3004 58.6124 48.9749 58.8366 49.6279 59.1376L49.6317 59.1421C50.1446 59.434 50.6397 59.7501 51.0455 60.1841C51.6876 60.8726 51.9602 61.7041 52.0095 62.6161C52.0451 63.3974 51.9739 64.1799 51.7977 64.9424C51.7746 65.0466 51.7646 65.1659 51.6214 65.1894C51.6008 65.174 51.5771 65.1629 51.5519 65.1571C51.5267 65.1512 51.5006 65.1505 51.4751 65.1552H43.953C43.9176 65.1572 43.8824 65.161 43.8475 65.1666L43.8552 65.2084ZM43.993 64.057L43.9792 64.0928C43.998 64.0998 44.0177 64.1046 44.0377 64.1072H46.9206C46.9652 64.1072 47.0099 64.1072 47.0361 64.0601C47.2786 63.9841 47.2316 63.7614 47.2717 63.5874C47.5074 62.5874 47.6388 61.5662 47.6636 60.5398C47.6736 59.953 47.2786 59.5708 46.6888 59.5518C45.8572 59.5221 45.282 59.909 44.9086 60.6158C44.3803 61.6144 44.1078 62.6928 43.8999 63.7918C43.8798 63.8974 43.8852 63.994 43.993 64.057ZM29.7781 70.4988C29.919 70.4988 30.0591 70.4988 30.2 70.4988C30.2522 70.4958 30.3039 70.4869 30.354 70.4722C31.6815 70.1226 32.6093 69.3383 33.0082 68.022C33.4587 66.54 33.7713 65.0253 34.0646 63.506C34.2042 62.7721 34.148 62.0149 33.9014 61.3089C33.8551 61.1453 33.7595 60.9994 33.6271 60.8908C33.4948 60.7822 33.3321 60.7159 33.1607 60.7009C32.6509 60.6325 32.2136 60.7951 31.8409 61.1379C31.1648 61.7588 30.8022 62.5477 30.6212 63.4224C30.3355 64.8018 30.066 66.1835 29.7927 67.5652C29.6125 68.4772 29.44 69.3846 29.2537 70.2928C29.2221 70.4509 29.2537 70.5125 29.4231 70.5026C29.5409 70.4927 29.6595 70.4988 29.7781 70.4988Z" fill="white"/>
<path d="M67.3755 71.996C66.6055 72.0477 65.8424 72.1009 65.0716 72.0492C63.6795 71.9557 62.3343 71.692 61.0977 71.0232C60.6218 70.7663 60.1906 70.4448 59.9288 69.9546C59.5299 69.2076 59.7309 68.2963 60.3061 67.6283C61.3687 66.3963 63.6941 66.1797 65.1363 67.2718C65.3083 67.3981 65.4635 67.5451 65.5983 67.7096C65.7485 67.8958 65.74 68.0022 65.5544 68.1542C65.3689 68.3062 65.1694 68.4468 65.0154 68.6398C64.3386 69.4888 64.7013 70.65 65.7515 70.9472C66.6686 71.2063 67.4332 70.9844 68.0862 70.2715C69.2897 68.956 70.0204 67.4094 70.4732 65.7176C70.5748 65.3376 70.6534 64.9508 70.7311 64.5655C70.7565 64.4408 70.8027 64.2706 70.6888 64.1984C70.5956 64.1391 70.4778 64.2645 70.3808 64.3306C69.4422 64.9842 68.4273 65.4797 67.3008 65.7199C65.9333 66.011 64.5742 66.0239 63.2413 65.5238C61.696 64.947 60.5702 63.3799 60.5279 61.7527C60.5202 60.9196 60.6572 60.0914 60.9329 59.304C60.9529 59.2424 60.966 59.1778 60.9822 59.1148C61.0107 59.057 61.043 59 61.0669 58.94C61.3531 58.2201 61.7632 57.5545 62.2788 56.9723C63.3099 55.8126 64.6243 55.086 66.0688 54.5586C66.9462 54.2496 67.8627 54.0624 68.7923 54.0022C69.9434 53.9126 71.0792 53.9726 72.1988 54.2736C72.7424 54.4336 73.2684 54.6472 73.7688 54.9112C73.792 54.9374 73.8178 54.9613 73.8458 54.9826C74.4413 55.3505 74.9743 55.8089 75.4251 56.3408C75.8509 56.8317 76.1596 57.3934 76.4314 57.9778C76.4915 58.1701 76.5485 58.3639 76.6139 58.5554C76.7556 58.9688 76.7795 59.4051 76.8727 59.8284C76.8773 59.9855 76.8824 60.1425 76.8881 60.2996V60.9555C76.8881 61.1014 76.8796 61.2473 76.875 61.3932C76.8388 61.6744 76.8118 61.9572 76.7633 62.2361C76.6909 62.6586 76.6039 63.0789 76.5231 63.5C76.518 63.5037 76.5145 63.5093 76.5134 63.5155C76.5122 63.5217 76.5135 63.5281 76.5169 63.5334C76.4759 63.6031 76.4511 63.681 76.4445 63.7614L76.4307 63.845C76.2546 64.3425 76.078 64.8406 75.9009 65.3391C75.7755 65.5617 75.6664 65.7928 75.5744 66.0308L75.5798 66.0254L75.549 66.0817C75.5464 66.0829 75.5441 66.0846 75.5422 66.0867C75.5402 66.0888 75.5388 66.0913 75.5378 66.094C75.5369 66.0967 75.5365 66.0996 75.5367 66.1024C75.5369 66.1052 75.5377 66.108 75.539 66.1105C75.4057 66.3103 75.2898 66.5208 75.1925 66.7398C75.0858 66.873 74.9959 67.0185 74.9246 67.173L74.2985 68.047C74.1626 68.1792 74.0416 68.3255 73.9374 68.4833L73.5247 68.9233C73.5218 68.923 73.5189 68.9233 73.5161 68.9241C73.5133 68.9249 73.5107 68.9263 73.5085 68.9282C73.5062 68.93 73.5044 68.9323 73.5031 68.9348C73.5018 68.9374 73.501 68.9402 73.5008 68.9431C73.4114 69.0108 73.3334 69.0921 73.2698 69.184L72.3404 69.979C71.7944 70.3578 71.229 70.7086 70.6464 71.03L69.8472 71.3827C69.5592 71.4731 69.272 71.5651 68.984 71.654C68.4658 71.8105 67.9168 71.882 67.3755 71.996ZM72.0848 58.3517C72.0878 57.7733 72.0247 57.1964 71.8969 56.6318C71.7483 55.9729 71.418 55.431 70.7419 55.1878C70.2098 55.0001 69.6639 55.0358 69.1295 55.203C68.3357 55.447 67.8105 56.0041 67.3701 56.663C66.7456 57.5963 66.396 58.6299 66.1789 59.7205C65.9748 60.7465 65.9479 61.7611 66.2282 62.7749C66.4114 63.443 66.858 63.9841 67.6142 64.0669C68.5644 64.168 69.3952 63.8837 70.062 63.2309C71.4349 61.8933 72.0632 60.2403 72.0848 58.3487V58.3517Z" fill="white"/>
<path d="M53.2942 61.5658L53.3134 61.4821C53.3904 61.09 53.4759 60.6986 53.5444 60.3041C53.5845 60.0822 53.5052 60.0001 53.2788 60.0252C53.1101 60.0438 52.9401 60.0484 52.7706 60.0389C52.6312 60.0298 52.6104 59.9697 52.6643 59.8527C52.7056 59.7676 52.7659 59.6927 52.8407 59.6338C53.1664 59.3564 53.5406 59.1467 53.8832 58.8928C54.6425 58.3319 55.22 57.6008 55.819 56.8872C56.559 56.0086 57.3513 55.1871 58.3716 54.6163C58.9529 54.291 59.5566 54.0205 60.2342 53.9612C60.3443 53.9498 60.4552 53.9498 60.5653 53.9612C60.6616 53.9726 60.8171 53.9566 60.8263 54.0668C60.835 54.1327 60.8246 54.1997 60.7962 54.26C60.7679 54.3202 60.7228 54.3713 60.6662 54.4073C60.5584 54.4701 60.4531 54.5375 60.3505 54.6095C59.4734 55.2175 58.996 56.0907 58.6803 57.0688C58.5314 57.5434 58.4078 58.0254 58.31 58.5128C58.2576 58.7636 58.2599 58.7644 58.5287 58.7644C58.9907 58.7644 59.4457 58.7644 59.9039 58.7644C60.1287 58.7644 60.1672 58.8145 60.1226 59.0251C60.0579 59.3291 59.997 59.6391 59.9324 59.9454C59.92 60.0009 59.9131 60.064 59.8392 60.0807C59.3087 60.0807 58.7781 60.0807 58.2476 60.0807C58.1829 60.0807 58.0936 60.0374 58.059 60.1407C57.9134 60.2616 57.9165 60.4402 57.8842 60.5967C57.5885 62.0924 57.2959 63.5871 57.0064 65.0808C56.8277 65.9973 56.6668 66.9169 56.4543 67.8266C56.4081 68.025 56.3434 68.2196 56.3003 68.4187C56.1902 68.9226 56.4589 69.263 56.9802 69.2934C57.3205 69.3132 57.6378 69.2106 57.955 69.1141C58.1021 69.07 58.1729 69.07 58.1283 69.2615C57.7486 70.8841 56.2641 72.0507 54.5986 71.9884C53.5783 71.9496 52.7105 71.5886 52.1715 70.6683C51.8112 70.0534 51.8058 69.4014 51.9405 68.7189C52.4025 66.3712 52.8391 64.0206 53.2849 61.6706C53.2902 61.6359 53.2933 61.6009 53.2942 61.5658Z" fill="white"/>
<path d="M74.7465 75.3339L74.6179 75.3255C74.4883 75.2777 74.3519 75.2503 74.2137 75.2442L74.1952 75.2343H74.1752C74.0982 75.1583 73.928 75.2267 73.908 75.0633L73.9565 75.0177L74.0173 74.9721C74.02 74.9731 74.0229 74.9734 74.0258 74.973C74.0287 74.9727 74.0315 74.9717 74.0339 74.9702C74.0363 74.9687 74.0384 74.9666 74.0399 74.9642C74.0415 74.9618 74.0424 74.959 74.0427 74.9562C74.1027 74.9031 74.1627 74.8502 74.2229 74.7973C74.3357 74.7351 74.4293 74.644 74.4939 74.5336C74.5914 74.4672 74.6692 74.3764 74.7195 74.2707H74.7157C74.7279 74.2688 74.7389 74.2624 74.7465 74.2528C74.754 74.2432 74.7576 74.2311 74.7565 74.219C74.9521 74.0012 75.1025 73.7476 75.1993 73.4727C75.2253 73.4379 75.2482 73.4011 75.2678 73.3625C75.6127 72.5265 75.7298 71.6342 75.9023 70.7557L75.9123 70.6743C76.0105 70.3275 76.0835 69.9742 76.131 69.6172C76.1756 69.583 76.1656 69.5351 76.1625 69.4887L76.1764 69.3595C76.286 68.9547 76.3717 68.5438 76.4328 68.1291L76.4374 68.0843C76.4952 67.9301 76.5267 67.7675 76.5306 67.6032C76.5937 67.4661 76.6245 67.3167 76.6207 67.1662C76.7654 66.5863 76.8871 66.0018 76.9749 65.4106L76.9849 65.4014L76.9795 65.3885C77.1189 64.8162 77.2428 64.2409 77.3268 63.6573C77.3321 63.6529 77.3356 63.6469 77.3368 63.6401C77.3379 63.6334 77.3365 63.6266 77.3329 63.6208C77.4786 63.0547 77.5947 62.4817 77.681 61.9039C77.6864 61.8997 77.6901 61.8936 77.6912 61.8869C77.6924 61.8801 77.6909 61.8732 77.6871 61.8674C77.7429 61.7258 77.7728 61.5755 77.7757 61.4236C77.7949 61.362 77.8188 61.3012 77.8342 61.2382C77.9797 60.6362 78.0221 60.0381 77.7741 59.4491C77.7449 59.228 77.5839 59.0539 77.5431 58.8358L77.594 58.778L78.039 58.7469H81.6357H82.3017C82.4811 58.7469 82.5851 58.8191 82.5643 59.0114C82.4873 59.1717 82.4873 59.3488 82.4496 59.5183C82.3372 60.0799 82.234 60.6431 82.1269 61.2062C82.1216 61.2111 82.1181 61.2176 82.1171 61.2247C82.1161 61.2317 82.1177 61.239 82.1216 61.245C82.0645 61.3858 82.0345 61.5357 82.033 61.6873C81.8605 62.3979 81.735 63.1176 81.6003 63.8358L81.5887 63.9658C81.504 64.2383 81.4462 64.5183 81.4162 64.8018L81.4124 64.8451C81.3608 64.9708 81.3329 65.1047 81.33 65.2403L81.3208 65.3163C81.2079 65.7407 81.121 66.1714 81.0605 66.6061C81.0605 66.622 81.0605 66.6372 81.0551 66.6532C80.97 66.9384 80.9115 67.2307 80.8803 67.5264C80.8749 67.531 80.8713 67.5373 80.8701 67.5443C80.869 67.5513 80.8704 67.5584 80.8742 67.5644C80.8206 67.6914 80.7929 67.8274 80.7925 67.9649L80.7879 68.0083C80.6108 68.7181 80.4861 69.4378 80.3529 70.1568L80.3436 70.2434C80.2698 70.5025 80.2142 70.7664 80.1773 71.0331C80.1727 71.0756 80.1688 71.1174 80.1642 71.16C80.0102 71.7239 79.9332 72.3 79.8154 72.8738C79.8099 72.8774 79.8059 72.8829 79.8044 72.8892C79.8028 72.8956 79.8037 72.9023 79.8069 72.908C79.7615 72.976 79.735 73.0546 79.7299 73.136C79.7271 73.1372 79.7246 73.139 79.7225 73.1412C79.7204 73.1434 79.7188 73.146 79.7177 73.1488C79.7166 73.1516 79.7162 73.1546 79.7163 73.1576C79.7164 73.1607 79.7171 73.1636 79.7184 73.1664C79.1424 74.3717 78.0344 74.8277 76.837 75.1507C76.529 75.2328 76.221 75.2708 75.9061 75.3293L75.3671 75.3506H75.1122L74.7465 75.3339Z" fill="white"/>
<path d="M95.0379 61.394C95.0379 61.6833 95.0392 61.9734 95.0418 62.2642C94.8293 63.8313 94.4866 65.3756 94.1948 66.9283C94.0647 67.6123 93.9399 68.3032 93.8098 68.9894C93.6558 69.7973 93.7543 70.6022 93.8221 71.4078C93.8444 71.6791 93.8221 71.7118 93.5395 71.7118C92.3347 71.7118 91.1302 71.7133 89.9259 71.7163C89.7565 71.7163 89.5863 71.7254 89.4169 71.73C89.1228 71.6593 89.082 71.6099 89.052 71.3052C89.0443 71.2185 89.0312 71.1325 89.0127 71.0475C88.9588 70.8112 88.8887 70.7701 88.6824 70.8955C88.2358 71.1585 87.7884 71.4207 87.3218 71.6487L87.2779 71.6601L87.1023 71.7361L86.2553 71.9945H86.2353L86.2176 72.0044C86.05 72.0108 85.8839 72.0382 85.7232 72.0857L85.463 72.0986H84.9733L84.5821 72.0834C84.4207 72.0355 84.2538 72.0082 84.0855 72.0021L84.0677 71.9922L84.0477 71.996C83.7012 71.879 83.347 71.7817 83.0252 71.5993C82.3537 71.2237 81.846 70.6171 81.5991 69.8954C81.5923 69.76 81.5629 69.6268 81.5121 69.5009L81.506 69.4135C81.4829 69.0153 81.5406 68.6224 81.5968 68.2302C81.5994 68.2286 81.6016 68.2266 81.6034 68.2242C81.6051 68.2217 81.6064 68.219 81.607 68.2161C81.6077 68.2132 81.6077 68.2102 81.6072 68.2072C81.6066 68.2043 81.6054 68.2015 81.6037 68.199C81.7277 67.8578 81.8263 67.5082 81.9957 67.1829C82.2967 66.6046 82.7303 66.1341 83.1992 65.6895L83.2539 65.6492L83.2924 65.6112L84.184 64.9949L84.7376 64.7258C85.3213 64.4416 85.9435 64.2569 86.5487 64.0266C86.5509 64.028 86.5534 64.0289 86.556 64.0292C86.5586 64.0295 86.5612 64.0292 86.5637 64.0283C86.5662 64.0274 86.5684 64.026 86.5702 64.0241C86.572 64.0222 86.5733 64.02 86.5741 64.0175C86.6035 64.0172 86.6327 64.0134 86.6611 64.0061C87.6914 63.6512 88.7224 63.2986 89.7319 62.8874C90.1164 62.735 90.4289 62.4456 90.6074 62.0765C90.8545 61.5733 90.853 61.0459 90.7075 60.5185C90.6459 60.2958 90.4765 60.1537 90.2555 60.0716C89.9534 59.9661 89.6284 59.9419 89.3138 60.0017C88.7247 60.0959 88.4144 60.4805 88.4298 61.0718C88.4352 61.2458 88.4721 61.4183 88.4868 61.5923C88.5106 61.8682 88.4036 62.0734 88.141 62.192C87.5759 62.4481 87.0038 62.6875 86.3747 62.7331C85.5985 62.7894 84.9363 62.5652 84.5097 61.8842C83.9114 60.9289 83.799 59.893 84.0369 58.8077C84.0708 58.6519 84.1494 58.6132 84.2864 58.6983C84.7692 58.9977 85.3082 59.0707 85.8611 59.0524C86.9245 59.0086 87.9843 58.9025 89.035 58.7348C90.0414 58.5828 91.0486 58.5425 92.0596 58.7021C92.6037 58.7997 93.1394 58.9384 93.6619 59.117C94.241 59.421 94.6676 59.8595 94.8647 60.4949C94.9548 60.7898 94.9802 61.0946 95.0379 61.394ZM90.1646 64.076C89.7411 64.2409 89.3415 64.3694 88.9857 64.5974C88.1511 65.1387 87.4335 65.838 86.8744 66.6547C86.3593 67.3942 86.0528 68.1808 86.2014 69.0996C86.2923 69.6605 86.752 70.1416 87.2863 70.188C87.6529 70.2199 87.9593 70.0443 88.2635 69.884C88.8063 69.5914 89.2029 69.1734 89.303 68.5494C89.4716 67.4976 89.7088 66.4586 89.9097 65.4129C89.9914 64.9759 90.0761 64.5411 90.1646 64.076Z" fill="white"/>
<path d="M80.9825 57.2072C83.2372 57.2072 85.065 55.4031 85.065 53.1777C85.065 50.9522 83.2372 49.1481 80.9825 49.1481C78.7277 49.1481 76.8999 50.9522 76.8999 53.1777C76.8999 55.4031 78.7277 57.2072 80.9825 57.2072Z" fill="white" stroke="white" stroke-width="0.669305"/>
<path d="M84.0443 53.816C84.1052 54.383 83.8711 55.0594 83.6362 55.738M79.469 49.4361L79.6138 49.7835L79.469 49.4361ZM77.2175 53.1518C77.437 53.6617 77.949 53.8 78.4041 53.9938L77.2175 53.1518ZM78.8807 50.453C77.8728 50.6932 77.2245 51.7389 77.256 51.745L78.8807 50.453ZM79.8417 50.9318C79.5206 51.4858 79.4721 52.2162 79.6369 53.0811L79.8417 50.9318ZM80.9382 49.4133C81.2893 49.2666 81.8529 49.2894 82.5413 49.4506L80.9382 49.4133ZM79.0586 55.58C78.8938 55.7563 78.7968 56.0519 78.7175 56.3772L79.0586 55.58ZM81.3139 50.3101C81.742 50.5381 82.5282 50.9288 83.0241 51.5459L81.3139 50.3101ZM80.6756 55.4477C81.0695 55.9394 81.6266 56.278 82.2487 56.4038L80.6756 55.4477ZM82.9987 53.0302C82.3734 53.4118 81.7051 53.7201 81.0075 53.949L82.9987 53.0302ZM84.1406 51.324C84.0967 50.928 83.9096 50.5465 83.6886 50.1672L84.1406 51.324ZM84.6896 52.9093C84.776 52.9488 84.8534 53.005 84.9172 53.0748C84.981 53.1445 85.0298 53.2263 85.0607 53.3152L84.6896 52.9093Z" stroke="white" stroke-width="0.669305"/>
<path d="M79.4887 49.4734C80.0266 49.3641 80.5764 49.322 81.1249 49.348C81.2743 49.6216 81.3305 49.991 81.4014 50.3581C80.7654 50.6074 80.1563 50.8566 79.7613 51.0869C79.3409 50.8741 79.1099 50.824 78.6209 50.523C78.7826 50.1438 79.076 49.7942 79.4887 49.4734ZM84.1403 51.2541C84.4128 51.8158 84.6793 52.3782 84.7871 52.9527C84.5306 53.3327 84.2642 53.756 84.0479 53.9453C83.6975 53.7416 83.2779 53.4087 82.8698 53.1093C82.879 52.4602 82.9036 51.9792 82.9221 51.4373C83.3579 51.3294 83.7776 51.2412 84.1403 51.2541ZM76.9793 53.946C76.8189 53.125 76.9215 52.275 77.2726 51.514L77.3712 51.5406C77.2372 52.1129 77.1356 52.6806 77.2696 53.1974C77.1227 53.421 77.0483 53.6835 77.0563 53.9498L76.9793 53.946ZM79.6104 52.9368C80.1494 53.2628 80.6753 53.5805 81.1835 53.8928C81.138 54.4834 80.9455 55.0176 80.7885 55.5648C80.2294 55.7412 79.6088 55.6196 79.0175 55.6264C78.5793 55.0131 78.5108 54.4955 78.3391 53.9544C78.717 53.5645 79.1428 53.2226 79.6065 52.9368H79.6104ZM83.9747 55.9152C83.3868 56.5416 82.6124 56.9675 81.7633 57.1312L81.5816 57.0499C81.7972 56.9032 81.9542 56.6547 82.0836 56.3575C82.5248 56.3302 83.1208 55.9236 83.689 55.5846C83.7973 55.6821 83.8921 55.7932 83.9709 55.9152H83.9747ZM79.3493 56.8652C78.8057 56.6294 78.3207 56.2795 77.9279 55.84C78.1974 56.0824 78.4207 56.296 78.7387 56.315C78.7711 56.4662 78.9289 56.6372 79.3455 56.8652H79.3493Z" fill="white"/>
</g>
</svg>
