<svg width="120" height="120" viewBox="0 0 120 120" fill="none" xmlns="http://www.w3.org/2000/svg">
<g opacity="0.4">
<path d="M65.513 34.6252C67.2011 34.6487 68.8117 34.969 70.3157 35.734C71.6417 36.4128 72.7229 37.3619 73.4609 38.6701C73.9405 39.5336 74.2551 40.479 74.3886 41.4577C74.6629 43.3366 74.3855 45.1542 73.7659 46.9315C73.4017 47.974 72.8978 48.9517 72.3521 49.912C71.2403 51.8668 69.8118 53.561 68.1502 55.063C66.0185 56.9918 63.6808 58.68 61.1796 60.0972C60.2106 60.6444 59.2059 61.1039 58.1252 61.3849C57.4631 61.5638 56.7796 61.6502 56.0938 61.642C55.1911 61.6236 54.4848 61.2126 53.9355 60.52C53.4283 59.8984 53.167 59.1122 53.2011 58.3107C53.2071 58.0877 53.2393 57.8662 53.297 57.6507C53.6239 56.4894 54.0681 55.3771 54.7321 54.3627C55.2396 53.5881 55.8445 52.9001 56.6355 52.4079C57.5152 51.8602 58.4715 51.6261 59.5057 51.852C59.8291 51.9278 60.1334 52.0693 60.3998 52.2677C61.0806 52.7542 61.0449 53.5177 60.718 54.0052C60.4379 54.4289 60.1249 54.8299 59.7817 55.2042C59.2003 55.8305 58.5826 56.4226 57.9798 57.0285C57.4464 57.5645 56.945 58.1271 56.5386 58.7681C56.3279 59.1006 56.1336 59.4398 56.0755 59.8391C56.002 60.3399 56.2621 60.6811 56.7676 60.7281C57.0291 60.7494 57.2923 60.723 57.5443 60.65C58.321 60.4353 59.0422 60.089 59.7505 59.7157C60.843 59.1379 61.8512 58.4315 62.834 57.6864C64.0254 56.7832 65.1836 55.8412 66.251 54.7937C67.4668 53.6018 68.5506 52.3064 69.3799 50.8116C69.9857 49.7202 70.432 48.5676 70.6304 47.3314C70.8058 46.2425 70.7079 45.1817 70.2035 44.1821C69.9606 43.6881 69.5807 43.2743 69.109 42.9903C68.8913 42.8592 68.6511 42.7696 68.4007 42.7261C67.4893 42.5644 66.6075 42.697 65.741 42.9862C64.8378 43.2881 63.9999 43.7287 63.1854 44.2102C61.4177 45.2587 59.648 46.3068 57.9635 47.4874C57.1189 48.079 56.3004 48.7084 55.4727 49.3234C54.725 49.8793 53.9824 50.4419 53.1654 50.8963C52.5024 51.2738 51.7848 51.5462 51.0382 51.7036C50.1131 51.8913 49.2604 51.7169 48.477 51.214C47.6641 50.6923 47.0949 49.9762 46.845 49.0287C46.6859 48.4304 46.7486 47.8373 46.8858 47.2467C47.0862 46.3797 47.4667 45.5943 47.941 44.8497C49.114 43.0107 50.5889 41.4506 52.304 40.1169C54.8459 38.1407 57.6427 36.6188 60.668 35.5177C62.2213 34.9496 63.8593 34.6478 65.513 34.6252Z" fill="white"/>
<path d="M44.601 76.6717C44.5923 76.0944 44.5265 75.5752 44.193 75.1249C44.0305 74.9073 43.8057 74.7443 43.5483 74.6577C42.8853 74.4201 42.2101 74.4481 41.5517 74.6516C41.0238 74.8148 40.5148 75.0372 39.9982 75.2356C39.8962 75.2733 39.8034 75.3217 39.68 75.3768C39.4367 74.7735 39.1975 74.188 38.9471 73.576C39.3097 73.4041 39.6514 73.2287 40.0038 73.0783C40.8157 72.7309 41.6578 72.4928 42.5431 72.4392C43.4285 72.3857 44.3021 72.4326 45.1079 72.862C46.0193 73.3445 46.6772 74.0411 46.9526 75.055C46.9923 75.1877 47.0161 75.3247 47.0235 75.463C47.0587 76.7793 47.1061 78.0956 47.1117 79.412C47.1153 80.3116 47.0561 81.2117 47.0296 82.1119C47.0248 82.2353 46.9734 82.3523 46.8858 82.4393C46.2559 83.1329 45.4853 83.6123 44.6122 83.9341C43.6759 84.2758 42.6789 84.419 41.6843 84.3549C40.7663 84.3039 39.9737 83.928 39.3036 83.3043C38.6335 82.6805 38.1653 81.9273 38.0347 81.0042C37.8562 79.7399 38.2209 78.6429 39.1297 77.7402C39.7141 77.1598 40.4343 76.8599 41.2457 76.7538C42.1433 76.637 43.0439 76.6681 43.9446 76.6707L44.601 76.6717ZM44.4832 78.727C44.4303 78.7166 44.3768 78.7093 44.323 78.7051C44.017 78.699 43.7074 78.6883 43.3999 78.6929C43.0312 78.6985 42.6609 78.7 42.2942 78.7347C41.9153 78.7709 41.5476 78.8815 41.2538 79.1345C40.7663 79.5547 40.6214 80.1035 40.7403 80.7221C40.8882 81.4871 41.3155 82.0216 42.0775 82.2491C42.4704 82.3666 42.8864 82.3841 43.2877 82.3001C43.6608 82.2318 44.0088 82.0649 44.2955 81.8166C44.344 81.779 44.3839 81.7313 44.4125 81.677C44.4411 81.6226 44.4577 81.5628 44.4612 81.5014C44.473 81.2327 44.5076 80.9644 44.5097 80.6956C44.5138 80.08 44.5046 79.4645 44.4995 78.8489C44.4964 78.808 44.491 78.7673 44.4832 78.727Z" fill="white"/>
<path d="M75.2764 78.676C73.0885 78.676 70.9414 78.6291 68.7642 78.6862C68.7754 78.8392 68.782 78.9841 68.7958 79.1253C68.8519 79.7032 68.9763 80.2647 69.2206 80.7946C69.4106 81.2268 69.7054 81.6047 70.0784 81.8941C70.67 82.3434 71.3453 82.4169 72.0537 82.3256C72.6392 82.2501 73.1843 82.0359 73.728 81.8202C73.9774 81.7217 74.2247 81.6162 74.493 81.5065C74.748 82.04 74.9979 82.5643 75.258 83.1038C75.2101 83.1385 75.1652 83.1773 75.1152 83.2058C74.0544 83.8352 72.9151 84.2406 71.6844 84.3477C70.5624 84.4451 69.4914 84.261 68.5224 83.6404C67.8625 83.2176 67.4004 82.6204 67.0138 81.9523C66.5377 81.1211 66.2495 80.1956 66.1693 79.2411C66.0074 77.5006 66.377 75.8802 67.278 74.3798C67.9063 73.3368 68.8442 72.7702 70.0183 72.5749C71.0974 72.3851 72.209 72.5701 73.1685 73.0992C73.7061 73.3904 74.0804 73.8489 74.389 74.3629C74.797 75.0407 75.0117 75.7879 75.1147 76.5621C75.1983 77.1863 75.2248 77.8182 75.2748 78.4491C75.2809 78.5138 75.2764 78.5812 75.2764 78.676ZM72.6244 76.6947C72.4974 76.1128 72.4107 75.5181 72.0297 75.0249C71.8386 74.7798 71.5703 74.6065 71.2683 74.5333C70.465 74.3206 69.6577 74.6909 69.3124 75.4513C69.189 75.7221 69.1166 76.0164 69.0268 76.3015C68.9865 76.4305 68.9605 76.5646 68.9284 76.6947C69.1441 76.7518 72.4035 76.7543 72.6254 76.6962L72.6244 76.6947Z" fill="white"/>
<path d="M60.9228 69.7872L63.5335 69.3833V72.5897C64.1129 72.6244 64.6647 72.5866 65.2196 72.6463V74.6215C64.6586 74.6307 64.1093 74.6139 63.5366 74.6485C63.5366 74.7597 63.5366 74.8429 63.5366 74.926C63.5318 76.8273 63.5278 78.7287 63.5244 80.6303C63.5244 80.9297 63.5483 81.2296 63.5754 81.5279C63.6182 81.9869 63.8727 82.2782 64.3174 82.3898C64.5627 82.4521 64.8147 82.4873 65.0635 82.5347L65.3134 82.5857V84.2621C65.2854 84.2759 65.2555 84.2859 65.2247 84.2916C64.4837 84.3248 63.7457 84.3054 63.0291 84.0876C62.3294 83.8765 61.746 83.494 61.3502 82.8636C61.1253 82.5066 61.0111 82.1053 60.9616 81.6906C60.9317 81.4309 60.9171 81.1697 60.9177 80.9083C60.9177 77.2975 60.9198 73.687 60.9239 70.0769L60.9228 69.7872Z" fill="white"/>
<path d="M76.7109 69.7893L79.2354 69.3517V69.7C79.2354 72.9793 79.2368 76.2586 79.2395 79.5379C79.2395 80.1382 79.2446 80.7385 79.2492 81.3392C79.2533 81.9319 79.4695 82.2338 80.0356 82.4102C80.228 82.4634 80.4233 82.5053 80.6206 82.5357C80.7409 82.5581 80.8628 82.5689 81.0092 82.5867V84.2993C80.9956 84.3106 80.9795 84.3184 80.9623 84.3222C80.2452 84.3513 79.5312 84.3396 78.8341 84.1356C78.4116 84.014 78.0183 83.8079 77.6779 83.5297C77.044 83.011 76.7859 82.3159 76.7196 81.532C76.7002 81.3025 76.7028 81.0705 76.7033 80.84C76.7033 77.2526 76.7058 73.6656 76.7109 70.0789V69.7893Z" fill="white"/>
<path d="M55.847 84.1478H53.297C53.2939 84.0412 53.2888 83.9438 53.2883 83.8474C53.2856 82.3153 53.2834 80.7833 53.2817 79.2513C53.2786 78.0273 53.271 76.8033 53.2715 75.5793C53.2723 75.3573 53.2894 75.1357 53.3225 74.9163C53.3602 74.6659 53.4913 74.4573 53.6734 74.2813C54.675 73.3062 55.8751 72.7217 57.2434 72.4698C58.1009 72.3125 58.9798 72.3113 59.8378 72.4662C59.8832 72.4744 59.9285 72.4846 59.9729 72.4958C59.9948 72.5014 60.0158 72.5121 60.0581 72.5284C59.7684 73.2649 59.4155 73.9687 59.083 74.6643C58.6857 74.6643 58.3093 74.6526 57.9339 74.6669C57.2857 74.6884 56.6494 74.8469 56.0668 75.132C55.9016 75.2131 55.8399 75.3141 55.8404 75.5043C55.8475 78.2923 55.8492 81.0803 55.8455 83.8683L55.847 84.1478Z" fill="white"/>
<path d="M51.4164 72.6978C51.4434 76.5187 51.4139 80.3172 51.4383 84.1391H48.9429C48.9368 84.0468 48.9246 83.9504 48.9246 83.854C48.9246 81.4519 48.9246 79.0495 48.9246 76.6467C48.9246 75.5456 48.9337 74.4445 48.9383 73.3434C48.9383 73.2598 48.9383 73.1761 48.9383 73.0711L51.4164 72.6978Z" fill="white"/>
<path d="M50.0653 71.5732C48.8469 71.5702 48.0839 70.3574 48.5893 69.2125C48.8999 68.5102 49.4334 68.2435 50.203 68.248C51.2342 68.2567 51.9987 69.2823 51.7529 70.2845C51.5565 71.0852 50.9139 71.5753 50.0653 71.5732Z" fill="white"/>
</g>
</svg>
