<svg width="120" height="120" viewBox="0 0 120 120" fill="none" xmlns="http://www.w3.org/2000/svg">
<g opacity="0.4" clip-path="url(#clip0_1550_22956)">
<g clip-path="url(#clip1_1550_22956)">
<path d="M119.663 54.1837H117.017C116.551 54.1837 116.121 54.6328 116.116 54.6423L106.066 68.1112C105.877 68.362 105.58 68.3561 105.401 68.0989L96.1206 54.6441C96.1155 54.6328 95.7708 54.172 95.1213 54.172H77.2961C76.9847 54.172 76.7335 53.9148 76.7355 53.5976L76.7476 49.1526C76.7476 48.5146 76.2425 47.9998 75.6237 47.9998H48.322C44.0936 48.1461 42.2849 48.5791 40.3504 49.7351C38.5669 50.8053 37.6767 52.1629 37.6767 53.7949C37.6767 55.5253 39.0563 57.2314 41.8165 58.9148C42.5257 59.3516 45.0805 60.6114 49.4747 62.6901C52.2355 63.9957 53.7244 65.0699 53.6169 66.1309C53.4494 67.8376 51.934 68.4234 48.322 68.4234H31.8146C31.415 68.4234 31.0889 68.3524 31.0889 68.0331C31.0889 67.8767 31.1802 67.7337 31.3525 67.6216L31.3495 67.6191C35.0456 65.3453 36.2649 62.2733 36.2649 59.489C36.2649 54.279 31.9839 47.9998 14.9403 47.9998H0.121731C-0.497985 47.9998 -1 48.5146 -1 49.1526V69.8523C-1 70.4846 -0.497981 71 0.123536 71H14.9403C15.5059 71 16.0548 70.9929 16.5871 70.9785H53.649C57.0341 70.9785 59.6781 70.4056 61.5876 69.2647C63.3507 68.2028 64.2319 66.8596 64.2319 65.2177C64.2319 63.4947 62.8526 61.7917 60.0927 60.1098C59.3862 59.6743 56.8329 58.4058 52.4318 56.3177C49.6728 55.013 48.2932 53.9578 48.2932 53.1516C48.2932 51.4225 50.0803 50.5843 53.649 50.5843H66.1779C66.4883 50.5843 66.7396 50.84 66.7414 51.1563L66.7333 66.1758C66.7333 68.3777 68.1568 70.9785 72.4714 70.9785H106.908C107.724 70.9785 108.137 70.4388 108.137 70.4388L119.936 54.5658C119.936 54.5658 120.198 54.1837 119.663 54.1837ZM12.7145 68.5104H9.06647C8.75572 68.5104 8.5038 68.2532 8.5038 67.9366V51.0564C8.5038 50.7398 8.75571 50.4819 9.06347 50.4819H12.7145C21.7397 50.4819 26.5269 54.279 26.5269 59.489C26.5269 64.7217 21.6944 68.5104 12.7145 68.5104ZM95.382 68.5722H79.4747C77.261 68.5722 76.7334 67.9261 76.7334 66.1758V57.1451C76.7334 56.8417 76.9679 56.598 77.2565 56.5771H86.4937C86.7849 56.598 87.1365 56.7772 87.3205 57.0049L95.6149 68.1398C95.7783 68.3777 95.6798 68.5722 95.382 68.5722Z" fill="white"/>
</g>
</g>
<defs>
<clipPath id="clip0_1550_22956">
<rect width="120" height="120" fill="white"/>
</clipPath>
<clipPath id="clip1_1550_22956">
<rect width="121" height="23" fill="white" transform="translate(-1 48)"/>
</clipPath>
</defs>
</svg>
