<svg width="40" height="40" viewBox="0 0 40 40" fill="none" xmlns="http://www.w3.org/2000/svg">
<rect width="40" height="40" fill="white"/>
<path d="M23.75 12.5V31.831C23.75 32.0368 23.8008 32.2394 23.8979 32.4208C23.995 32.6023 24.1354 32.7569 24.3066 32.8711L26.0241 34.0161C26.1908 34.1272 26.3817 34.1966 26.5809 34.2185C26.78 34.2404 26.9814 34.2142 27.1683 34.1419C27.3551 34.0697 27.5218 33.9536 27.6544 33.8035C27.787 33.6533 27.8816 33.4735 27.9302 33.2792L30 25" stroke="#353F50" stroke-width="2" stroke-linecap="round" stroke-linejoin="round"/>
<path d="M30 25C31.6576 25 33.2473 24.3415 34.4194 23.1694C35.5915 21.9973 36.25 20.4076 36.25 18.75C36.25 17.0924 35.5915 15.5027 34.4194 14.3306C33.2473 13.1585 31.6576 12.5 30 12.5H23.75C23.75 12.5 15.2419 12.5 7.05452 5.6332C6.87243 5.47994 6.65037 5.38186 6.41444 5.3505C6.17851 5.31914 5.93854 5.35579 5.72273 5.45616C5.50693 5.55652 5.32427 5.71642 5.19624 5.91705C5.06821 6.11768 5.00012 6.3507 5 6.5887V30.9113C5.00012 31.1493 5.06821 31.3823 5.19624 31.583C5.32427 31.7836 5.50693 31.9435 5.72273 32.0439C5.93854 32.1442 6.17851 32.1809 6.41444 32.1495C6.65037 32.1182 6.87243 32.0201 7.05452 31.8668C15.2419 25 23.75 25 23.75 25H30Z" stroke="#353F50" stroke-width="2" stroke-linecap="round" stroke-linejoin="round"/>
</svg>
