<svg width="40" height="40" viewBox="0 0 40 40" fill="none" xmlns="http://www.w3.org/2000/svg">
<g clip-path="url(#clip0_1300_23726)">
<path d="M16.4479 6.0465C16.0632 6.0465 15.6712 6.1057 15.28 6.22677C13.666 6.7261 12.515 8.12424 12.3478 9.78891C12.0418 12.8338 14.8279 16.2317 20.0061 19.1498C25.1801 16.2313 27.9621 12.833 27.6537 9.78744C27.4851 8.1209 26.3324 6.7225 24.7173 6.2249C23.1993 5.75743 21.6671 6.2229 20.6189 7.47063C20.4671 7.65144 20.2431 7.75597 20.0069 7.7561C20.0067 7.7561 20.0065 7.7561 20.0063 7.7561C19.7704 7.7561 19.5465 7.65197 19.3945 7.47157C18.6116 6.54237 17.5608 6.0465 16.4479 6.0465ZM20.0063 20.8651C19.8743 20.8651 19.7423 20.8324 19.6227 20.767C11.3864 16.2649 10.532 11.8561 10.7557 9.62891C10.9873 7.3233 12.5776 5.38783 14.8071 4.6981C16.6836 4.11783 18.5709 4.53476 20.0056 5.81023C21.4347 4.5369 23.3167 4.1189 25.1885 4.6957C27.4196 5.38303 29.0121 7.31837 29.2457 9.62637C29.4712 11.8541 28.6207 16.2637 20.3904 20.7669C20.2708 20.8322 20.1385 20.8651 20.0063 20.8651ZM10.1166 34.3999H16.6807C16.6737 33.3537 16.7153 32.3371 16.7559 31.3471C16.9447 26.7331 17.0939 23.0885 12.2756 20.4653C9.97078 19.1996 8.95811 17.5605 8.06464 16.1145C7.73598 15.5826 7.42558 15.0801 7.06451 14.6105C6.77797 14.2417 6.22797 14.1466 5.69824 14.2458C5.62797 14.274 5.55277 14.2925 5.47437 14.2997C5.23011 14.3717 4.99957 14.4844 4.81211 14.6293C3.92371 15.317 4.35317 16.2602 4.86984 16.9305C6.14584 18.5777 7.41118 20.2184 8.47798 21.6019C9.51344 22.9445 10.3313 24.0052 10.8246 24.6385C11.0962 24.9871 11.0337 25.4897 10.6853 25.7613C10.3366 26.0328 9.83398 25.9705 9.56238 25.6219C9.06664 24.9855 8.24771 23.9235 7.21078 22.5789C6.14464 21.1963 4.88011 19.5565 3.60384 17.9089C2.04677 15.8894 2.75424 14.1988 3.83291 13.364C4.06344 13.1856 4.32357 13.0352 4.60144 12.9169C4.60264 12.5022 4.60491 12.1258 4.60704 11.7749C4.61517 10.4409 4.62104 9.47717 4.55624 8.15957C4.51864 7.3889 3.72917 6.6981 3.25317 6.6725C3.18184 6.66796 2.96224 6.65677 2.8645 7.2773C2.80437 7.6717 2.7205 8.17117 2.62344 8.74944C2.15024 11.5684 1.2693 16.8154 1.72624 19.2201C2.3313 22.4591 4.26584 24.5196 6.31398 26.7011C7.58318 28.0531 8.89558 29.4509 9.99478 31.2073C10.0744 31.3345 10.1166 31.4816 10.1166 31.6317V34.3999ZM17.4965 36H9.31664C8.87478 36 8.51651 35.6417 8.51651 35.2V31.8645C7.52264 30.3261 6.31584 29.0409 5.14744 27.7963C3.03184 25.5431 0.844369 23.2131 0.153835 19.5164C-0.356072 16.8329 0.521303 11.6069 1.04544 8.4845C1.14144 7.91264 1.22437 7.41864 1.2833 7.0321C1.5217 5.51917 2.50117 5.02943 3.33917 5.07463C4.73944 5.14997 6.08117 6.58303 6.15437 8.0813C6.22131 9.44264 6.21531 10.425 6.20704 11.7846C6.20557 12.0453 6.20384 12.32 6.20264 12.6142C7.01771 12.6421 7.80491 12.9554 8.33064 13.6321C8.74384 14.1697 9.09051 14.7308 9.42584 15.2734C10.2922 16.6756 11.1105 17.9998 13.0433 19.0613C18.7335 22.1592 18.5495 26.6539 18.3545 31.4125C18.3047 32.6321 18.2529 33.8932 18.2961 35.1731C18.3033 35.3897 18.2224 35.6001 18.0716 35.7561C17.9209 35.912 17.7133 36 17.4965 36ZM23.3171 34.3999H29.8809V31.6317C29.8809 31.4816 29.9231 31.3345 30.0028 31.2073C31.1019 29.4509 32.4144 28.0531 33.6836 26.7011C35.7317 24.5196 37.6663 22.4591 38.2709 19.2225C38.7393 16.7566 37.8315 11.4118 37.3437 8.54037C37.2607 8.05184 37.188 7.62397 37.1332 7.27797C37.0392 6.65784 36.8241 6.6685 36.7523 6.67237C36.2735 6.69677 35.4791 7.38703 35.4413 8.1593C35.3731 9.5509 35.3832 10.5161 35.3987 11.9772C35.4019 12.2697 35.4051 12.5812 35.408 12.9188C36.1807 13.2564 36.8001 13.844 37.0945 14.5584C37.3395 15.1526 37.5743 16.3778 36.3948 17.9076C35.2264 19.4249 34.0611 20.9361 33.0511 22.2459C31.9185 23.7147 30.9812 24.93 30.4537 25.6172C30.1848 25.9679 29.6825 26.0339 29.332 25.7648C28.9815 25.4959 28.9155 24.9936 29.1844 24.6431C29.7123 23.9552 30.6504 22.7388 31.784 21.2687C32.7937 19.9593 33.9589 18.4484 35.1273 16.9309C35.4884 16.4625 35.866 15.7768 35.6152 15.1681C35.4187 14.6912 34.848 14.3124 34.1953 14.2256C33.6551 14.154 33.1887 14.2976 32.9483 14.6105C32.5764 15.089 32.2611 15.5982 31.9272 16.1372C31.036 17.5758 30.0259 19.2065 27.7231 20.4647C22.9036 23.0885 23.0528 26.7331 23.2417 31.3472C23.2823 32.3372 23.324 33.3539 23.3171 34.3999ZM30.6809 36H22.5011C22.2843 36 22.0767 35.912 21.926 35.7561C21.7752 35.6001 21.6943 35.3897 21.7016 35.1731C21.7445 33.8932 21.6929 32.6323 21.6431 31.4127C21.4481 26.654 21.2641 22.1592 26.9569 19.06C28.8881 18.0049 29.7035 16.6884 30.5669 15.2946C30.908 14.7438 31.2608 14.1744 31.6821 13.6321C32.1644 13.0046 32.9328 12.6412 33.8051 12.6097C33.8029 12.3945 33.8008 12.19 33.7988 11.9941C33.7829 10.5044 33.7725 9.5201 33.8433 8.08104C33.9165 6.57917 35.2643 5.14583 36.6711 5.07437C37.5072 5.03357 38.4857 5.52383 38.7144 7.0329C38.7676 7.36863 38.8393 7.79063 38.9212 8.27237C39.4612 11.4516 40.3651 16.7725 39.8433 19.5188C39.1532 23.2131 36.9657 25.5429 34.8501 27.7963C33.6816 29.0408 32.4749 30.3261 31.4809 31.8645V35.2C31.4809 35.6417 31.1228 36 30.6809 36Z" fill="#353F50"/>
</g>
<defs>
<clipPath id="clip0_1300_23726">
<rect width="40" height="40" fill="white"/>
</clipPath>
</defs>
</svg>
