<svg width="40" height="40" viewBox="0 0 40 40" fill="none" xmlns="http://www.w3.org/2000/svg">
<rect width="40" height="40" fill="white"/>
<path d="M20 25C22.7614 25 25 22.7614 25 20C25 17.2386 22.7614 15 20 15C17.2386 15 15 17.2386 15 20C15 22.7614 17.2386 25 20 25Z" stroke="#353F50" stroke-width="2" stroke-linecap="round" stroke-linejoin="round"/>
<path d="M12.0451 27.9549C10.9993 26.9109 10.1696 25.6709 9.60356 24.3059C9.03747 22.9409 8.74609 21.4777 8.74609 20C8.74609 18.5223 9.03747 17.059 9.60356 15.694C10.1696 14.329 10.9993 13.0891 12.0451 12.045" stroke="#353F50" stroke-width="2" stroke-linecap="round" stroke-linejoin="round"/>
<path d="M27.9551 12.045C29.0009 13.0891 29.8306 14.329 30.3966 15.694C30.9627 17.059 31.2541 18.5223 31.2541 20C31.2541 21.4777 30.9627 22.9409 30.3966 24.3059C29.8306 25.6709 29.0009 26.9109 27.9551 27.9549" stroke="#353F50" stroke-width="2" stroke-linecap="round" stroke-linejoin="round"/>
<path d="M7.62548 32.3743C5.99867 30.7503 4.70806 28.8215 3.82748 26.6981C2.94691 24.5748 2.49365 22.2987 2.49365 20C2.49365 17.7013 2.94691 15.4252 3.82748 13.3018C4.70806 11.1785 5.99867 9.24964 7.62548 7.62561" stroke="#353F50" stroke-width="2" stroke-linecap="round" stroke-linejoin="round"/>
<path d="M32.3745 7.62561C34.0013 9.24964 35.2919 11.1785 36.1725 13.3018C37.0531 15.4252 37.5063 17.7013 37.5063 20C37.5063 22.2987 37.0531 24.5748 36.1725 26.6981C35.2919 28.8215 34.0013 30.7503 32.3745 32.3743" stroke="#353F50" stroke-width="2" stroke-linecap="round" stroke-linejoin="round"/>
</svg>
