<svg width="40" height="40" viewBox="0 0 40 40" fill="none" xmlns="http://www.w3.org/2000/svg">
<rect width="40" height="40" fill="white"/>
<path d="M35.2275 20H30.2275C29.5644 20 28.9285 20.2634 28.4597 20.7322C27.9909 21.2011 27.7275 21.837 27.7275 22.5V28.75C27.7275 29.4131 27.9909 30.0489 28.4597 30.5178C28.9285 30.9866 29.5644 31.25 30.2275 31.25H32.7275C33.3905 31.25 34.0264 30.9866 34.4952 30.5178C34.9641 30.0489 35.2275 29.4131 35.2275 28.75V20ZM35.2275 20C35.2275 18.0206 34.8357 16.0608 34.0748 14.2335C33.3138 12.4062 32.1987 10.7476 30.7938 9.35327C29.3888 7.95894 27.7218 6.85646 25.8888 6.10939C24.0558 5.36232 22.0931 4.98542 20.1137 5.00043C18.1344 4.98542 16.1717 5.36232 14.3386 6.10939C12.5056 6.85646 10.8386 7.95894 9.43369 9.35327C8.02874 10.7476 6.91366 12.4062 6.15271 14.2335C5.39177 16.0608 5 18.0206 5 20V28.75C5 29.4131 5.26339 30.0489 5.73223 30.5178C6.20107 30.9866 6.83696 31.25 7.5 31.25H10C10.663 31.25 11.2989 30.9866 11.7678 30.5178C12.2366 30.0489 12.5 29.4131 12.5 28.75V22.5C12.5 21.837 12.2366 21.2011 11.7678 20.7322C11.2989 20.2634 10.663 20 10 20H5" stroke="#353F50" stroke-width="2" stroke-linecap="round" stroke-linejoin="round"/>
<path d="M35.2275 28.75V32.5C35.2275 33.8261 34.7007 35.0979 33.763 36.0355C32.8253 36.9732 31.5536 37.5 30.2275 37.5H21.25" stroke="#353F50" stroke-width="2" stroke-linecap="round" stroke-linejoin="round"/>
</svg>
