<svg width="40" height="40" viewBox="0 0 40 40" fill="none" xmlns="http://www.w3.org/2000/svg">
<path d="M7.5 28.75V11.25" stroke="#353F50" stroke-width="2" stroke-linecap="round" stroke-linejoin="round"/>
<path d="M32.5 11.25V28.75" stroke="#353F50" stroke-width="2" stroke-linecap="round" stroke-linejoin="round"/>
<path d="M33.75 6.25H6.25C5.55964 6.25 5 6.80964 5 7.5V10C5 10.6904 5.55964 11.25 6.25 11.25H33.75C34.4404 11.25 35 10.6904 35 10V7.5C35 6.80964 34.4404 6.25 33.75 6.25Z" stroke="#353F50" stroke-width="2" stroke-linecap="round" stroke-linejoin="round"/>
<path d="M20 28.75V33.75" stroke="#353F50" stroke-width="2" stroke-linecap="round" stroke-linejoin="round"/>
<path d="M20 38.75C21.3807 38.75 22.5 37.6307 22.5 36.25C22.5 34.8693 21.3807 33.75 20 33.75C18.6193 33.75 17.5 34.8693 17.5 36.25C17.5 37.6307 18.6193 38.75 20 38.75Z" stroke="#353F50" stroke-width="2" stroke-linecap="round" stroke-linejoin="round"/>
<path d="M5 28.75H35" stroke="#353F50" stroke-width="2" stroke-linecap="round" stroke-linejoin="round"/>
</svg>
