<svg width="30" height="66" viewBox="0 0 30 66" fill="none" xmlns="http://www.w3.org/2000/svg">
<path d="M17.4531 46.0781V45.9805L22.6484 40.6289C26.1836 36.9375 27.1992 34.4961 27.1992 31.3906C27.1992 26.2734 23.0586 23.2266 18.4688 23.2266C13.8789 23.2266 10.9688 25.5117 9.36719 28.4219L13.2734 31.2148C14.4844 29.1836 16.1055 28.2461 18.0586 28.2461C20.1875 28.2461 21.7109 29.8477 21.7109 31.9766C21.7109 34.1836 20.2461 36.0781 18.0391 38.4219L9.48438 47.4453L9.54297 51.0195H27.4922V46.0781H17.4531Z" fill="#FBE9E9"/>
<path d="M9.45312 40.0781V39.9805L14.6484 34.6289C18.1836 30.9375 19.1992 28.4961 19.1992 25.3906C19.1992 20.2734 15.0586 17.2266 10.4688 17.2266C5.87891 17.2266 2.96875 19.5117 1.36719 22.4219L5.27344 25.2148C6.48438 23.1836 8.10547 22.2461 10.0586 22.2461C12.1875 22.2461 13.7109 23.8477 13.7109 25.9766C13.7109 28.1836 12.2461 30.0781 10.0391 32.4219L1.48438 41.4453L1.54297 45.0195H19.4922V40.0781H9.45312Z" fill="#EF8781"/>
</svg>
