<svg width="30" height="66" viewBox="0 0 30 66" fill="none" xmlns="http://www.w3.org/2000/svg">
<path d="M23.5859 36.8203V36.7227C25.793 35.4336 27.1211 33.207 27.1211 30.5508C27.1211 25.8633 23.2148 23.2266 18.3125 23.2266C14.2695 23.2266 11.1055 25.2773 9.85547 28.1094L14.1914 30.4336C14.9922 29.0273 16.1641 28.1289 18.1953 28.1289C20.2266 28.1289 21.8281 29.4766 21.8281 31.4688C21.8281 33.2461 20.7344 34.7109 18.2734 34.7109H15.8516V39.125H17.8242C20.8516 39.125 22.3555 40.8047 22.3555 42.7969C22.3555 45.082 20.4805 46.4492 18.293 46.4492C15.8125 46.4492 14.2891 45.2969 13.5469 43.3438L8.82031 45.3164C10.168 48.7734 13.7812 51.3516 18.6641 51.3516C23.9961 51.3516 27.9414 48.2852 27.9414 43.5586C27.9414 40.3555 26.2422 38.0508 23.6055 36.8398L23.5859 36.8203Z" fill="#FBE9E9"/>
<path d="M15.5859 30.8203V30.7227C17.793 29.4336 19.1211 27.207 19.1211 24.5508C19.1211 19.8633 15.2148 17.2266 10.3125 17.2266C6.26953 17.2266 3.10547 19.2773 1.85547 22.1094L6.19141 24.4336C6.99219 23.0273 8.16406 22.1289 10.1953 22.1289C12.2266 22.1289 13.8281 23.4766 13.8281 25.4688C13.8281 27.2461 12.7344 28.7109 10.2734 28.7109H7.85156V33.125H9.82422C12.8516 33.125 14.3555 34.8047 14.3555 36.7969C14.3555 39.082 12.4805 40.4492 10.293 40.4492C7.8125 40.4492 6.28906 39.2969 5.54688 37.3438L0.820312 39.3164C2.16797 42.7734 5.78125 45.3516 10.6641 45.3516C15.9961 45.3516 19.9414 42.2852 19.9414 37.5586C19.9414 34.3555 18.2422 32.0508 15.6055 30.8398L15.5859 30.8203Z" fill="#EF8781"/>
</svg>
