<svg width="40" height="40" viewBox="0 0 40 40" fill="none" xmlns="http://www.w3.org/2000/svg">
<path d="M3.88884 15.0666L5.5555 14.0888V17.7777H34.4444V14.1222L36.0888 15.0666C36.3428 15.1994 36.6382 15.229 36.9134 15.1492C37.1887 15.0693 37.4224 14.8862 37.5658 14.6381C37.7093 14.39 37.7513 14.0961 37.6831 13.8177C37.6149 13.5394 37.4418 13.2981 37.2 13.1444L20 3.24438L2.77772 13.1444C2.64494 13.2138 2.52758 13.3094 2.4327 13.4254C2.33783 13.5414 2.26739 13.6754 2.22564 13.8193C2.18389 13.9633 2.17168 14.1141 2.18975 14.2629C2.20782 14.4117 2.25579 14.5552 2.33079 14.685C2.40578 14.8147 2.50624 14.9279 2.62613 15.0178C2.74602 15.1077 2.88285 15.1725 3.02841 15.2081C3.17396 15.2438 3.32522 15.2496 3.47308 15.2253C3.62095 15.201 3.76237 15.147 3.88884 15.0666ZM19.8333 7.89994C19.9684 7.82192 20.1217 7.78085 20.2777 7.78085C20.4338 7.78085 20.587 7.82192 20.7222 7.89994L28.1888 12.2222H24.6111L20.2777 9.73327L15.9444 12.2222H12.3777L19.8333 7.89994Z" fill="#7BC6E4"/>
<path d="M36.5004 30H35.556V29.0555C35.556 28.7166 35.4214 28.3916 35.1817 28.152C34.9421 27.9124 34.6171 27.7778 34.2782 27.7778H31.1115V19.5889H26.6671V27.7778H22.2227V19.5889H17.7782V27.7778H13.3338V19.5889H8.88932V27.7778H5.72266C5.38377 27.7778 5.05876 27.9124 4.81913 28.152C4.5795 28.3916 4.44488 28.7166 4.44488 29.0555V30H3.50043C3.16155 30 2.83654 30.1346 2.59691 30.3742C2.35728 30.6139 2.22266 30.9389 2.22266 31.2778V34.4444H37.7782V31.2778C37.7782 30.9389 37.6436 30.6139 37.404 30.3742C37.1643 30.1346 36.8393 30 36.5004 30Z" fill="#479FC8"/>
</svg>
