<svg width="46" height="28" viewBox="0 0 46 28" fill="none" xmlns="http://www.w3.org/2000/svg">
<path d="M23.0017 21.4999C27.1437 21.4999 30.5015 18.1421 30.5015 14.0001C30.5015 9.85812 27.1437 6.50037 23.0017 6.50037C18.8597 6.50037 15.502 9.85812 15.502 14.0001C15.502 18.1421 18.8597 21.4999 23.0017 21.4999Z" stroke="#7BC6E4" stroke-width="3" stroke-linecap="round" stroke-linejoin="round"/>
<path d="M44.0017 9.49976C42.0127 9.49976 40.1051 8.70961 38.6986 7.30313C37.2921 5.89665 36.502 3.98906 36.502 2" stroke="#7BC6E4" stroke-width="3" stroke-linecap="round" stroke-linejoin="round"/>
<path d="M2 9.50013C2.98488 9.50013 3.96012 9.30614 4.87003 8.92924C5.77995 8.55235 6.60672 7.99992 7.30313 7.3035C7.99955 6.60708 8.55198 5.78031 8.92888 4.8704C9.30578 3.96049 9.49976 2.98525 9.49976 2.00037" stroke="#7BC6E4" stroke-width="3" stroke-linecap="round" stroke-linejoin="round"/>
<path d="M44.0017 18.4996C42.0127 18.4996 40.1051 19.2897 38.6986 20.6962C37.2921 22.1027 36.502 24.0103 36.502 25.9993" stroke="#7BC6E4" stroke-width="3" stroke-linecap="round" stroke-linejoin="round"/>
<path d="M2 18.4996C2.98488 18.4996 3.96012 18.6936 4.87003 19.0705C5.77995 19.4474 6.60672 19.9998 7.30313 20.6962C7.99955 21.3926 8.55198 22.2194 8.92888 23.1293C9.30578 24.0392 9.49976 25.0145 9.49976 25.9993" stroke="#7BC6E4" stroke-width="3" stroke-linecap="round" stroke-linejoin="round"/>
<path d="M3.50129 26L42.5 26C43.3284 26 44 25.3284 44 24.5V3.50072C44 2.67231 43.3284 2.00076 42.5 2.00076L3.50129 2.00076C2.67288 2.00076 2.00133 2.67231 2.00133 3.50072V24.5C2.00133 25.3284 2.67288 26 3.50129 26Z" stroke="#479FC8" stroke-width="3" stroke-linejoin="round"/>
</svg>
