<svg width="145" height="146" viewBox="0 0 145 146" fill="none" xmlns="http://www.w3.org/2000/svg">
<path fill-rule="evenodd" clip-rule="evenodd" d="M2.38259 9.81212C1.15991 9.8544 0.134454 8.89749 0.0921758 7.6748C0.0498979 6.45212 1.00681 5.42666 2.22949 5.38439C3.45218 5.34211 4.47763 6.29902 4.51991 7.5217C4.56219 8.74439 3.60528 9.76984 2.38259 9.81212ZM17.4369 9.29158C16.2142 9.33385 15.1887 8.37694 15.1465 7.15426C15.1042 5.93157 16.0611 4.90612 17.2838 4.86384C18.5065 4.82156 19.5319 5.77847 19.5742 7.00116C19.6165 8.22384 18.6596 9.2493 17.4369 9.29158ZM32.4912 8.77103C31.2685 8.81331 30.243 7.8564 30.2008 6.63371C30.1585 5.41103 31.1154 4.38557 32.3381 4.3433C33.5608 4.30102 34.5862 5.25793 34.6285 6.48061C34.6708 7.7033 33.7139 8.72875 32.4912 8.77103ZM47.5455 8.25048C46.3228 8.29276 45.2973 7.33585 45.2551 6.11317C45.2128 4.89048 46.1697 3.86503 47.3924 3.82275C48.6151 3.78047 49.6405 4.73738 49.6828 5.96007C49.7251 7.18275 48.7682 8.20821 47.5455 8.25048ZM62.5998 7.72994C61.3771 7.77222 60.3516 6.81531 60.3094 5.59262C60.2671 4.36994 61.224 3.34448 62.4467 3.30221C63.6694 3.25993 64.6948 4.21684 64.7371 5.43952C64.7794 6.66221 63.8225 7.68766 62.5998 7.72994ZM77.6541 7.20939C76.4314 7.25167 75.4059 6.29476 75.3636 5.07208C75.3214 3.84939 76.2783 2.82394 77.501 2.78166C78.7237 2.73938 79.7491 3.69629 79.7914 4.91898C79.8337 6.14166 78.8768 7.16712 77.6541 7.20939ZM92.7084 6.68885C91.4857 6.73113 90.4602 5.77422 90.4179 4.55153C90.3757 3.32885 91.3326 2.30339 92.5553 2.26112C93.7779 2.21884 94.8034 3.17575 94.8457 4.39843C94.888 5.62112 93.931 6.64657 92.7084 6.68885ZM107.763 6.1683C106.54 6.21058 105.515 5.25367 105.472 4.03099C105.43 2.8083 106.387 1.78285 107.61 1.74057C108.832 1.69829 109.858 2.6552 109.9 3.87789C109.942 5.10057 108.985 6.12603 107.763 6.1683ZM122.817 5.64776C121.594 5.69004 120.569 4.73313 120.527 3.51044C120.484 2.28776 121.441 1.2623 122.664 1.22003C123.887 1.17775 124.912 2.13466 124.954 3.35734C124.997 4.58003 124.04 5.60548 122.817 5.64776ZM137.871 5.12721C136.649 5.16949 135.623 4.21258 135.581 2.9899C135.539 1.76721 136.495 0.741758 137.718 0.69948C138.941 0.657202 139.966 1.61411 140.009 2.8368C140.051 4.05948 139.094 5.08494 137.871 5.12721ZM2.90314 24.8664C1.68045 24.9087 0.654999 23.9518 0.612721 22.7291C0.570443 21.5064 1.52735 20.481 2.75004 20.4387C3.97272 20.3964 4.99818 21.3533 5.04045 22.576C5.08273 23.7987 4.12582 24.8241 2.90314 24.8664ZM17.9574 24.3459C16.7347 24.3881 15.7093 23.4312 15.667 22.2086C15.6247 20.9859 16.5816 19.9604 17.8043 19.9181C19.027 19.8759 20.0525 20.8328 20.0947 22.0555C20.137 23.2781 19.1801 24.3036 17.9574 24.3459ZM33.0117 23.8253C31.789 23.8676 30.7636 22.9107 30.7213 21.688C30.679 20.4653 31.6359 19.4399 32.8586 19.3976C34.0813 19.3553 35.1068 20.3122 35.149 21.5349C35.1913 22.7576 34.2344 23.783 33.0117 23.8253ZM48.066 23.3048C46.8433 23.3471 45.8179 22.3901 45.7756 21.1675C45.7333 19.9448 46.6902 18.9193 47.9129 18.877C49.1356 18.8348 50.1611 19.7917 50.2033 21.0144C50.2456 22.237 49.2887 23.2625 48.066 23.3048ZM63.1203 22.7842C61.8976 22.8265 60.8722 21.8696 60.8299 20.6469C60.7876 19.4242 61.7445 18.3988 62.9672 18.3565C64.1899 18.3142 65.2154 19.2711 65.2576 20.4938C65.2999 21.7165 64.343 22.742 63.1203 22.7842ZM78.1746 22.2637C76.9519 22.306 75.9265 21.3491 75.8842 20.1264C75.8419 18.9037 76.7988 17.8782 78.0215 17.836C79.2442 17.7937 80.2697 18.7506 80.3119 19.9733C80.3542 21.196 79.3973 22.2214 78.1746 22.2637ZM93.2289 21.7431C92.0062 21.7854 90.9808 20.8285 90.9385 19.6058C90.8962 18.3831 91.8531 17.3577 93.0758 17.3154C94.2985 17.2731 95.3239 18.23 95.3662 19.4527C95.4085 20.6754 94.4516 21.7009 93.2289 21.7431ZM108.283 21.2226C107.061 21.2649 106.035 20.308 105.993 19.0853C105.951 17.8626 106.907 16.8371 108.13 16.7949C109.353 16.7526 110.378 17.7095 110.421 18.9322C110.463 20.1549 109.506 21.1803 108.283 21.2226ZM123.337 20.7021C122.115 20.7443 121.089 19.7874 121.047 18.5647C121.005 17.3421 121.962 16.3166 123.184 16.2743C124.407 16.232 125.433 17.1889 125.475 18.4116C125.517 19.6343 124.56 20.6598 123.337 20.7021ZM138.392 20.1815C137.169 20.2238 136.144 19.2669 136.101 18.0442C136.059 16.8215 137.016 15.7961 138.239 15.7538C139.461 15.7115 140.487 16.6684 140.529 17.8911C140.571 19.1138 139.614 20.1392 138.392 20.1815ZM3.42368 39.9207C2.201 39.963 1.17554 39.0061 1.13327 37.7834C1.09099 36.5607 2.0479 35.5353 3.27058 35.493C4.49327 35.4507 5.51872 36.4076 5.561 37.6303C5.60328 38.853 4.64637 39.8784 3.42368 39.9207ZM18.478 39.4002C17.2553 39.4424 16.2298 38.4855 16.1876 37.2628C16.1453 36.0402 17.1022 35.0147 18.3249 34.9724C19.5476 34.9302 20.573 35.8871 20.6153 37.1097C20.6576 38.3324 19.7007 39.3579 18.478 39.4002ZM33.5323 38.8796C32.3096 38.9219 31.2841 37.965 31.2419 36.7423C31.1996 35.5196 32.1565 34.4942 33.3792 34.4519C34.6019 34.4096 35.6273 35.3665 35.6696 36.5892C35.7119 37.8119 34.755 38.8373 33.5323 38.8796ZM48.5866 38.3591C47.3639 38.4013 46.3384 37.4444 46.2961 36.2218C46.2539 34.9991 47.2108 33.9736 48.4335 33.9313C49.6561 33.8891 50.6816 34.846 50.7239 36.0687C50.7662 37.2913 49.8093 38.3168 48.5866 38.3591ZM63.6409 37.8385C62.4182 37.8808 61.3927 36.9239 61.3504 35.7012C61.3082 34.4785 62.2651 33.4531 63.4878 33.4108C64.7104 33.3685 65.7359 34.3254 65.7782 35.5481C65.8205 36.7708 64.8635 37.7962 63.6409 37.8385ZM78.6952 37.318C77.4725 37.3603 76.447 36.4034 76.4047 35.1807C76.3625 33.958 77.3194 32.9325 78.5421 32.8902C79.7647 32.848 80.7902 33.8049 80.8325 35.0276C80.8748 36.2503 79.9178 37.2757 78.6952 37.318ZM93.7495 36.7974C92.5268 36.8397 91.5013 35.8828 91.459 34.6601C91.4168 33.4374 92.3737 32.412 93.5963 32.3697C94.819 32.3274 95.8445 33.2843 95.8868 34.507C95.929 35.7297 94.9721 36.7552 93.7495 36.7974ZM108.804 36.2769C107.581 36.3192 106.556 35.3623 106.513 34.1396C106.471 32.9169 107.428 31.8914 108.651 31.8492C109.873 31.8069 110.899 32.7638 110.941 33.9865C110.983 35.2092 110.026 36.2346 108.804 36.2769ZM123.858 35.7563C122.635 35.7986 121.61 34.8417 121.568 33.619C121.525 32.3963 122.482 31.3709 123.705 31.3286C124.928 31.2863 125.953 32.2432 125.995 33.4659C126.038 34.6886 125.081 35.7141 123.858 35.7563ZM138.912 35.2358C137.69 35.2781 136.664 34.3212 136.622 33.0985C136.58 31.8758 137.537 30.8503 138.759 30.8081C139.982 30.7658 141.007 31.7227 141.05 32.9454C141.092 34.1681 140.135 35.1935 138.912 35.2358ZM3.94423 54.975C2.72154 55.0173 1.69609 54.0604 1.65381 52.8377C1.61153 51.615 2.56844 50.5895 3.79113 50.5473C5.01381 50.505 6.03927 51.4619 6.08154 52.6846C6.12382 53.9073 5.16691 54.9327 3.94423 54.975ZM18.9985 54.4545C17.7758 54.4967 16.7504 53.5398 16.7081 52.3171C16.6658 51.0945 17.6227 50.069 18.8454 50.0267C20.0681 49.9844 21.0936 50.9414 21.1358 52.164C21.1781 53.3867 20.2212 54.4122 18.9985 54.4545ZM34.0528 53.9339C32.8301 53.9762 31.8047 53.0193 31.7624 51.7966C31.7201 50.5739 32.677 49.5485 33.8997 49.5062C35.1224 49.4639 36.1479 50.4208 36.1901 51.6435C36.2324 52.8662 35.2755 53.8916 34.0528 53.9339ZM49.1071 53.4134C47.8844 53.4556 46.859 52.4987 46.8167 51.2761C46.7744 50.0534 47.7313 49.0279 48.954 48.9856C50.1767 48.9434 51.2021 49.9003 51.2444 51.1229C51.2867 52.3456 50.3298 53.3711 49.1071 53.4134ZM64.1614 52.8928C62.9387 52.9351 61.9133 51.9782 61.871 50.7555C61.8287 49.5328 62.7856 48.5074 64.0083 48.4651C65.231 48.4228 66.2564 49.3797 66.2987 50.6024C66.341 51.8251 65.3841 52.8505 64.1614 52.8928ZM79.2157 52.3723C77.993 52.4146 76.9676 51.4576 76.9253 50.235C76.883 49.0123 77.8399 47.9868 79.0626 47.9445C80.2853 47.9023 81.3107 48.8592 81.353 50.0819C81.3953 51.3045 80.4384 52.33 79.2157 52.3723ZM94.27 51.8517C93.0473 51.894 92.0219 50.9371 91.9796 49.7144C91.9373 48.4917 92.8942 47.4663 94.1169 47.424C95.3396 47.3817 96.365 48.3386 96.4073 49.5613C96.4496 50.784 95.4927 51.8095 94.27 51.8517ZM109.324 51.3312C108.102 51.3735 107.076 50.4166 107.034 49.1939C106.992 47.9712 107.949 46.9457 109.171 46.9035C110.394 46.8612 111.419 47.8181 111.462 49.0408C111.504 50.2635 110.547 51.2889 109.324 51.3312ZM124.379 50.8106C123.156 50.8529 122.13 49.896 122.088 48.6733C122.046 47.4506 123.003 46.4252 124.225 46.3829C125.448 46.3406 126.474 47.2975 126.516 48.5202C126.558 49.7429 125.601 50.7684 124.379 50.8106ZM139.433 50.2901C138.21 50.3324 137.185 49.3755 137.142 48.1528C137.1 46.9301 138.057 45.9046 139.28 45.8624C140.502 45.8201 141.528 46.777 141.57 47.9997C141.612 49.2224 140.656 50.2478 139.433 50.2901ZM4.46477 70.0293C3.24209 70.0716 2.21663 69.1147 2.17436 67.892C2.13208 66.6693 3.08899 65.6438 4.31167 65.6016C5.53436 65.5593 6.55981 66.5162 6.60209 67.7389C6.64437 68.9616 5.68746 69.987 4.46477 70.0293ZM19.5191 69.5088C18.2964 69.551 17.2709 68.5941 17.2287 67.3714C17.1864 66.1488 18.1433 65.1233 19.366 65.081C20.5887 65.0387 21.6141 65.9957 21.6564 67.2183C21.6987 68.441 20.7418 69.4665 19.5191 69.5088ZM34.5734 68.9882C33.3507 69.0305 32.3252 68.0736 32.2829 66.8509C32.2407 65.6282 33.1976 64.6028 34.4203 64.5605C35.6429 64.5182 36.6684 65.4751 36.7107 66.6978C36.753 67.9205 35.796 68.9459 34.5734 68.9882ZM49.6277 68.4677C48.405 68.5099 47.3795 67.553 47.3372 66.3303C47.295 65.1077 48.2519 64.0822 49.4746 64.0399C50.6972 63.9977 51.7227 64.9546 51.765 66.1772C51.8073 67.3999 50.8503 68.4254 49.6277 68.4677ZM64.682 67.9471C63.4593 67.9894 62.4338 67.0325 62.3915 65.8098C62.3493 64.5871 63.3062 63.5617 64.5289 63.5194C65.7515 63.4771 66.777 64.434 66.8193 65.6567C66.8615 66.8794 65.9046 67.9048 64.682 67.9471ZM79.7362 67.4266C78.5136 67.4689 77.4881 66.5119 77.4458 65.2893C77.4036 64.0666 78.3605 63.0411 79.5831 62.9988C80.8058 62.9566 81.8313 63.9135 81.8736 65.1362C81.9158 66.3588 80.9589 67.3843 79.7362 67.4266ZM94.7905 66.906C93.5679 66.9483 92.5424 65.9914 92.5001 64.7687C92.4578 63.546 93.4148 62.5206 94.6374 62.4783C95.8601 62.436 96.8856 63.3929 96.9279 64.6156C96.9701 65.8383 96.0132 66.8638 94.7905 66.906ZM109.845 66.3855C108.622 66.4278 107.597 65.4709 107.554 64.2482C107.512 63.0255 108.469 62 109.692 61.9577C110.914 61.9155 111.94 62.8724 111.982 64.0951C112.024 65.3177 111.068 66.3432 109.845 66.3855ZM124.899 65.8649C123.676 65.9072 122.651 64.9503 122.609 63.7276C122.566 62.5049 123.523 61.4795 124.746 61.4372C125.969 61.3949 126.994 62.3518 127.036 63.5745C127.079 64.7972 126.122 65.8227 124.899 65.8649ZM139.953 65.3444C138.731 65.3867 137.705 64.4298 137.663 63.2071C137.621 61.9844 138.578 60.9589 139.8 60.9167C141.023 60.8744 142.048 61.8313 142.091 63.054C142.133 64.2767 141.176 65.3021 139.953 65.3444ZM4.98532 85.0836C3.76263 85.1259 2.73718 84.169 2.6949 82.9463C2.65262 81.7236 3.60953 80.6981 4.83222 80.6559C6.0549 80.6136 7.08036 81.5705 7.12264 82.7932C7.16491 84.0159 6.208 85.0413 4.98532 85.0836ZM20.0396 84.5631C18.8169 84.6053 17.7915 83.6484 17.7492 82.4257C17.7069 81.203 18.6638 80.1776 19.8865 80.1353C21.1092 80.093 22.1347 81.0499 22.1769 82.2726C22.2192 83.4953 21.2623 84.5208 20.0396 84.5631ZM35.0939 84.0425C33.8712 84.0848 32.8458 83.1279 32.8035 81.9052C32.7612 80.6825 33.7181 79.657 34.9408 79.6148C36.1635 79.5725 37.1889 80.5294 37.2312 81.7521C37.2735 82.9748 36.3166 84.0002 35.0939 84.0425ZM50.1482 83.522C48.9255 83.5642 47.9001 82.6073 47.8578 81.3846C47.8155 80.162 48.7724 79.1365 49.9951 79.0942C51.2178 79.0519 52.2432 80.0089 52.2855 81.2315C52.3278 82.4542 51.3709 83.4797 50.1482 83.522ZM65.2025 83.0014C63.9798 83.0437 62.9544 82.0868 62.9121 80.8641C62.8698 79.6414 63.8267 78.616 65.0494 78.5737C66.2721 78.5314 67.2975 79.4883 67.3398 80.711C67.3821 81.9337 66.4252 82.9591 65.2025 83.0014ZM80.2568 82.4809C79.0341 82.5231 78.0087 81.5662 77.9664 80.3435C77.9241 79.1209 78.881 78.0954 80.1037 78.0531C81.3264 78.0109 82.3518 78.9678 82.3941 80.1904C82.4364 81.4131 81.4795 82.4386 80.2568 82.4809ZM95.3111 81.9603C94.0884 82.0026 93.0629 81.0457 93.0207 79.823C92.9784 78.6003 93.9353 77.5749 95.158 77.5326C96.3807 77.4903 97.4061 78.4472 97.4484 79.6699C97.4907 80.8926 96.5338 81.918 95.3111 81.9603ZM110.365 81.4398C109.143 81.4821 108.117 80.5251 108.075 79.3025C108.033 78.0798 108.99 77.0543 110.212 77.012C111.435 76.9698 112.46 77.9267 112.503 79.1494C112.545 80.372 111.588 81.3975 110.365 81.4398ZM125.42 80.9192C124.197 80.9615 123.172 80.0046 123.129 78.7819C123.087 77.5592 124.044 76.5338 125.267 76.4915C126.489 76.4492 127.515 77.4061 127.557 78.6288C127.599 79.8515 126.642 80.877 125.42 80.9192ZM140.474 80.3987C139.251 80.441 138.226 79.4841 138.184 78.2614C138.141 77.0387 139.098 76.0132 140.321 75.971C141.544 75.9287 142.569 76.8856 142.611 78.1083C142.654 79.331 141.697 80.3564 140.474 80.3987ZM5.50586 100.138C4.28318 100.18 3.25772 99.2233 3.21545 98.0006C3.17317 96.7779 4.13008 95.7524 5.35276 95.7101C6.57545 95.6679 7.6009 96.6248 7.64318 97.8475C7.68546 99.0702 6.72855 100.096 5.50586 100.138ZM20.5602 99.6173C19.3375 99.6596 18.312 98.7027 18.2697 97.48C18.2275 96.2573 19.1844 95.2319 20.4071 95.1896C21.6297 95.1473 22.6552 96.1042 22.6975 97.3269C22.7398 98.5496 21.7828 99.5751 20.5602 99.6173ZM35.6145 99.0968C34.3918 99.1391 33.3663 98.1822 33.324 96.9595C33.2818 95.7368 34.2387 94.7113 35.4614 94.6691C36.684 94.6268 37.7095 95.5837 37.7518 96.8064C37.794 98.0291 36.8371 99.0545 35.6145 99.0968ZM50.6687 98.5762C49.4461 98.6185 48.4206 97.6616 48.3783 96.4389C48.336 95.2162 49.293 94.1908 50.5156 94.1485C51.7383 94.1062 52.7638 95.0631 52.8061 96.2858C52.8483 97.5085 51.8914 98.534 50.6687 98.5762ZM65.723 98.0557C64.5004 98.098 63.4749 97.1411 63.4326 95.9184C63.3903 94.6957 64.3473 93.6702 65.5699 93.628C66.7926 93.5857 67.8181 94.5426 67.8604 95.7653C67.9026 96.988 66.9457 98.0134 65.723 98.0557ZM80.7773 97.5352C79.5547 97.5774 78.5292 96.6205 78.4869 95.3978C78.4446 94.1752 79.4016 93.1497 80.6242 93.1074C81.8469 93.0651 82.8724 94.0221 82.9147 95.2447C82.9569 96.4674 82 97.4929 80.7773 97.5352ZM95.8316 97.0146C94.6089 97.0569 93.5835 96.1 93.5412 94.8773C93.4989 93.6546 94.4558 92.6292 95.6785 92.5869C96.9012 92.5446 97.9267 93.5015 97.9689 94.7242C98.0112 95.9469 97.0543 96.9723 95.8316 97.0146ZM110.886 96.4941C109.663 96.5363 108.638 95.5794 108.596 94.3568C108.553 93.1341 109.51 92.1086 110.733 92.0663C111.956 92.0241 112.981 92.981 113.023 94.2037C113.066 95.4263 112.109 96.4518 110.886 96.4941ZM125.94 95.9735C124.718 96.0158 123.692 95.0589 123.65 93.8362C123.608 92.6135 124.564 91.5881 125.787 91.5458C127.01 91.5035 128.035 92.4604 128.078 93.6831C128.12 94.9058 127.163 95.9312 125.94 95.9735ZM140.995 95.453C139.772 95.4953 138.746 94.5383 138.704 93.3157C138.662 92.093 139.619 91.0675 140.841 91.0252C142.064 90.983 143.09 91.9399 143.132 93.1626C143.174 94.3852 142.217 95.4107 140.995 95.453ZM6.02641 115.192C4.80372 115.234 3.77827 114.278 3.73599 113.055C3.69371 111.832 4.65062 110.807 5.87331 110.764C7.09599 110.722 8.12145 111.679 8.16373 112.902C8.206 114.124 7.24909 115.15 6.02641 115.192ZM21.0807 114.672C19.858 114.714 18.8326 113.757 18.7903 112.534C18.748 111.312 19.7049 110.286 20.9276 110.244C22.1503 110.202 23.1757 111.159 23.218 112.381C23.2603 113.604 22.3034 114.629 21.0807 114.672ZM36.135 114.151C34.9123 114.193 33.8869 113.236 33.8446 112.014C33.8023 110.791 34.7592 109.766 35.9819 109.723C37.2046 109.681 38.23 110.638 38.2723 111.861C38.3146 113.083 37.3577 114.109 36.135 114.151ZM51.1893 113.631C49.9666 113.673 48.9412 112.716 48.8989 111.493C48.8566 110.271 49.8135 109.245 51.0362 109.203C52.2589 109.161 53.2843 110.117 53.3266 111.34C53.3689 112.563 52.412 113.588 51.1893 113.631ZM66.2436 113.11C65.0209 113.152 63.9954 112.195 63.9532 110.973C63.9109 109.75 64.8678 108.725 66.0905 108.682C67.3132 108.64 68.3386 109.597 68.3809 110.82C68.4232 112.042 67.4663 113.068 66.2436 113.11ZM81.2979 112.589C80.0752 112.632 79.0497 111.675 79.0075 110.452C78.9652 109.229 79.9221 108.204 81.1448 108.162C82.3675 108.119 83.3929 109.076 83.4352 110.299C83.4775 111.522 82.5206 112.547 81.2979 112.589ZM96.3522 112.069C95.1295 112.111 94.104 111.154 94.0618 109.932C94.0195 108.709 94.9764 107.683 96.1991 107.641C97.4218 107.599 98.4472 108.556 98.4895 109.778C98.5318 111.001 97.5749 112.027 96.3522 112.069ZM111.406 111.548C110.184 111.591 109.158 110.634 109.116 109.411C109.074 108.188 110.031 107.163 111.253 107.121C112.476 107.078 113.502 108.035 113.544 109.258C113.586 110.481 112.629 111.506 111.406 111.548ZM126.461 111.028C125.238 111.07 124.213 110.113 124.17 108.891C124.128 107.668 125.085 106.642 126.308 106.6C127.53 106.558 128.556 107.515 128.598 108.737C128.64 109.96 127.683 110.986 126.461 111.028ZM141.515 110.507C140.292 110.55 139.267 109.593 139.225 108.37C139.182 107.147 140.139 106.122 141.362 106.08C142.585 106.037 143.61 106.994 143.652 108.217C143.695 109.44 142.738 110.465 141.515 110.507ZM6.54695 130.246C5.32427 130.289 4.29882 129.332 4.25654 128.109C4.21426 126.886 5.17117 125.861 6.39385 125.819C7.61654 125.776 8.64199 126.733 8.68427 127.956C8.72655 129.179 7.76964 130.204 6.54695 130.246ZM21.6012 129.726C20.3786 129.768 19.3531 128.811 19.3108 127.589C19.2686 126.366 20.2255 125.34 21.4481 125.298C22.6708 125.256 23.6963 126.213 23.7386 127.436C23.7808 128.658 22.8239 129.684 21.6012 129.726ZM36.6555 129.205C35.4329 129.248 34.4074 128.291 34.3651 127.068C34.3228 125.845 35.2798 124.82 36.5024 124.778C37.7251 124.735 38.7506 125.692 38.7929 126.915C38.8351 128.138 37.8782 129.163 36.6555 129.205ZM51.7098 128.685C50.4872 128.727 49.4617 127.77 49.4194 126.548C49.3771 125.325 50.3341 124.299 51.5567 124.257C52.7794 124.215 53.8049 125.172 53.8472 126.394C53.8894 127.617 52.9325 128.643 51.7098 128.685ZM66.7641 128.164C65.5414 128.207 64.516 127.25 64.4737 126.027C64.4314 124.804 65.3883 123.779 66.611 123.737C67.8337 123.694 68.8592 124.651 68.9014 125.874C68.9437 127.097 67.9868 128.122 66.7641 128.164ZM81.8184 127.644C80.5957 127.686 79.5703 126.729 79.528 125.506C79.4857 124.284 80.4426 123.258 81.6653 123.216C82.888 123.174 83.9135 124.131 83.9557 125.353C83.998 126.576 83.0411 127.601 81.8184 127.644ZM96.8727 127.123C95.65 127.165 94.6246 126.209 94.5823 124.986C94.54 123.763 95.4969 122.738 96.7196 122.695C97.9423 122.653 98.9678 123.61 99.01 124.833C99.0523 126.055 98.0954 127.081 96.8727 127.123ZM111.927 126.603C110.704 126.645 109.679 125.688 109.637 124.465C109.594 123.243 110.551 122.217 111.774 122.175C112.997 122.133 114.022 123.09 114.064 124.312C114.107 125.535 113.15 126.56 111.927 126.603ZM126.981 126.082C125.759 126.124 124.733 125.167 124.691 123.945C124.649 122.722 125.606 121.697 126.828 121.654C128.051 121.612 129.076 122.569 129.119 123.792C129.161 125.014 128.204 126.04 126.981 126.082ZM142.036 125.562C140.813 125.604 139.787 124.647 139.745 123.424C139.703 122.202 140.66 121.176 141.883 121.134C143.105 121.092 144.131 122.048 144.173 123.271C144.215 124.494 143.258 125.519 142.036 125.562ZM7.0675 145.301C5.84482 145.343 4.81936 144.386 4.77708 143.163C4.7348 141.941 5.69171 140.915 6.9144 140.873C8.13708 140.831 9.16254 141.788 9.20482 143.01C9.24709 144.233 8.29018 145.258 7.0675 145.301ZM22.1218 144.78C20.8991 144.822 19.8737 143.866 19.8314 142.643C19.7891 141.42 20.746 140.395 21.9687 140.352C23.1914 140.31 24.2168 141.267 24.2591 142.49C24.3014 143.712 23.3445 144.738 22.1218 144.78ZM37.1761 144.26C35.9534 144.302 34.9279 143.345 34.8857 142.122C34.8434 140.9 35.8003 139.874 37.023 139.832C38.2457 139.79 39.2711 140.747 39.3134 141.969C39.3557 143.192 38.3988 144.217 37.1761 144.26ZM52.2304 143.739C51.0077 143.781 49.9822 142.824 49.94 141.602C49.8977 140.379 50.8546 139.354 52.0773 139.311C53.3 139.269 54.3254 140.226 54.3677 141.449C54.41 142.671 53.4531 143.697 52.2304 143.739ZM67.2847 143.219C66.062 143.261 65.0365 142.304 64.9943 141.081C64.952 139.859 65.9089 138.833 67.1316 138.791C68.3543 138.749 69.3797 139.705 69.422 140.928C69.4643 142.151 68.5074 143.176 67.2847 143.219ZM82.339 142.698C81.1163 142.74 80.0908 141.783 80.0486 140.561C80.0063 139.338 80.9632 138.313 82.1859 138.27C83.4086 138.228 84.434 139.185 84.4763 140.408C84.5186 141.63 83.5617 142.656 82.339 142.698ZM97.3933 142.177C96.1706 142.22 95.1451 141.263 95.1028 140.04C95.0606 138.817 96.0175 137.792 97.2402 137.75C98.4628 137.707 99.4883 138.664 99.5306 139.887C99.5729 141.11 98.6159 142.135 97.3933 142.177ZM112.448 141.657C111.225 141.699 110.199 140.742 110.157 139.52C110.115 138.297 111.072 137.271 112.294 137.229C113.517 137.187 114.543 138.144 114.585 139.367C114.627 140.589 113.67 141.615 112.448 141.657ZM127.502 141.136C126.279 141.179 125.254 140.222 125.211 138.999C125.169 137.776 126.126 136.751 127.349 136.709C128.571 136.666 129.597 137.623 129.639 138.846C129.681 140.069 128.725 141.094 127.502 141.136ZM142.556 140.616C141.333 140.658 140.308 139.701 140.266 138.479C140.223 137.256 141.18 136.23 142.403 136.188C143.626 136.146 144.651 137.103 144.693 138.325C144.736 139.548 143.779 140.574 142.556 140.616Z" fill="#AEDDF1"/>
</svg>
