<svg width="25" height="24" viewBox="0 0 25 24" fill="none" xmlns="http://www.w3.org/2000/svg">
<path d="M21.5809 0H2.72377C2.04179 0 1.38773 0.270918 0.905498 0.753154C0.423261 1.23539 0.152344 1.88944 0.152344 2.57143L0.152344 21.4286C0.152344 22.1106 0.423261 22.7646 0.905498 23.2468C1.38773 23.7291 2.04179 24 2.72377 24H10.0765V15.8405H6.70145V12H10.0765V9.07286C10.0765 5.74339 12.0586 3.90429 15.0945 3.90429C16.5484 3.90429 18.0688 4.16357 18.0688 4.16357V7.43143H16.3936C14.7431 7.43143 14.2282 8.45571 14.2282 9.50625V12H17.9129L17.3236 15.8405H14.2282V24H21.5809C22.2629 24 22.917 23.7291 23.3992 23.2468C23.8814 22.7646 24.1523 22.1106 24.1523 21.4286V2.57143C24.1523 1.88944 23.8814 1.23539 23.3992 0.753154C22.917 0.270918 22.2629 0 21.5809 0Z" fill="#18425D"/>
</svg>
