<svg width="80" height="80" viewBox="0 0 80 80" fill="none" xmlns="http://www.w3.org/2000/svg">
<rect width="80" height="80" rx="40" fill="#479FC8"/>
<path d="M36.105 48.3333H43.8933M40 25V26.6667M50.6067 29.3933L49.4283 30.5717M55 40H53.3333M26.6667 40H25M30.5717 30.5717L29.3933 29.3933M34.1067 45.8933C32.9414 44.7278 32.148 43.2429 31.8266 41.6265C31.5053 40.01 31.6704 38.3346 32.3012 36.812C32.932 35.2894 34.0001 33.9881 35.3705 33.0725C36.7408 32.1569 38.3519 31.6682 40 31.6682C41.6481 31.6682 43.2592 32.1569 44.6295 33.0725C45.9999 33.9881 47.068 35.2894 47.6988 36.812C48.3296 38.3346 48.4947 40.01 48.1734 41.6265C47.852 43.2429 47.0586 44.7278 45.8933 45.8933L44.98 46.805C44.4578 47.3272 44.0437 47.9472 43.7611 48.6296C43.4786 49.3119 43.3332 50.0432 43.3333 50.7817V51.6667C43.3333 52.5507 42.9821 53.3986 42.357 54.0237C41.7319 54.6488 40.8841 55 40 55C39.1159 55 38.2681 54.6488 37.643 54.0237C37.0179 53.3986 36.6667 52.5507 36.6667 51.6667V50.7817C36.6667 49.29 36.0733 47.8583 35.02 46.805L34.1067 45.8933Z" stroke="white" stroke-width="3" stroke-linecap="round" stroke-linejoin="round"/>
</svg>
