<svg width="247" height="417" viewBox="0 0 247 417" fill="none" xmlns="http://www.w3.org/2000/svg">
<path fill-rule="evenodd" clip-rule="evenodd" d="M6.5981 13.1962C2.95407 13.1962 0 10.2421 0 6.5981C0 2.95407 2.95407 0 6.5981 0C10.2421 0 13.1962 2.95407 13.1962 6.5981C13.1962 10.2421 10.2421 13.1962 6.5981 13.1962ZM51.4652 13.1962C47.8212 13.1962 44.8671 10.2421 44.8671 6.5981C44.8671 2.95407 47.8212 0 51.4652 0C55.1092 0 58.0633 2.95407 58.0633 6.5981C58.0633 10.2421 55.1092 13.1962 51.4652 13.1962ZM96.3323 13.1962C92.6882 13.1962 89.7342 10.2421 89.7342 6.5981C89.7342 2.95407 92.6882 0 96.3323 0C99.9763 0 102.93 2.95407 102.93 6.5981C102.93 10.2421 99.9763 13.1962 96.3323 13.1962ZM141.199 13.1962C137.555 13.1962 134.601 10.2421 134.601 6.5981C134.601 2.95407 137.555 0 141.199 0C144.843 0 147.797 2.95407 147.797 6.5981C147.797 10.2421 144.843 13.1962 141.199 13.1962ZM186.066 13.1962C182.422 13.1962 179.468 10.2421 179.468 6.5981C179.468 2.95407 182.422 0 186.066 0C189.71 0 192.665 2.95407 192.665 6.5981C192.665 10.2421 189.71 13.1962 186.066 13.1962ZM230.934 13.1962C227.29 13.1962 224.335 10.2421 224.335 6.5981C224.335 2.95407 227.29 0 230.934 0C234.578 0 237.532 2.95407 237.532 6.5981C237.532 10.2421 234.578 13.1962 230.934 13.1962ZM275.801 13.1962C272.157 13.1962 269.203 10.2421 269.203 6.5981C269.203 2.95407 272.157 0 275.801 0C279.445 0 282.399 2.95407 282.399 6.5981C282.399 10.2421 279.445 13.1962 275.801 13.1962ZM320.668 13.1962C317.024 13.1962 314.07 10.2421 314.07 6.5981C314.07 2.95407 317.024 0 320.668 0C324.312 0 327.266 2.95407 327.266 6.5981C327.266 10.2421 324.312 13.1962 320.668 13.1962ZM365.535 13.1962C361.891 13.1962 358.937 10.2421 358.937 6.5981C358.937 2.95407 361.891 0 365.535 0C369.179 0 372.133 2.95407 372.133 6.5981C372.133 10.2421 369.179 13.1962 365.535 13.1962ZM410.402 13.1962C406.758 13.1962 403.804 10.2421 403.804 6.5981C403.804 2.95407 406.758 0 410.402 0C414.046 0 417 2.95407 417 6.5981C417 10.2421 414.046 13.1962 410.402 13.1962ZM6.5981 58.0633C2.95407 58.0633 0 55.1092 0 51.4652C0 47.8212 2.95407 44.8671 6.5981 44.8671C10.2421 44.8671 13.1962 47.8212 13.1962 51.4652C13.1962 55.1092 10.2421 58.0633 6.5981 58.0633ZM51.4652 58.0633C47.8212 58.0633 44.8671 55.1092 44.8671 51.4652C44.8671 47.8212 47.8212 44.8671 51.4652 44.8671C55.1092 44.8671 58.0633 47.8212 58.0633 51.4652C58.0633 55.1092 55.1092 58.0633 51.4652 58.0633ZM96.3323 58.0633C92.6882 58.0633 89.7342 55.1092 89.7342 51.4652C89.7342 47.8212 92.6882 44.8671 96.3323 44.8671C99.9763 44.8671 102.93 47.8212 102.93 51.4652C102.93 55.1092 99.9763 58.0633 96.3323 58.0633ZM141.199 58.0633C137.555 58.0633 134.601 55.1092 134.601 51.4652C134.601 47.8212 137.555 44.8671 141.199 44.8671C144.843 44.8671 147.797 47.8212 147.797 51.4652C147.797 55.1092 144.843 58.0633 141.199 58.0633ZM186.066 58.0633C182.422 58.0633 179.468 55.1092 179.468 51.4652C179.468 47.8212 182.422 44.8671 186.066 44.8671C189.71 44.8671 192.665 47.8212 192.665 51.4652C192.665 55.1092 189.71 58.0633 186.066 58.0633ZM230.934 58.0633C227.29 58.0633 224.335 55.1092 224.335 51.4652C224.335 47.8212 227.29 44.8671 230.934 44.8671C234.578 44.8671 237.532 47.8212 237.532 51.4652C237.532 55.1092 234.578 58.0633 230.934 58.0633ZM275.801 58.0633C272.157 58.0633 269.203 55.1092 269.203 51.4652C269.203 47.8212 272.157 44.8671 275.801 44.8671C279.445 44.8671 282.399 47.8212 282.399 51.4652C282.399 55.1092 279.445 58.0633 275.801 58.0633ZM320.668 58.0633C317.024 58.0633 314.07 55.1092 314.07 51.4652C314.07 47.8212 317.024 44.8671 320.668 44.8671C324.312 44.8671 327.266 47.8212 327.266 51.4652C327.266 55.1092 324.312 58.0633 320.668 58.0633ZM365.535 58.0633C361.891 58.0633 358.937 55.1092 358.937 51.4652C358.937 47.8212 361.891 44.8671 365.535 44.8671C369.179 44.8671 372.133 47.8212 372.133 51.4652C372.133 55.1092 369.179 58.0633 365.535 58.0633ZM410.402 58.0633C406.758 58.0633 403.804 55.1092 403.804 51.4652C403.804 47.8212 406.758 44.8671 410.402 44.8671C414.046 44.8671 417 47.8212 417 51.4652C417 55.1092 414.046 58.0633 410.402 58.0633ZM6.5981 102.93C2.95407 102.93 0 99.9763 0 96.3323C0 92.6882 2.95407 89.7342 6.5981 89.7342C10.2421 89.7342 13.1962 92.6882 13.1962 96.3323C13.1962 99.9763 10.2421 102.93 6.5981 102.93ZM51.4652 102.93C47.8212 102.93 44.8671 99.9763 44.8671 96.3323C44.8671 92.6882 47.8212 89.7342 51.4652 89.7342C55.1092 89.7342 58.0633 92.6882 58.0633 96.3323C58.0633 99.9763 55.1092 102.93 51.4652 102.93ZM96.3323 102.93C92.6882 102.93 89.7342 99.9763 89.7342 96.3323C89.7342 92.6882 92.6882 89.7342 96.3323 89.7342C99.9763 89.7342 102.93 92.6882 102.93 96.3323C102.93 99.9763 99.9763 102.93 96.3323 102.93ZM141.199 102.93C137.555 102.93 134.601 99.9763 134.601 96.3323C134.601 92.6882 137.555 89.7342 141.199 89.7342C144.843 89.7342 147.797 92.6882 147.797 96.3323C147.797 99.9763 144.843 102.93 141.199 102.93ZM186.066 102.93C182.422 102.93 179.468 99.9763 179.468 96.3323C179.468 92.6882 182.422 89.7342 186.066 89.7342C189.71 89.7342 192.665 92.6882 192.665 96.3323C192.665 99.9763 189.71 102.93 186.066 102.93ZM230.934 102.93C227.29 102.93 224.335 99.9763 224.335 96.3323C224.335 92.6882 227.29 89.7342 230.934 89.7342C234.578 89.7342 237.532 92.6882 237.532 96.3323C237.532 99.9763 234.578 102.93 230.934 102.93ZM275.801 102.93C272.157 102.93 269.203 99.9763 269.203 96.3323C269.203 92.6882 272.157 89.7342 275.801 89.7342C279.445 89.7342 282.399 92.6882 282.399 96.3323C282.399 99.9763 279.445 102.93 275.801 102.93ZM320.668 102.93C317.024 102.93 314.07 99.9763 314.07 96.3323C314.07 92.6882 317.024 89.7342 320.668 89.7342C324.312 89.7342 327.266 92.6882 327.266 96.3323C327.266 99.9763 324.312 102.93 320.668 102.93ZM365.535 102.93C361.891 102.93 358.937 99.9763 358.937 96.3323C358.937 92.6882 361.891 89.7342 365.535 89.7342C369.179 89.7342 372.133 92.6882 372.133 96.3323C372.133 99.9763 369.179 102.93 365.535 102.93ZM410.402 102.93C406.758 102.93 403.804 99.9763 403.804 96.3323C403.804 92.6882 406.758 89.7342 410.402 89.7342C414.046 89.7342 417 92.6882 417 96.3323C417 99.9763 414.046 102.93 410.402 102.93ZM6.5981 147.797C2.95407 147.797 0 144.843 0 141.199C0 137.555 2.95407 134.601 6.5981 134.601C10.2421 134.601 13.1962 137.555 13.1962 141.199C13.1962 144.843 10.2421 147.797 6.5981 147.797ZM51.4652 147.797C47.8212 147.797 44.8671 144.843 44.8671 141.199C44.8671 137.555 47.8212 134.601 51.4652 134.601C55.1092 134.601 58.0633 137.555 58.0633 141.199C58.0633 144.843 55.1092 147.797 51.4652 147.797ZM96.3323 147.797C92.6882 147.797 89.7342 144.843 89.7342 141.199C89.7342 137.555 92.6882 134.601 96.3323 134.601C99.9763 134.601 102.93 137.555 102.93 141.199C102.93 144.843 99.9763 147.797 96.3323 147.797ZM141.199 147.797C137.555 147.797 134.601 144.843 134.601 141.199C134.601 137.555 137.555 134.601 141.199 134.601C144.843 134.601 147.797 137.555 147.797 141.199C147.797 144.843 144.843 147.797 141.199 147.797ZM186.066 147.797C182.422 147.797 179.468 144.843 179.468 141.199C179.468 137.555 182.422 134.601 186.066 134.601C189.71 134.601 192.665 137.555 192.665 141.199C192.665 144.843 189.71 147.797 186.066 147.797ZM230.934 147.797C227.29 147.797 224.335 144.843 224.335 141.199C224.335 137.555 227.29 134.601 230.934 134.601C234.578 134.601 237.532 137.555 237.532 141.199C237.532 144.843 234.578 147.797 230.934 147.797ZM275.801 147.797C272.157 147.797 269.203 144.843 269.203 141.199C269.203 137.555 272.157 134.601 275.801 134.601C279.445 134.601 282.399 137.555 282.399 141.199C282.399 144.843 279.445 147.797 275.801 147.797ZM320.668 147.797C317.024 147.797 314.07 144.843 314.07 141.199C314.07 137.555 317.024 134.601 320.668 134.601C324.312 134.601 327.266 137.555 327.266 141.199C327.266 144.843 324.312 147.797 320.668 147.797ZM365.535 147.797C361.891 147.797 358.937 144.843 358.937 141.199C358.937 137.555 361.891 134.601 365.535 134.601C369.179 134.601 372.133 137.555 372.133 141.199C372.133 144.843 369.179 147.797 365.535 147.797ZM410.402 147.797C406.758 147.797 403.804 144.843 403.804 141.199C403.804 137.555 406.758 134.601 410.402 134.601C414.046 134.601 417 137.555 417 141.199C417 144.843 414.046 147.797 410.402 147.797ZM6.5981 192.665C2.95407 192.665 0 189.71 0 186.066C0 182.422 2.95407 179.468 6.5981 179.468C10.2421 179.468 13.1962 182.422 13.1962 186.066C13.1962 189.71 10.2421 192.665 6.5981 192.665ZM51.4652 192.665C47.8212 192.665 44.8671 189.71 44.8671 186.066C44.8671 182.422 47.8212 179.468 51.4652 179.468C55.1092 179.468 58.0633 182.422 58.0633 186.066C58.0633 189.71 55.1092 192.665 51.4652 192.665ZM96.3323 192.665C92.6882 192.665 89.7342 189.71 89.7342 186.066C89.7342 182.422 92.6882 179.468 96.3323 179.468C99.9763 179.468 102.93 182.422 102.93 186.066C102.93 189.71 99.9763 192.665 96.3323 192.665ZM141.199 192.665C137.555 192.665 134.601 189.71 134.601 186.066C134.601 182.422 137.555 179.468 141.199 179.468C144.843 179.468 147.797 182.422 147.797 186.066C147.797 189.71 144.843 192.665 141.199 192.665ZM186.066 192.665C182.422 192.665 179.468 189.71 179.468 186.066C179.468 182.422 182.422 179.468 186.066 179.468C189.71 179.468 192.665 182.422 192.665 186.066C192.665 189.71 189.71 192.665 186.066 192.665ZM230.934 192.665C227.29 192.665 224.335 189.71 224.335 186.066C224.335 182.422 227.29 179.468 230.934 179.468C234.578 179.468 237.532 182.422 237.532 186.066C237.532 189.71 234.578 192.665 230.934 192.665ZM275.801 192.665C272.157 192.665 269.203 189.71 269.203 186.066C269.203 182.422 272.157 179.468 275.801 179.468C279.445 179.468 282.399 182.422 282.399 186.066C282.399 189.71 279.445 192.665 275.801 192.665ZM320.668 192.665C317.024 192.665 314.07 189.71 314.07 186.066C314.07 182.422 317.024 179.468 320.668 179.468C324.312 179.468 327.266 182.422 327.266 186.066C327.266 189.71 324.312 192.665 320.668 192.665ZM365.535 192.665C361.891 192.665 358.937 189.71 358.937 186.066C358.937 182.422 361.891 179.468 365.535 179.468C369.179 179.468 372.133 182.422 372.133 186.066C372.133 189.71 369.179 192.665 365.535 192.665ZM410.402 192.665C406.758 192.665 403.804 189.71 403.804 186.066C403.804 182.422 406.758 179.468 410.402 179.468C414.046 179.468 417 182.422 417 186.066C417 189.71 414.046 192.665 410.402 192.665ZM6.5981 237.532C2.95407 237.532 0 234.578 0 230.934C0 227.29 2.95407 224.335 6.5981 224.335C10.2421 224.335 13.1962 227.29 13.1962 230.934C13.1962 234.578 10.2421 237.532 6.5981 237.532ZM51.4652 237.532C47.8212 237.532 44.8671 234.578 44.8671 230.934C44.8671 227.29 47.8212 224.335 51.4652 224.335C55.1092 224.335 58.0633 227.29 58.0633 230.934C58.0633 234.578 55.1092 237.532 51.4652 237.532ZM96.3323 237.532C92.6882 237.532 89.7342 234.578 89.7342 230.934C89.7342 227.29 92.6882 224.335 96.3323 224.335C99.9763 224.335 102.93 227.29 102.93 230.934C102.93 234.578 99.9763 237.532 96.3323 237.532ZM141.199 237.532C137.555 237.532 134.601 234.578 134.601 230.934C134.601 227.29 137.555 224.335 141.199 224.335C144.843 224.335 147.797 227.29 147.797 230.934C147.797 234.578 144.843 237.532 141.199 237.532ZM186.066 237.532C182.422 237.532 179.468 234.578 179.468 230.934C179.468 227.29 182.422 224.335 186.066 224.335C189.71 224.335 192.665 227.29 192.665 230.934C192.665 234.578 189.71 237.532 186.066 237.532ZM230.934 237.532C227.29 237.532 224.335 234.578 224.335 230.934C224.335 227.29 227.29 224.335 230.934 224.335C234.578 224.335 237.532 227.29 237.532 230.934C237.532 234.578 234.578 237.532 230.934 237.532ZM275.801 237.532C272.157 237.532 269.203 234.578 269.203 230.934C269.203 227.29 272.157 224.335 275.801 224.335C279.445 224.335 282.399 227.29 282.399 230.934C282.399 234.578 279.445 237.532 275.801 237.532ZM320.668 237.532C317.024 237.532 314.07 234.578 314.07 230.934C314.07 227.29 317.024 224.335 320.668 224.335C324.312 224.335 327.266 227.29 327.266 230.934C327.266 234.578 324.312 237.532 320.668 237.532ZM365.535 237.532C361.891 237.532 358.937 234.578 358.937 230.934C358.937 227.29 361.891 224.335 365.535 224.335C369.179 224.335 372.133 227.29 372.133 230.934C372.133 234.578 369.179 237.532 365.535 237.532ZM410.402 237.532C406.758 237.532 403.804 234.578 403.804 230.934C403.804 227.29 406.758 224.335 410.402 224.335C414.046 224.335 417 227.29 417 230.934C417 234.578 414.046 237.532 410.402 237.532ZM6.5981 282.399C2.95407 282.399 0 279.445 0 275.801C0 272.157 2.95407 269.203 6.5981 269.203C10.2421 269.203 13.1962 272.157 13.1962 275.801C13.1962 279.445 10.2421 282.399 6.5981 282.399ZM51.4652 282.399C47.8212 282.399 44.8671 279.445 44.8671 275.801C44.8671 272.157 47.8212 269.203 51.4652 269.203C55.1092 269.203 58.0633 272.157 58.0633 275.801C58.0633 279.445 55.1092 282.399 51.4652 282.399ZM96.3323 282.399C92.6882 282.399 89.7342 279.445 89.7342 275.801C89.7342 272.157 92.6882 269.203 96.3323 269.203C99.9763 269.203 102.93 272.157 102.93 275.801C102.93 279.445 99.9763 282.399 96.3323 282.399ZM141.199 282.399C137.555 282.399 134.601 279.445 134.601 275.801C134.601 272.157 137.555 269.203 141.199 269.203C144.843 269.203 147.797 272.157 147.797 275.801C147.797 279.445 144.843 282.399 141.199 282.399ZM186.066 282.399C182.422 282.399 179.468 279.445 179.468 275.801C179.468 272.157 182.422 269.203 186.066 269.203C189.71 269.203 192.665 272.157 192.665 275.801C192.665 279.445 189.71 282.399 186.066 282.399ZM230.934 282.399C227.29 282.399 224.335 279.445 224.335 275.801C224.335 272.157 227.29 269.203 230.934 269.203C234.578 269.203 237.532 272.157 237.532 275.801C237.532 279.445 234.578 282.399 230.934 282.399ZM275.801 282.399C272.157 282.399 269.203 279.445 269.203 275.801C269.203 272.157 272.157 269.203 275.801 269.203C279.445 269.203 282.399 272.157 282.399 275.801C282.399 279.445 279.445 282.399 275.801 282.399ZM320.668 282.399C317.024 282.399 314.07 279.445 314.07 275.801C314.07 272.157 317.024 269.203 320.668 269.203C324.312 269.203 327.266 272.157 327.266 275.801C327.266 279.445 324.312 282.399 320.668 282.399ZM365.535 282.399C361.891 282.399 358.937 279.445 358.937 275.801C358.937 272.157 361.891 269.203 365.535 269.203C369.179 269.203 372.133 272.157 372.133 275.801C372.133 279.445 369.179 282.399 365.535 282.399ZM410.402 282.399C406.758 282.399 403.804 279.445 403.804 275.801C403.804 272.157 406.758 269.203 410.402 269.203C414.046 269.203 417 272.157 417 275.801C417 279.445 414.046 282.399 410.402 282.399ZM6.5981 327.266C2.95407 327.266 0 324.312 0 320.668C0 317.024 2.95407 314.07 6.5981 314.07C10.2421 314.07 13.1962 317.024 13.1962 320.668C13.1962 324.312 10.2421 327.266 6.5981 327.266ZM51.4652 327.266C47.8212 327.266 44.8671 324.312 44.8671 320.668C44.8671 317.024 47.8212 314.07 51.4652 314.07C55.1092 314.07 58.0633 317.024 58.0633 320.668C58.0633 324.312 55.1092 327.266 51.4652 327.266ZM96.3323 327.266C92.6882 327.266 89.7342 324.312 89.7342 320.668C89.7342 317.024 92.6882 314.07 96.3323 314.07C99.9763 314.07 102.93 317.024 102.93 320.668C102.93 324.312 99.9763 327.266 96.3323 327.266ZM141.199 327.266C137.555 327.266 134.601 324.312 134.601 320.668C134.601 317.024 137.555 314.07 141.199 314.07C144.843 314.07 147.797 317.024 147.797 320.668C147.797 324.312 144.843 327.266 141.199 327.266ZM186.066 327.266C182.422 327.266 179.468 324.312 179.468 320.668C179.468 317.024 182.422 314.07 186.066 314.07C189.71 314.07 192.665 317.024 192.665 320.668C192.665 324.312 189.71 327.266 186.066 327.266ZM230.934 327.266C227.29 327.266 224.335 324.312 224.335 320.668C224.335 317.024 227.29 314.07 230.934 314.07C234.578 314.07 237.532 317.024 237.532 320.668C237.532 324.312 234.578 327.266 230.934 327.266ZM275.801 327.266C272.157 327.266 269.203 324.312 269.203 320.668C269.203 317.024 272.157 314.07 275.801 314.07C279.445 314.07 282.399 317.024 282.399 320.668C282.399 324.312 279.445 327.266 275.801 327.266ZM320.668 327.266C317.024 327.266 314.07 324.312 314.07 320.668C314.07 317.024 317.024 314.07 320.668 314.07C324.312 314.07 327.266 317.024 327.266 320.668C327.266 324.312 324.312 327.266 320.668 327.266ZM365.535 327.266C361.891 327.266 358.937 324.312 358.937 320.668C358.937 317.024 361.891 314.07 365.535 314.07C369.179 314.07 372.133 317.024 372.133 320.668C372.133 324.312 369.179 327.266 365.535 327.266ZM410.402 327.266C406.758 327.266 403.804 324.312 403.804 320.668C403.804 317.024 406.758 314.07 410.402 314.07C414.046 314.07 417 317.024 417 320.668C417 324.312 414.046 327.266 410.402 327.266ZM6.5981 372.133C2.95407 372.133 0 369.179 0 365.535C0 361.891 2.95407 358.937 6.5981 358.937C10.2421 358.937 13.1962 361.891 13.1962 365.535C13.1962 369.179 10.2421 372.133 6.5981 372.133ZM51.4652 372.133C47.8212 372.133 44.8671 369.179 44.8671 365.535C44.8671 361.891 47.8212 358.937 51.4652 358.937C55.1092 358.937 58.0633 361.891 58.0633 365.535C58.0633 369.179 55.1092 372.133 51.4652 372.133ZM96.3323 372.133C92.6882 372.133 89.7342 369.179 89.7342 365.535C89.7342 361.891 92.6882 358.937 96.3323 358.937C99.9763 358.937 102.93 361.891 102.93 365.535C102.93 369.179 99.9763 372.133 96.3323 372.133ZM141.199 372.133C137.555 372.133 134.601 369.179 134.601 365.535C134.601 361.891 137.555 358.937 141.199 358.937C144.843 358.937 147.797 361.891 147.797 365.535C147.797 369.179 144.843 372.133 141.199 372.133ZM186.066 372.133C182.422 372.133 179.468 369.179 179.468 365.535C179.468 361.891 182.422 358.937 186.066 358.937C189.71 358.937 192.665 361.891 192.665 365.535C192.665 369.179 189.71 372.133 186.066 372.133ZM230.934 372.133C227.29 372.133 224.335 369.179 224.335 365.535C224.335 361.891 227.29 358.937 230.934 358.937C234.578 358.937 237.532 361.891 237.532 365.535C237.532 369.179 234.578 372.133 230.934 372.133ZM275.801 372.133C272.157 372.133 269.203 369.179 269.203 365.535C269.203 361.891 272.157 358.937 275.801 358.937C279.445 358.937 282.399 361.891 282.399 365.535C282.399 369.179 279.445 372.133 275.801 372.133ZM320.668 372.133C317.024 372.133 314.07 369.179 314.07 365.535C314.07 361.891 317.024 358.937 320.668 358.937C324.312 358.937 327.266 361.891 327.266 365.535C327.266 369.179 324.312 372.133 320.668 372.133ZM365.535 372.133C361.891 372.133 358.937 369.179 358.937 365.535C358.937 361.891 361.891 358.937 365.535 358.937C369.179 358.937 372.133 361.891 372.133 365.535C372.133 369.179 369.179 372.133 365.535 372.133ZM410.402 372.133C406.758 372.133 403.804 369.179 403.804 365.535C403.804 361.891 406.758 358.937 410.402 358.937C414.046 358.937 417 361.891 417 365.535C417 369.179 414.046 372.133 410.402 372.133ZM6.5981 417C2.95407 417 0 414.046 0 410.402C0 406.758 2.95407 403.804 6.5981 403.804C10.2421 403.804 13.1962 406.758 13.1962 410.402C13.1962 414.046 10.2421 417 6.5981 417ZM51.4652 417C47.8212 417 44.8671 414.046 44.8671 410.402C44.8671 406.758 47.8212 403.804 51.4652 403.804C55.1092 403.804 58.0633 406.758 58.0633 410.402C58.0633 414.046 55.1092 417 51.4652 417ZM96.3323 417C92.6882 417 89.7342 414.046 89.7342 410.402C89.7342 406.758 92.6882 403.804 96.3323 403.804C99.9763 403.804 102.93 406.758 102.93 410.402C102.93 414.046 99.9763 417 96.3323 417ZM141.199 417C137.555 417 134.601 414.046 134.601 410.402C134.601 406.758 137.555 403.804 141.199 403.804C144.843 403.804 147.797 406.758 147.797 410.402C147.797 414.046 144.843 417 141.199 417ZM186.066 417C182.422 417 179.468 414.046 179.468 410.402C179.468 406.758 182.422 403.804 186.066 403.804C189.71 403.804 192.665 406.758 192.665 410.402C192.665 414.046 189.71 417 186.066 417ZM230.934 417C227.29 417 224.335 414.046 224.335 410.402C224.335 406.758 227.29 403.804 230.934 403.804C234.578 403.804 237.532 406.758 237.532 410.402C237.532 414.046 234.578 417 230.934 417ZM275.801 417C272.157 417 269.203 414.046 269.203 410.402C269.203 406.758 272.157 403.804 275.801 403.804C279.445 403.804 282.399 406.758 282.399 410.402C282.399 414.046 279.445 417 275.801 417ZM320.668 417C317.024 417 314.07 414.046 314.07 410.402C314.07 406.758 317.024 403.804 320.668 403.804C324.312 403.804 327.266 406.758 327.266 410.402C327.266 414.046 324.312 417 320.668 417ZM365.535 417C361.891 417 358.937 414.046 358.937 410.402C358.937 406.758 361.891 403.804 365.535 403.804C369.179 403.804 372.133 406.758 372.133 410.402C372.133 414.046 369.179 417 365.535 417ZM410.402 417C406.758 417 403.804 414.046 403.804 410.402C403.804 406.758 406.758 403.804 410.402 403.804C414.046 403.804 417 406.758 417 410.402C417 414.046 414.046 417 410.402 417Z" fill="#FBE9E9"/>
</svg>
