<svg width="25" height="24" viewBox="0 0 25 24" fill="none" xmlns="http://www.w3.org/2000/svg">
<path d="M12.8857 7.9983C10.6822 7.9983 8.88397 9.79651 8.88397 12C8.88397 14.2035 10.6822 16.0017 12.8857 16.0017C15.0892 16.0017 16.8874 14.2035 16.8874 12C16.8874 9.79651 15.0892 7.9983 12.8857 7.9983ZM24.8878 12C24.8878 10.3429 24.9028 8.70077 24.8097 7.04665C24.7167 5.12536 24.2784 3.4202 22.8734 2.01525C21.4655 0.607302 19.7633 0.172008 17.842 0.0789456C16.1849 -0.0141173 14.5428 0.000892936 12.8887 0.000892936C11.2316 0.000892936 9.58944 -0.0141173 7.93533 0.0789456C6.01403 0.172008 4.30888 0.610305 2.90393 2.01525C1.49597 3.42321 1.06068 5.12536 0.967618 7.04665C0.874555 8.70377 0.889565 10.3459 0.889565 12C0.889565 13.6541 0.874555 15.2992 0.967618 16.9533C1.06068 18.8746 1.49898 20.5798 2.90393 21.9847C4.31188 23.3927 6.01403 23.828 7.93533 23.9211C9.59245 24.0141 11.2346 23.9991 12.8887 23.9991C14.5458 23.9991 16.1879 24.0141 17.842 23.9211C19.7633 23.828 21.4685 23.3897 22.8734 21.9847C24.2814 20.5768 24.7167 18.8746 24.8097 16.9533C24.9058 15.2992 24.8878 13.6571 24.8878 12ZM12.8857 18.1572C9.47837 18.1572 6.72851 15.4073 6.72851 12C6.72851 8.5927 9.47837 5.84284 12.8857 5.84284C16.293 5.84284 19.0428 8.5927 19.0428 12C19.0428 15.4073 16.293 18.1572 12.8857 18.1572ZM19.295 7.02864C18.4995 7.02864 17.857 6.38621 17.857 5.59067C17.857 4.79513 18.4995 4.1527 19.295 4.1527C20.0905 4.1527 20.733 4.79513 20.733 5.59067C20.7332 5.77957 20.6962 5.96667 20.624 6.14124C20.5518 6.31581 20.4459 6.47442 20.3123 6.608C20.1788 6.74157 20.0201 6.84748 19.8456 6.91967C19.671 6.99185 19.4839 7.02888 19.295 7.02864Z" fill="#00425F"/>
</svg>
