<svg width="64" height="64" viewBox="0 0 64 64" fill="none" xmlns="http://www.w3.org/2000/svg">
<path d="M41.1999 9.5999C41.1999 8.75121 40.8628 7.93728 40.2626 7.33716C39.6625 6.73704 38.8486 6.3999 37.9999 6.3999C37.1512 6.3999 36.3373 6.73704 35.7372 7.33716C35.137 7.93728 34.7999 8.75121 34.7999 9.5999V12.7999C34.7999 13.6486 35.137 14.4625 35.7372 15.0626C36.3373 15.6628 37.1512 15.9999 37.9999 15.9999C38.8486 15.9999 39.6625 15.6628 40.2626 15.0626C40.8628 14.4625 41.1999 13.6486 41.1999 12.7999V9.5999ZM56.1023 18.4223C56.6852 17.8188 57.0077 17.0104 57.0005 16.1714C56.9932 15.3324 56.6566 14.5298 56.0633 13.9365C55.47 13.3432 54.6674 13.0066 53.8284 12.9993C52.9894 12.9921 52.181 13.3146 51.5775 13.8975L49.3151 16.1599C48.7322 16.7634 48.4097 17.5718 48.4169 18.4108C48.4242 19.2498 48.7608 20.0524 49.3541 20.6457C49.9474 21.239 50.75 21.5756 51.589 21.5829C52.428 21.5901 53.2364 21.2676 53.8399 20.6847L56.1023 18.4223ZM63.5999 31.9999C63.5999 32.8486 63.2628 33.6625 62.6626 34.2626C62.0625 34.8628 61.2486 35.1999 60.3999 35.1999H57.1999C56.3512 35.1999 55.5373 34.8628 54.9372 34.2626C54.337 33.6625 53.9999 32.8486 53.9999 31.9999C53.9999 31.1512 54.337 30.3373 54.9372 29.7372C55.5373 29.137 56.3512 28.7999 57.1999 28.7999H60.3999C61.2486 28.7999 62.0625 29.137 62.6626 29.7372C63.2628 30.3373 63.5999 31.1512 63.5999 31.9999ZM22.1599 20.6847C22.4551 20.9903 22.8082 21.2341 23.1986 21.4018C23.589 21.5695 24.0089 21.6578 24.4338 21.6615C24.8587 21.6652 25.2801 21.5842 25.6734 21.4233C26.0666 21.2624 26.4239 21.0248 26.7244 20.7244C27.0248 20.4239 27.2624 20.0666 27.4233 19.6734C27.5842 19.2801 27.6652 18.8587 27.6615 18.4338C27.6578 18.0089 27.5695 17.589 27.4018 17.1986C27.2341 16.8082 26.9903 16.4551 26.6847 16.1599L24.4223 13.8975C23.8188 13.3146 23.0104 12.9921 22.1714 12.9993C21.3324 13.0066 20.5298 13.3432 19.9365 13.9365C19.3432 14.5298 19.0066 15.3324 18.9993 16.1714C18.9921 17.0104 19.3146 17.8188 19.8975 18.4223L22.1599 20.6847ZM21.9999 31.9999C21.9999 32.8486 21.6628 33.6625 21.0626 34.2626C20.4625 34.8628 19.6486 35.1999 18.7999 35.1999H15.5999C14.7512 35.1999 13.9373 34.8628 13.3372 34.2626C12.737 33.6625 12.3999 32.8486 12.3999 31.9999C12.3999 31.1512 12.737 30.3373 13.3372 29.7372C13.9373 29.137 14.7512 28.7999 15.5999 28.7999H18.7999C19.6486 28.7999 20.4625 29.137 21.0626 29.7372C21.6628 30.3373 21.9999 31.1512 21.9999 31.9999ZM31.5999 51.1999V47.9999H44.3999V51.1999C44.3999 52.8973 43.7256 54.5252 42.5254 55.7254C41.3251 56.9256 39.6973 57.5999 37.9999 57.5999C36.3025 57.5999 34.6747 56.9256 33.4744 55.7254C32.2742 54.5252 31.5999 52.8973 31.5999 51.1999ZM44.3999 44.7999C44.4479 43.7119 45.0655 42.7327 45.9263 42.0511C48.0149 40.4039 49.5384 38.147 50.2852 35.594C51.0319 33.041 50.9647 30.3188 50.093 27.8058C49.2213 25.2927 47.5883 23.1136 45.421 21.5715C43.2537 20.0293 40.6599 19.2006 37.9999 19.2006C35.3399 19.2006 32.7461 20.0293 30.5788 21.5715C28.4115 23.1136 26.7785 25.2927 25.9068 27.8058C25.0351 30.3188 24.9679 33.041 25.7146 35.594C26.4614 38.147 27.9849 40.4039 30.0735 42.0511C30.9375 42.7327 31.5519 43.7119 31.5967 44.7999H44.4031H44.3999Z" fill="#479FC8"/>
<path d="M25.768 45.3333H38.2293M32 8V10.6667M48.9707 15.0293L47.0853 16.9147M56 32H53.3333M10.6667 32H8M16.9147 16.9147L15.0293 15.0293M22.5707 41.4293C20.7063 39.5645 19.4368 37.1887 18.9226 34.6024C18.4084 32.0161 18.6727 29.3354 19.6819 26.8992C20.6912 24.4631 22.4002 22.3809 24.5928 20.916C26.7853 19.451 29.3631 18.6692 32 18.6692C34.6369 18.6692 37.2147 19.451 39.4072 20.916C41.5998 22.3809 43.3088 24.4631 44.3181 26.8992C45.3273 29.3354 45.5916 32.0161 45.0774 34.6024C44.5632 37.1887 43.2937 39.5645 41.4293 41.4293L39.968 42.888C39.1326 43.7236 38.4699 44.7156 38.0178 45.8073C37.5658 46.899 37.3332 48.0691 37.3333 49.2507V50.6667C37.3333 52.0812 36.7714 53.4377 35.7712 54.4379C34.771 55.4381 33.4145 56 32 56C30.5855 56 29.229 55.4381 28.2288 54.4379C27.2286 53.4377 26.6667 52.0812 26.6667 50.6667V49.2507C26.6667 46.864 25.7173 44.5733 24.032 42.888L22.5707 41.4293Z" stroke="white" stroke-width="4" stroke-linecap="round" stroke-linejoin="round"/>
</svg>
