<svg width="66" height="192" viewBox="0 0 66 192" fill="none" xmlns="http://www.w3.org/2000/svg">
<path fill-rule="evenodd" clip-rule="evenodd" d="M3.03797 6.07595C1.36015 6.07595 0 4.7158 0 3.03797C0 1.36015 1.36015 0 3.03797 0C4.7158 0 6.07595 1.36015 6.07595 3.03797C6.07595 4.7158 4.7158 6.07595 3.03797 6.07595ZM23.6962 6.07595C22.0184 6.07595 20.6582 4.7158 20.6582 3.03797C20.6582 1.36015 22.0184 0 23.6962 0C25.374 0 26.7342 1.36015 26.7342 3.03797C26.7342 4.7158 25.374 6.07595 23.6962 6.07595ZM44.3544 6.07595C42.6766 6.07595 41.3165 4.7158 41.3165 3.03797C41.3165 1.36015 42.6766 0 44.3544 0C46.0323 0 47.3924 1.36015 47.3924 3.03797C47.3924 4.7158 46.0323 6.07595 44.3544 6.07595ZM65.0127 6.07595C63.3348 6.07595 61.9747 4.7158 61.9747 3.03797C61.9747 1.36015 63.3348 0 65.0127 0C66.6905 0 68.0506 1.36015 68.0506 3.03797C68.0506 4.7158 66.6905 6.07595 65.0127 6.07595ZM85.6709 6.07595C83.9931 6.07595 82.6329 4.7158 82.6329 3.03797C82.6329 1.36015 83.9931 0 85.6709 0C87.3487 0 88.7089 1.36015 88.7089 3.03797C88.7089 4.7158 87.3487 6.07595 85.6709 6.07595ZM106.329 6.07595C104.651 6.07595 103.291 4.7158 103.291 3.03797C103.291 1.36015 104.651 0 106.329 0C108.007 0 109.367 1.36015 109.367 3.03797C109.367 4.7158 108.007 6.07595 106.329 6.07595ZM126.987 6.07595C125.31 6.07595 123.949 4.7158 123.949 3.03797C123.949 1.36015 125.31 0 126.987 0C128.665 0 130.025 1.36015 130.025 3.03797C130.025 4.7158 128.665 6.07595 126.987 6.07595ZM147.646 6.07595C145.968 6.07595 144.608 4.7158 144.608 3.03797C144.608 1.36015 145.968 0 147.646 0C149.323 0 150.684 1.36015 150.684 3.03797C150.684 4.7158 149.323 6.07595 147.646 6.07595ZM168.304 6.07595C166.626 6.07595 165.266 4.7158 165.266 3.03797C165.266 1.36015 166.626 0 168.304 0C169.982 0 171.342 1.36015 171.342 3.03797C171.342 4.7158 169.982 6.07595 168.304 6.07595ZM188.962 6.07595C187.284 6.07595 185.924 4.7158 185.924 3.03797C185.924 1.36015 187.284 0 188.962 0C190.64 0 192 1.36015 192 3.03797C192 4.7158 190.64 6.07595 188.962 6.07595ZM3.03797 26.7342C1.36015 26.7342 0 25.374 0 23.6962C0 22.0184 1.36015 20.6582 3.03797 20.6582C4.7158 20.6582 6.07595 22.0184 6.07595 23.6962C6.07595 25.374 4.7158 26.7342 3.03797 26.7342ZM23.6962 26.7342C22.0184 26.7342 20.6582 25.374 20.6582 23.6962C20.6582 22.0184 22.0184 20.6582 23.6962 20.6582C25.374 20.6582 26.7342 22.0184 26.7342 23.6962C26.7342 25.374 25.374 26.7342 23.6962 26.7342ZM44.3544 26.7342C42.6766 26.7342 41.3165 25.374 41.3165 23.6962C41.3165 22.0184 42.6766 20.6582 44.3544 20.6582C46.0323 20.6582 47.3924 22.0184 47.3924 23.6962C47.3924 25.374 46.0323 26.7342 44.3544 26.7342ZM65.0127 26.7342C63.3348 26.7342 61.9747 25.374 61.9747 23.6962C61.9747 22.0184 63.3348 20.6582 65.0127 20.6582C66.6905 20.6582 68.0506 22.0184 68.0506 23.6962C68.0506 25.374 66.6905 26.7342 65.0127 26.7342ZM85.6709 26.7342C83.9931 26.7342 82.6329 25.374 82.6329 23.6962C82.6329 22.0184 83.9931 20.6582 85.6709 20.6582C87.3487 20.6582 88.7089 22.0184 88.7089 23.6962C88.7089 25.374 87.3487 26.7342 85.6709 26.7342ZM106.329 26.7342C104.651 26.7342 103.291 25.374 103.291 23.6962C103.291 22.0184 104.651 20.6582 106.329 20.6582C108.007 20.6582 109.367 22.0184 109.367 23.6962C109.367 25.374 108.007 26.7342 106.329 26.7342ZM126.987 26.7342C125.31 26.7342 123.949 25.374 123.949 23.6962C123.949 22.0184 125.31 20.6582 126.987 20.6582C128.665 20.6582 130.025 22.0184 130.025 23.6962C130.025 25.374 128.665 26.7342 126.987 26.7342ZM147.646 26.7342C145.968 26.7342 144.608 25.374 144.608 23.6962C144.608 22.0184 145.968 20.6582 147.646 20.6582C149.323 20.6582 150.684 22.0184 150.684 23.6962C150.684 25.374 149.323 26.7342 147.646 26.7342ZM168.304 26.7342C166.626 26.7342 165.266 25.374 165.266 23.6962C165.266 22.0184 166.626 20.6582 168.304 20.6582C169.982 20.6582 171.342 22.0184 171.342 23.6962C171.342 25.374 169.982 26.7342 168.304 26.7342ZM188.962 26.7342C187.284 26.7342 185.924 25.374 185.924 23.6962C185.924 22.0184 187.284 20.6582 188.962 20.6582C190.64 20.6582 192 22.0184 192 23.6962C192 25.374 190.64 26.7342 188.962 26.7342ZM3.03797 47.3924C1.36015 47.3924 0 46.0323 0 44.3544C0 42.6766 1.36015 41.3165 3.03797 41.3165C4.7158 41.3165 6.07595 42.6766 6.07595 44.3544C6.07595 46.0323 4.7158 47.3924 3.03797 47.3924ZM23.6962 47.3924C22.0184 47.3924 20.6582 46.0323 20.6582 44.3544C20.6582 42.6766 22.0184 41.3165 23.6962 41.3165C25.374 41.3165 26.7342 42.6766 26.7342 44.3544C26.7342 46.0323 25.374 47.3924 23.6962 47.3924ZM44.3544 47.3924C42.6766 47.3924 41.3165 46.0323 41.3165 44.3544C41.3165 42.6766 42.6766 41.3165 44.3544 41.3165C46.0323 41.3165 47.3924 42.6766 47.3924 44.3544C47.3924 46.0323 46.0323 47.3924 44.3544 47.3924ZM65.0127 47.3924C63.3348 47.3924 61.9747 46.0323 61.9747 44.3544C61.9747 42.6766 63.3348 41.3165 65.0127 41.3165C66.6905 41.3165 68.0506 42.6766 68.0506 44.3544C68.0506 46.0323 66.6905 47.3924 65.0127 47.3924ZM85.6709 47.3924C83.9931 47.3924 82.6329 46.0323 82.6329 44.3544C82.6329 42.6766 83.9931 41.3165 85.6709 41.3165C87.3487 41.3165 88.7089 42.6766 88.7089 44.3544C88.7089 46.0323 87.3487 47.3924 85.6709 47.3924ZM106.329 47.3924C104.651 47.3924 103.291 46.0323 103.291 44.3544C103.291 42.6766 104.651 41.3165 106.329 41.3165C108.007 41.3165 109.367 42.6766 109.367 44.3544C109.367 46.0323 108.007 47.3924 106.329 47.3924ZM126.987 47.3924C125.31 47.3924 123.949 46.0323 123.949 44.3544C123.949 42.6766 125.31 41.3165 126.987 41.3165C128.665 41.3165 130.025 42.6766 130.025 44.3544C130.025 46.0323 128.665 47.3924 126.987 47.3924ZM147.646 47.3924C145.968 47.3924 144.608 46.0323 144.608 44.3544C144.608 42.6766 145.968 41.3165 147.646 41.3165C149.323 41.3165 150.684 42.6766 150.684 44.3544C150.684 46.0323 149.323 47.3924 147.646 47.3924ZM168.304 47.3924C166.626 47.3924 165.266 46.0323 165.266 44.3544C165.266 42.6766 166.626 41.3165 168.304 41.3165C169.982 41.3165 171.342 42.6766 171.342 44.3544C171.342 46.0323 169.982 47.3924 168.304 47.3924ZM188.962 47.3924C187.284 47.3924 185.924 46.0323 185.924 44.3544C185.924 42.6766 187.284 41.3165 188.962 41.3165C190.64 41.3165 192 42.6766 192 44.3544C192 46.0323 190.64 47.3924 188.962 47.3924ZM3.03797 68.0506C1.36015 68.0506 0 66.6905 0 65.0127C0 63.3348 1.36015 61.9747 3.03797 61.9747C4.7158 61.9747 6.07595 63.3348 6.07595 65.0127C6.07595 66.6905 4.7158 68.0506 3.03797 68.0506ZM23.6962 68.0506C22.0184 68.0506 20.6582 66.6905 20.6582 65.0127C20.6582 63.3348 22.0184 61.9747 23.6962 61.9747C25.374 61.9747 26.7342 63.3348 26.7342 65.0127C26.7342 66.6905 25.374 68.0506 23.6962 68.0506ZM44.3544 68.0506C42.6766 68.0506 41.3165 66.6905 41.3165 65.0127C41.3165 63.3348 42.6766 61.9747 44.3544 61.9747C46.0323 61.9747 47.3924 63.3348 47.3924 65.0127C47.3924 66.6905 46.0323 68.0506 44.3544 68.0506ZM65.0127 68.0506C63.3348 68.0506 61.9747 66.6905 61.9747 65.0127C61.9747 63.3348 63.3348 61.9747 65.0127 61.9747C66.6905 61.9747 68.0506 63.3348 68.0506 65.0127C68.0506 66.6905 66.6905 68.0506 65.0127 68.0506ZM85.6709 68.0506C83.9931 68.0506 82.6329 66.6905 82.6329 65.0127C82.6329 63.3348 83.9931 61.9747 85.6709 61.9747C87.3487 61.9747 88.7089 63.3348 88.7089 65.0127C88.7089 66.6905 87.3487 68.0506 85.6709 68.0506ZM106.329 68.0506C104.651 68.0506 103.291 66.6905 103.291 65.0127C103.291 63.3348 104.651 61.9747 106.329 61.9747C108.007 61.9747 109.367 63.3348 109.367 65.0127C109.367 66.6905 108.007 68.0506 106.329 68.0506ZM126.987 68.0506C125.31 68.0506 123.949 66.6905 123.949 65.0127C123.949 63.3348 125.31 61.9747 126.987 61.9747C128.665 61.9747 130.025 63.3348 130.025 65.0127C130.025 66.6905 128.665 68.0506 126.987 68.0506ZM147.646 68.0506C145.968 68.0506 144.608 66.6905 144.608 65.0127C144.608 63.3348 145.968 61.9747 147.646 61.9747C149.323 61.9747 150.684 63.3348 150.684 65.0127C150.684 66.6905 149.323 68.0506 147.646 68.0506ZM168.304 68.0506C166.626 68.0506 165.266 66.6905 165.266 65.0127C165.266 63.3348 166.626 61.9747 168.304 61.9747C169.982 61.9747 171.342 63.3348 171.342 65.0127C171.342 66.6905 169.982 68.0506 168.304 68.0506ZM188.962 68.0506C187.284 68.0506 185.924 66.6905 185.924 65.0127C185.924 63.3348 187.284 61.9747 188.962 61.9747C190.64 61.9747 192 63.3348 192 65.0127C192 66.6905 190.64 68.0506 188.962 68.0506ZM3.03797 88.7089C1.36015 88.7089 0 87.3487 0 85.6709C0 83.9931 1.36015 82.6329 3.03797 82.6329C4.7158 82.6329 6.07595 83.9931 6.07595 85.6709C6.07595 87.3487 4.7158 88.7089 3.03797 88.7089ZM23.6962 88.7089C22.0184 88.7089 20.6582 87.3487 20.6582 85.6709C20.6582 83.9931 22.0184 82.6329 23.6962 82.6329C25.374 82.6329 26.7342 83.9931 26.7342 85.6709C26.7342 87.3487 25.374 88.7089 23.6962 88.7089ZM44.3544 88.7089C42.6766 88.7089 41.3165 87.3487 41.3165 85.6709C41.3165 83.9931 42.6766 82.6329 44.3544 82.6329C46.0323 82.6329 47.3924 83.9931 47.3924 85.6709C47.3924 87.3487 46.0323 88.7089 44.3544 88.7089ZM65.0127 88.7089C63.3348 88.7089 61.9747 87.3487 61.9747 85.6709C61.9747 83.9931 63.3348 82.6329 65.0127 82.6329C66.6905 82.6329 68.0506 83.9931 68.0506 85.6709C68.0506 87.3487 66.6905 88.7089 65.0127 88.7089ZM85.6709 88.7089C83.9931 88.7089 82.6329 87.3487 82.6329 85.6709C82.6329 83.9931 83.9931 82.6329 85.6709 82.6329C87.3487 82.6329 88.7089 83.9931 88.7089 85.6709C88.7089 87.3487 87.3487 88.7089 85.6709 88.7089ZM106.329 88.7089C104.651 88.7089 103.291 87.3487 103.291 85.6709C103.291 83.9931 104.651 82.6329 106.329 82.6329C108.007 82.6329 109.367 83.9931 109.367 85.6709C109.367 87.3487 108.007 88.7089 106.329 88.7089ZM126.987 88.7089C125.31 88.7089 123.949 87.3487 123.949 85.6709C123.949 83.9931 125.31 82.6329 126.987 82.6329C128.665 82.6329 130.025 83.9931 130.025 85.6709C130.025 87.3487 128.665 88.7089 126.987 88.7089ZM147.646 88.7089C145.968 88.7089 144.608 87.3487 144.608 85.6709C144.608 83.9931 145.968 82.6329 147.646 82.6329C149.323 82.6329 150.684 83.9931 150.684 85.6709C150.684 87.3487 149.323 88.7089 147.646 88.7089ZM168.304 88.7089C166.626 88.7089 165.266 87.3487 165.266 85.6709C165.266 83.9931 166.626 82.6329 168.304 82.6329C169.982 82.6329 171.342 83.9931 171.342 85.6709C171.342 87.3487 169.982 88.7089 168.304 88.7089ZM188.962 88.7089C187.284 88.7089 185.924 87.3487 185.924 85.6709C185.924 83.9931 187.284 82.6329 188.962 82.6329C190.64 82.6329 192 83.9931 192 85.6709C192 87.3487 190.64 88.7089 188.962 88.7089ZM3.03797 109.367C1.36015 109.367 0 108.007 0 106.329C0 104.651 1.36015 103.291 3.03797 103.291C4.7158 103.291 6.07595 104.651 6.07595 106.329C6.07595 108.007 4.7158 109.367 3.03797 109.367ZM23.6962 109.367C22.0184 109.367 20.6582 108.007 20.6582 106.329C20.6582 104.651 22.0184 103.291 23.6962 103.291C25.374 103.291 26.7342 104.651 26.7342 106.329C26.7342 108.007 25.374 109.367 23.6962 109.367ZM44.3544 109.367C42.6766 109.367 41.3165 108.007 41.3165 106.329C41.3165 104.651 42.6766 103.291 44.3544 103.291C46.0323 103.291 47.3924 104.651 47.3924 106.329C47.3924 108.007 46.0323 109.367 44.3544 109.367ZM65.0127 109.367C63.3348 109.367 61.9747 108.007 61.9747 106.329C61.9747 104.651 63.3348 103.291 65.0127 103.291C66.6905 103.291 68.0506 104.651 68.0506 106.329C68.0506 108.007 66.6905 109.367 65.0127 109.367ZM85.6709 109.367C83.9931 109.367 82.6329 108.007 82.6329 106.329C82.6329 104.651 83.9931 103.291 85.6709 103.291C87.3487 103.291 88.7089 104.651 88.7089 106.329C88.7089 108.007 87.3487 109.367 85.6709 109.367ZM106.329 109.367C104.651 109.367 103.291 108.007 103.291 106.329C103.291 104.651 104.651 103.291 106.329 103.291C108.007 103.291 109.367 104.651 109.367 106.329C109.367 108.007 108.007 109.367 106.329 109.367ZM126.987 109.367C125.31 109.367 123.949 108.007 123.949 106.329C123.949 104.651 125.31 103.291 126.987 103.291C128.665 103.291 130.025 104.651 130.025 106.329C130.025 108.007 128.665 109.367 126.987 109.367ZM147.646 109.367C145.968 109.367 144.608 108.007 144.608 106.329C144.608 104.651 145.968 103.291 147.646 103.291C149.323 103.291 150.684 104.651 150.684 106.329C150.684 108.007 149.323 109.367 147.646 109.367ZM168.304 109.367C166.626 109.367 165.266 108.007 165.266 106.329C165.266 104.651 166.626 103.291 168.304 103.291C169.982 103.291 171.342 104.651 171.342 106.329C171.342 108.007 169.982 109.367 168.304 109.367ZM188.962 109.367C187.284 109.367 185.924 108.007 185.924 106.329C185.924 104.651 187.284 103.291 188.962 103.291C190.64 103.291 192 104.651 192 106.329C192 108.007 190.64 109.367 188.962 109.367ZM3.03797 130.025C1.36015 130.025 0 128.665 0 126.987C0 125.31 1.36015 123.949 3.03797 123.949C4.7158 123.949 6.07595 125.31 6.07595 126.987C6.07595 128.665 4.7158 130.025 3.03797 130.025ZM23.6962 130.025C22.0184 130.025 20.6582 128.665 20.6582 126.987C20.6582 125.31 22.0184 123.949 23.6962 123.949C25.374 123.949 26.7342 125.31 26.7342 126.987C26.7342 128.665 25.374 130.025 23.6962 130.025ZM44.3544 130.025C42.6766 130.025 41.3165 128.665 41.3165 126.987C41.3165 125.31 42.6766 123.949 44.3544 123.949C46.0323 123.949 47.3924 125.31 47.3924 126.987C47.3924 128.665 46.0323 130.025 44.3544 130.025ZM65.0127 130.025C63.3348 130.025 61.9747 128.665 61.9747 126.987C61.9747 125.31 63.3348 123.949 65.0127 123.949C66.6905 123.949 68.0506 125.31 68.0506 126.987C68.0506 128.665 66.6905 130.025 65.0127 130.025ZM85.6709 130.025C83.9931 130.025 82.6329 128.665 82.6329 126.987C82.6329 125.31 83.9931 123.949 85.6709 123.949C87.3487 123.949 88.7089 125.31 88.7089 126.987C88.7089 128.665 87.3487 130.025 85.6709 130.025ZM106.329 130.025C104.651 130.025 103.291 128.665 103.291 126.987C103.291 125.31 104.651 123.949 106.329 123.949C108.007 123.949 109.367 125.31 109.367 126.987C109.367 128.665 108.007 130.025 106.329 130.025ZM126.987 130.025C125.31 130.025 123.949 128.665 123.949 126.987C123.949 125.31 125.31 123.949 126.987 123.949C128.665 123.949 130.025 125.31 130.025 126.987C130.025 128.665 128.665 130.025 126.987 130.025ZM147.646 130.025C145.968 130.025 144.608 128.665 144.608 126.987C144.608 125.31 145.968 123.949 147.646 123.949C149.323 123.949 150.684 125.31 150.684 126.987C150.684 128.665 149.323 130.025 147.646 130.025ZM168.304 130.025C166.626 130.025 165.266 128.665 165.266 126.987C165.266 125.31 166.626 123.949 168.304 123.949C169.982 123.949 171.342 125.31 171.342 126.987C171.342 128.665 169.982 130.025 168.304 130.025ZM188.962 130.025C187.284 130.025 185.924 128.665 185.924 126.987C185.924 125.31 187.284 123.949 188.962 123.949C190.64 123.949 192 125.31 192 126.987C192 128.665 190.64 130.025 188.962 130.025ZM3.03797 150.684C1.36015 150.684 0 149.323 0 147.646C0 145.968 1.36015 144.608 3.03797 144.608C4.7158 144.608 6.07595 145.968 6.07595 147.646C6.07595 149.323 4.7158 150.684 3.03797 150.684ZM23.6962 150.684C22.0184 150.684 20.6582 149.323 20.6582 147.646C20.6582 145.968 22.0184 144.608 23.6962 144.608C25.374 144.608 26.7342 145.968 26.7342 147.646C26.7342 149.323 25.374 150.684 23.6962 150.684ZM44.3544 150.684C42.6766 150.684 41.3165 149.323 41.3165 147.646C41.3165 145.968 42.6766 144.608 44.3544 144.608C46.0323 144.608 47.3924 145.968 47.3924 147.646C47.3924 149.323 46.0323 150.684 44.3544 150.684ZM65.0127 150.684C63.3348 150.684 61.9747 149.323 61.9747 147.646C61.9747 145.968 63.3348 144.608 65.0127 144.608C66.6905 144.608 68.0506 145.968 68.0506 147.646C68.0506 149.323 66.6905 150.684 65.0127 150.684ZM85.6709 150.684C83.9931 150.684 82.6329 149.323 82.6329 147.646C82.6329 145.968 83.9931 144.608 85.6709 144.608C87.3487 144.608 88.7089 145.968 88.7089 147.646C88.7089 149.323 87.3487 150.684 85.6709 150.684ZM106.329 150.684C104.651 150.684 103.291 149.323 103.291 147.646C103.291 145.968 104.651 144.608 106.329 144.608C108.007 144.608 109.367 145.968 109.367 147.646C109.367 149.323 108.007 150.684 106.329 150.684ZM126.987 150.684C125.31 150.684 123.949 149.323 123.949 147.646C123.949 145.968 125.31 144.608 126.987 144.608C128.665 144.608 130.025 145.968 130.025 147.646C130.025 149.323 128.665 150.684 126.987 150.684ZM147.646 150.684C145.968 150.684 144.608 149.323 144.608 147.646C144.608 145.968 145.968 144.608 147.646 144.608C149.323 144.608 150.684 145.968 150.684 147.646C150.684 149.323 149.323 150.684 147.646 150.684ZM168.304 150.684C166.626 150.684 165.266 149.323 165.266 147.646C165.266 145.968 166.626 144.608 168.304 144.608C169.982 144.608 171.342 145.968 171.342 147.646C171.342 149.323 169.982 150.684 168.304 150.684ZM188.962 150.684C187.284 150.684 185.924 149.323 185.924 147.646C185.924 145.968 187.284 144.608 188.962 144.608C190.64 144.608 192 145.968 192 147.646C192 149.323 190.64 150.684 188.962 150.684ZM3.03797 171.342C1.36015 171.342 0 169.982 0 168.304C0 166.626 1.36015 165.266 3.03797 165.266C4.7158 165.266 6.07595 166.626 6.07595 168.304C6.07595 169.982 4.7158 171.342 3.03797 171.342ZM23.6962 171.342C22.0184 171.342 20.6582 169.982 20.6582 168.304C20.6582 166.626 22.0184 165.266 23.6962 165.266C25.374 165.266 26.7342 166.626 26.7342 168.304C26.7342 169.982 25.374 171.342 23.6962 171.342ZM44.3544 171.342C42.6766 171.342 41.3165 169.982 41.3165 168.304C41.3165 166.626 42.6766 165.266 44.3544 165.266C46.0323 165.266 47.3924 166.626 47.3924 168.304C47.3924 169.982 46.0323 171.342 44.3544 171.342ZM65.0127 171.342C63.3348 171.342 61.9747 169.982 61.9747 168.304C61.9747 166.626 63.3348 165.266 65.0127 165.266C66.6905 165.266 68.0506 166.626 68.0506 168.304C68.0506 169.982 66.6905 171.342 65.0127 171.342ZM85.6709 171.342C83.9931 171.342 82.6329 169.982 82.6329 168.304C82.6329 166.626 83.9931 165.266 85.6709 165.266C87.3487 165.266 88.7089 166.626 88.7089 168.304C88.7089 169.982 87.3487 171.342 85.6709 171.342ZM106.329 171.342C104.651 171.342 103.291 169.982 103.291 168.304C103.291 166.626 104.651 165.266 106.329 165.266C108.007 165.266 109.367 166.626 109.367 168.304C109.367 169.982 108.007 171.342 106.329 171.342ZM126.987 171.342C125.31 171.342 123.949 169.982 123.949 168.304C123.949 166.626 125.31 165.266 126.987 165.266C128.665 165.266 130.025 166.626 130.025 168.304C130.025 169.982 128.665 171.342 126.987 171.342ZM147.646 171.342C145.968 171.342 144.608 169.982 144.608 168.304C144.608 166.626 145.968 165.266 147.646 165.266C149.323 165.266 150.684 166.626 150.684 168.304C150.684 169.982 149.323 171.342 147.646 171.342ZM168.304 171.342C166.626 171.342 165.266 169.982 165.266 168.304C165.266 166.626 166.626 165.266 168.304 165.266C169.982 165.266 171.342 166.626 171.342 168.304C171.342 169.982 169.982 171.342 168.304 171.342ZM188.962 171.342C187.284 171.342 185.924 169.982 185.924 168.304C185.924 166.626 187.284 165.266 188.962 165.266C190.64 165.266 192 166.626 192 168.304C192 169.982 190.64 171.342 188.962 171.342ZM3.03797 192C1.36015 192 0 190.64 0 188.962C0 187.284 1.36015 185.924 3.03797 185.924C4.7158 185.924 6.07595 187.284 6.07595 188.962C6.07595 190.64 4.7158 192 3.03797 192ZM23.6962 192C22.0184 192 20.6582 190.64 20.6582 188.962C20.6582 187.284 22.0184 185.924 23.6962 185.924C25.374 185.924 26.7342 187.284 26.7342 188.962C26.7342 190.64 25.374 192 23.6962 192ZM44.3544 192C42.6766 192 41.3165 190.64 41.3165 188.962C41.3165 187.284 42.6766 185.924 44.3544 185.924C46.0323 185.924 47.3924 187.284 47.3924 188.962C47.3924 190.64 46.0323 192 44.3544 192ZM65.0127 192C63.3348 192 61.9747 190.64 61.9747 188.962C61.9747 187.284 63.3348 185.924 65.0127 185.924C66.6905 185.924 68.0506 187.284 68.0506 188.962C68.0506 190.64 66.6905 192 65.0127 192ZM85.6709 192C83.9931 192 82.6329 190.64 82.6329 188.962C82.6329 187.284 83.9931 185.924 85.6709 185.924C87.3487 185.924 88.7089 187.284 88.7089 188.962C88.7089 190.64 87.3487 192 85.6709 192ZM106.329 192C104.651 192 103.291 190.64 103.291 188.962C103.291 187.284 104.651 185.924 106.329 185.924C108.007 185.924 109.367 187.284 109.367 188.962C109.367 190.64 108.007 192 106.329 192ZM126.987 192C125.31 192 123.949 190.64 123.949 188.962C123.949 187.284 125.31 185.924 126.987 185.924C128.665 185.924 130.025 187.284 130.025 188.962C130.025 190.64 128.665 192 126.987 192ZM147.646 192C145.968 192 144.608 190.64 144.608 188.962C144.608 187.284 145.968 185.924 147.646 185.924C149.323 185.924 150.684 187.284 150.684 188.962C150.684 190.64 149.323 192 147.646 192ZM168.304 192C166.626 192 165.266 190.64 165.266 188.962C165.266 187.284 166.626 185.924 168.304 185.924C169.982 185.924 171.342 187.284 171.342 188.962C171.342 190.64 169.982 192 168.304 192ZM188.962 192C187.284 192 185.924 190.64 185.924 188.962C185.924 187.284 187.284 185.924 188.962 185.924C190.64 185.924 192 187.284 192 188.962C192 190.64 190.64 192 188.962 192Z" fill="#479FC8"/>
</svg>
