<svg width="31" height="24" viewBox="0 0 31 24" fill="none" xmlns="http://www.w3.org/2000/svg">
<path d="M27.2508 5.98123C27.2695 6.24372 27.2695 6.50626 27.2695 6.76875C27.2695 14.775 21.1758 24 10.0383 24C6.60702 24 3.41954 23.0062 0.738281 21.2813C1.2258 21.3375 1.6945 21.3563 2.20078 21.3563C5.03198 21.3563 7.63827 20.4 9.71953 18.7688C7.05703 18.7125 4.82577 16.9688 4.057 14.5687C4.43204 14.625 4.80701 14.6625 5.2008 14.6625C5.74453 14.6625 6.28832 14.5874 6.79454 14.4563C4.01955 13.8937 1.93823 11.4562 1.93823 8.51249V8.43752C2.74445 8.88752 3.68203 9.16877 4.67571 9.20622C3.04445 8.1187 1.97575 6.26247 1.97575 4.16246C1.97575 3.03748 2.27569 2.00623 2.80072 1.10622C5.78199 4.78122 10.2633 7.18118 15.2882 7.44372C15.1945 6.99372 15.1382 6.52502 15.1382 6.05626C15.1382 2.71872 17.8382 0 21.1945 0C22.9382 0 24.5132 0.731248 25.6195 1.9125C26.9882 1.65001 28.3007 1.14374 29.4632 0.450003C29.0132 1.85628 28.0569 3.03754 26.8007 3.78748C28.0195 3.6563 29.2007 3.31872 30.2882 2.85002C29.4633 4.04997 28.432 5.11868 27.2508 5.98123Z" fill="#18425D"/>
</svg>
