<svg width="35" height="24" viewBox="0 0 35 24" fill="none" xmlns="http://www.w3.org/2000/svg">
<path d="M33.7813 3.74904C33.5864 3.02308 33.2042 2.36104 32.673 1.82918C32.1418 1.29733 31.4803 0.914313 30.7545 0.718471C28.0832 1.45785e-07 17.3749 0 17.3749 0C17.3749 0 6.66664 -1.45785e-07 3.99531 0.71465C3.26927 0.909856 2.60738 1.29266 2.07609 1.82461C1.54481 2.35656 1.16285 3.01894 0.968556 3.74522C0.253906 6.42038 0.253906 12 0.253906 12C0.253906 12 0.253906 17.5796 0.968556 20.251C1.36219 21.7261 2.52397 22.8879 3.99531 23.2815C6.66664 24 17.3749 24 17.3749 24C17.3749 24 28.0832 24 30.7545 23.2815C32.2297 22.8879 33.3877 21.7261 33.7813 20.251C34.4959 17.5796 34.4959 12 34.4959 12C34.4959 12 34.4959 6.42038 33.7813 3.74904ZM13.9736 17.121V6.87898L22.8399 11.9618L13.9736 17.121Z" fill="#00425F"/>
</svg>
