<svg width="100" height="100" viewBox="0 0 100 100" fill="none" xmlns="http://www.w3.org/2000/svg">
<g opacity="0.4">
<path d="M75.4086 22.336H23.591C22.3488 22.336 21.3418 23.3253 21.3418 24.5458V75.4542C21.3418 76.6747 22.3488 77.664 23.591 77.664H75.4086C76.6508 77.664 77.6578 76.6747 77.6578 75.4542V24.5458C77.6578 23.3253 76.6508 22.336 75.4086 22.336Z" fill="white" fill-opacity="0.1"/>
<path d="M32.2215 44.6414V46.6854H36.8237V48.5675H32.2215V52.2361H30.0994V42.7598H37.4432V44.6414H32.2215Z" fill="white"/>
<path d="M46.8412 51.4101C46.5709 51.62 46.2774 51.7994 45.9663 51.9449C45.6347 52.0979 45.2854 52.2108 44.926 52.2809C44.5086 52.3615 44.0838 52.4001 43.6584 52.3962C42.9822 52.4023 42.3118 52.2733 41.6879 52.0171C41.1001 51.7766 40.5663 51.4248 40.1169 50.9817C39.6715 50.5372 39.3203 50.0103 39.0835 49.4316C38.8334 48.8253 38.7069 48.1767 38.7113 47.5225V47.4957C38.7063 46.8431 38.8328 46.196 39.0835 45.5917C39.3234 45.0127 39.6742 44.4844 40.1169 44.0354C40.5674 43.5821 41.1063 43.2229 41.7015 42.9793C42.3487 42.7172 43.0434 42.5873 43.7433 42.5973C44.1568 42.5943 44.5697 42.6305 44.9762 42.7054C45.3232 42.7707 45.6626 42.8705 45.9891 43.0033C46.2855 43.1263 46.5675 43.2806 46.8298 43.4637C47.0849 43.6427 47.3245 43.842 47.5463 44.0595L46.1943 45.5889C45.849 45.277 45.4618 45.0132 45.0435 44.8049C44.6331 44.6112 44.1825 44.514 43.7273 44.5209C43.3405 44.5174 42.9575 44.5959 42.6044 44.7511C42.2663 44.8999 41.9636 45.1166 41.7158 45.3873C41.4649 45.6627 41.2687 45.9818 41.1372 46.3281C40.9976 46.6938 40.9275 47.0816 40.9303 47.4721V47.499C40.9279 47.8918 40.998 48.2817 41.1372 48.6498C41.2666 48.9973 41.4598 49.3184 41.7072 49.5973C41.9596 49.8778 42.2705 50.1016 42.6188 50.2534C42.9671 50.4052 43.3446 50.4815 43.7256 50.4771C44.277 50.4771 44.7433 50.3778 45.1244 50.1792C45.5376 49.9583 45.9197 49.6853 46.261 49.3672L47.6113 50.7073C47.3731 50.9603 47.1157 51.1953 46.8412 51.4101V51.4101Z" fill="white"/>
<path d="M56.8574 52.2361V46.0492L54.1425 50.0969H54.0855L51.3985 46.0901V52.2361H49.3066V42.7598H51.5935L54.1288 46.7671L56.6642 42.7598H58.9516V52.2361H56.8574Z" fill="white"/>
<path d="M69.1975 50.7739C69.0269 51.0999 68.7763 51.3789 68.4685 51.5859C68.1219 51.8155 67.7356 51.9808 67.3285 52.0737C66.843 52.1865 66.3453 52.2411 65.8465 52.2361H61.2671V42.7598H65.7376C66.7275 42.7598 67.5044 42.981 68.0683 43.4234C68.6322 43.8658 68.9144 44.4614 68.9148 45.2103V45.24C68.9187 45.4829 68.8839 45.725 68.8116 45.9574C68.7474 46.1556 68.6553 46.3441 68.538 46.5174C68.4264 46.6815 68.2921 46.8297 68.139 46.9575C67.9899 47.0831 67.827 47.192 67.6534 47.2823C68.2108 47.4903 68.6497 47.7723 68.9701 48.1285C69.2904 48.4846 69.4504 48.9778 69.45 49.608V49.6349C69.4598 50.0289 69.3732 50.4196 69.1975 50.7739V50.7739ZM66.82 45.562C66.82 45.2462 66.7007 45.0048 66.4621 44.8379C66.2234 44.671 65.879 44.5876 65.4287 44.5876H63.3339V46.5907H65.289C65.7575 46.5907 66.1296 46.5118 66.4051 46.3538C66.6806 46.1959 66.8183 45.9409 66.8183 45.5889L66.82 45.562ZM67.3575 49.3526C67.3625 49.2069 67.3312 49.0622 67.2664 48.931C67.2015 48.7999 67.105 48.6862 66.9853 48.6C66.7372 48.4152 66.3382 48.3219 65.7883 48.32H63.3373V50.4049H65.859C66.3275 50.4049 66.695 50.3214 66.9614 50.1546C67.2278 49.9877 67.3608 49.7282 67.3604 49.3762L67.3575 49.3526Z" fill="white"/>
<path d="M69.2914 58.3082V62.9483H29.8884V60.5078C29.8884 60.219 29.9462 59.9329 30.0587 59.666C30.1712 59.3991 30.3361 59.1565 30.544 58.9523C30.752 58.748 30.9988 58.586 31.2705 58.4755C31.5422 58.3649 31.8333 58.3081 32.1274 58.3082H69.2914Z" fill="white"/>
<path d="M29.8884 64.4508H69.2914V69.091H32.1274C31.8333 69.091 31.5421 69.0342 31.2704 68.9236C30.9986 68.8131 30.7518 68.651 30.5438 68.4467C30.3359 68.2423 30.171 67.9997 30.0585 67.7328C29.9461 67.4658 29.8883 67.1797 29.8884 66.8907V64.4508Z" fill="white"/>
</g>
</svg>
