<svg width="100" height="100" viewBox="0 0 100 100" fill="none" xmlns="http://www.w3.org/2000/svg">
<g opacity="0.4">
<path d="M29.299 73.4018H27.1301L27.1581 72.3597V65.848C27.1549 65.5554 27.1362 65.2633 27.1021 64.9727C27.0881 64.834 27.0574 64.6975 27.0108 64.5661C26.9546 64.4562 26.8895 64.3511 26.8159 64.252L26.9279 63.9535H29.3292L31.9758 63.9115C32.1421 64.159 32.2423 64.4449 32.267 64.742C32.2987 65.0439 32.2616 65.3491 32.1583 65.6346H31.8285C31.7859 65.4308 31.6291 65.2572 31.3581 65.1138C31.0915 64.9715 30.7964 64.8907 30.4946 64.8775L29.2306 64.8215C29.1694 65.9146 29.139 67.0006 29.1394 68.0796H30.9364C31.0813 68.0796 31.1933 68.0773 31.2724 68.0729C31.3724 68.0632 31.4706 68.0399 31.5642 68.0034C31.6732 67.965 31.7726 67.9032 31.8554 67.8225C31.8863 67.9828 31.9026 68.1455 31.9041 68.3086C31.9041 68.897 31.4665 69.1912 30.5914 69.1912C30.4134 69.1912 30.1606 69.1865 29.8332 69.1772C29.5058 69.1678 29.2695 69.1632 29.1242 69.1632C29.1198 69.7792 29.1269 70.4555 29.1455 71.1921L29.1662 72.3037L29.2015 72.7483C29.2086 72.9692 29.2413 73.1885 29.299 73.4018V73.4018Z" fill="white"/>
<path d="M35.717 70.3033C35.717 71.6279 35.7685 72.6608 35.8716 73.4018H33.8556L33.9328 68.5528C33.9358 68.2879 33.9099 68.0235 33.8556 67.7643C33.8223 67.5864 33.7631 67.4143 33.6797 67.2536C33.6215 67.1515 33.5481 67.059 33.4619 66.9792C33.4094 66.9257 33.3477 66.8821 33.2799 66.8504C33.2527 66.84 33.2243 66.833 33.1953 66.8297V66.5726C33.7437 66.2389 34.2614 66.072 34.7482 66.072C35.4411 66.072 35.7874 66.5235 35.787 67.4266C35.787 67.5655 35.7754 67.8005 35.7523 68.1317C35.7288 68.4632 35.717 68.7208 35.717 68.9061V70.3033ZM33.6881 64.252C33.6858 64.1203 33.711 63.9897 33.762 63.8683C33.813 63.7469 33.8887 63.6375 33.9844 63.5469C34.0772 63.4536 34.1878 63.38 34.3097 63.3305C34.4316 63.2809 34.5623 63.2565 34.6939 63.2585C34.8205 63.2573 34.946 63.2823 35.0626 63.3319C35.1791 63.3816 35.2841 63.4548 35.3709 63.5469C35.4636 63.6391 35.5366 63.7491 35.5855 63.8703C35.6344 63.9915 35.6582 64.1213 35.6554 64.252C35.6571 64.3776 35.6327 64.5022 35.5837 64.6179C35.5348 64.7336 35.4623 64.8378 35.3709 64.924C35.2828 65.0139 35.1773 65.085 35.061 65.1331C34.9446 65.1813 34.8198 65.2054 34.6939 65.204C34.4296 65.2084 34.1744 65.1077 33.9844 64.924C33.8901 64.8394 33.815 64.7358 33.7639 64.6199C33.7128 64.504 33.687 64.3786 33.6881 64.252V64.252Z" fill="white"/>
<path d="M44.7738 72.848V73.1604C44.2074 73.4472 43.681 73.5907 43.1946 73.5911C42.9489 73.5851 42.7092 73.5144 42.4996 73.3861C42.2656 73.2551 42.0807 73.0514 41.9726 72.806C41.3507 73.3286 40.7048 73.59 40.035 73.59C39.6646 73.5923 39.2969 73.5264 38.9503 73.3956C38.604 73.2615 38.2869 73.0619 38.0162 72.8076C37.7329 72.5463 37.5089 72.1898 37.3442 71.738C37.1796 71.2863 37.0976 70.7636 37.0984 70.17C37.0991 69.7766 37.1474 69.3848 37.2423 69.003C37.3402 68.6111 37.4909 68.2343 37.6903 67.883C37.8843 67.5327 38.1259 67.211 38.4082 66.9271C38.6982 66.6414 39.0417 66.4159 39.419 66.2635C39.8237 66.0968 40.2576 66.0126 40.6953 66.016C40.9244 66.0205 41.1524 66.0475 41.3762 66.0966C41.6376 66.1496 41.7682 66.1854 41.7682 66.2041C41.7682 65.9122 41.7658 65.6424 41.761 65.3949C41.7561 65.1474 41.7492 64.9215 41.7402 64.7173C41.7329 64.5345 41.7129 64.3525 41.6803 64.1724C41.6548 64.0293 41.6137 63.8894 41.5577 63.7552C41.5096 63.6406 41.4368 63.5379 41.3446 63.4544C41.2524 63.371 41.1429 63.3089 41.024 63.2725V63.0155L41.2206 62.9113C41.3968 62.8192 41.5828 62.7469 41.775 62.6957C41.9983 62.6286 42.23 62.5935 42.4632 62.5916C42.6381 62.5877 42.8128 62.6065 42.9829 62.6476C43.122 62.6871 43.2487 62.7613 43.3514 62.8632C43.4736 62.9928 43.5574 63.154 43.5933 63.3285C43.6509 63.5856 43.6774 63.8486 43.6722 64.112V64.2928C43.6722 64.3765 43.6607 64.6914 43.6375 65.2376C43.6144 65.7837 43.5895 66.4539 43.563 67.248C43.5373 68.0402 43.5244 68.779 43.5244 69.4644C43.5244 69.8583 43.5266 70.1812 43.5311 70.4332C43.5356 70.6852 43.5451 70.9378 43.5597 71.1909C43.5683 71.3896 43.587 71.5877 43.6157 71.7845C43.6392 71.9292 43.6733 72.072 43.7176 72.2118C43.747 72.3238 43.7982 72.4288 43.8682 72.5209C43.9321 72.5924 44.0067 72.6534 44.0894 72.7018C44.1809 72.7577 44.2822 72.7957 44.3879 72.8138C44.5156 72.8338 44.6445 72.8452 44.7738 72.848V72.848ZM40.7793 72.5629C41.1586 72.5629 41.4698 72.4772 41.7128 72.3059L41.7274 70.6729V67.1281C41.2122 67.003 40.8284 66.9405 40.576 66.9405C40.2943 66.9359 40.0203 67.0321 39.8032 67.2116C39.578 67.4002 39.406 67.6444 39.3042 67.92C39.1937 68.204 39.1115 68.4983 39.059 68.7986C39.0077 69.0923 38.9818 69.3898 38.9817 69.6879C38.9817 70.591 39.1478 71.296 39.4801 71.803C39.8123 72.31 40.2454 72.5627 40.7793 72.5612V72.5629Z" fill="white"/>
<path d="M51.0793 69.4348L50.9522 69.488C50.7136 69.581 50.3907 69.6275 49.9834 69.6275L46.7964 69.5855C46.8054 69.6919 46.8104 69.8683 46.8104 70.1135C46.8287 70.8035 47.0381 71.3448 47.4387 71.7375C47.8393 72.1303 48.2851 72.3272 48.776 72.3283C49.2184 72.3245 49.6549 72.2262 50.0562 72.0399C50.4892 71.8454 50.8695 71.5074 51.1969 71.0258C51.2764 71.3087 51.2764 71.6081 51.1969 71.891C51.1204 72.1611 50.9767 72.4073 50.7791 72.6067C50.5672 72.8178 50.3246 72.9956 50.0595 73.1342C49.7717 73.2876 49.4647 73.4021 49.1467 73.4747C48.8223 73.55 48.4902 73.5876 48.1572 73.5867C47.752 73.5902 47.3493 73.5231 46.9672 73.3884C46.5988 73.2559 46.2596 73.0534 45.9682 72.792C45.6695 72.5262 45.432 72.1686 45.2558 71.7191C45.0796 71.2696 44.9895 70.7531 44.9854 70.1695C44.9854 69.4057 45.1175 68.7134 45.3818 68.0925C45.6462 67.4716 46.0283 66.98 46.5282 66.6175C47.0232 66.2552 47.6227 66.0637 48.2362 66.072C48.579 66.0675 48.9207 66.1132 49.2503 66.2075C49.515 66.2804 49.7662 66.3951 49.9946 66.5475C50.1898 66.6858 50.3602 66.8562 50.4986 67.0515C50.6271 67.2252 50.7353 67.4131 50.8211 67.6115C50.8975 67.8007 50.9538 67.9974 50.9891 68.1983C51.0225 68.3683 51.0471 68.5399 51.063 68.7124C51.0726 68.8401 51.077 68.9706 51.077 69.1044L51.0793 69.4348ZM48.1449 66.9406C47.9623 66.9378 47.7832 66.9911 47.6319 67.0935C47.4705 67.2091 47.3404 67.363 47.2534 67.5415C47.1499 67.7388 47.064 67.945 46.9969 68.1575C46.9205 68.4072 46.8584 68.6611 46.811 68.9179C47.0872 68.9135 47.5037 68.8996 48.0603 68.8765C48.617 68.8534 49.0476 68.8394 49.3522 68.8345C49.3479 68.6113 49.322 68.3891 49.275 68.1709C49.2297 67.9606 49.159 67.7565 49.0644 67.5633C48.9781 67.3822 48.8477 67.2257 48.6853 67.108C48.5275 66.9962 48.3382 66.9376 48.1449 66.9406V66.9406Z" fill="white"/>
<path d="M54.7515 73.4019H52.7355C52.7635 71.9459 52.7775 70.5981 52.7775 69.3587L52.8127 64.8915C52.8127 64.4234 52.7368 64.05 52.5848 63.7715C52.4329 63.493 52.2636 63.3265 52.0769 63.272V63.015L52.2735 62.9108C52.4548 62.8191 52.6453 62.7468 52.8419 62.6952C53.07 62.628 53.3063 62.593 53.5441 62.5911C53.9921 62.5911 54.301 62.707 54.4709 62.9388C54.6408 63.1707 54.725 63.5272 54.7235 64.0084C54.7235 64.3004 54.7095 64.6339 54.6815 65.0091C54.6217 66.0239 54.5919 67.2699 54.5919 68.7471V70.5604C54.5919 71.079 54.6036 71.5815 54.6271 72.0679C54.646 72.5144 54.6875 72.9596 54.7515 73.4019V73.4019Z" fill="white"/>
<path d="M58.6 70.3033C58.6 71.6279 58.6515 72.6608 58.7545 73.4018H56.7385L56.8164 68.5528C56.8194 68.2879 56.7933 68.0235 56.7385 67.7643C56.7057 67.5863 56.6467 67.4142 56.5633 67.2536C56.5051 67.1515 56.4316 67.059 56.3454 66.9792C56.2929 66.9256 56.231 66.8819 56.1629 66.8504C56.1359 66.8399 56.1076 66.8329 56.0789 66.8297V66.5726C56.6269 66.2389 57.1444 66.072 57.6312 66.072C58.3241 66.072 58.6704 66.5235 58.67 67.4266C58.67 67.5655 58.6584 67.8005 58.6353 68.1317C58.6117 68.4632 58.6 68.7208 58.6 68.9061V70.3033ZM56.5711 64.252C56.5686 64.1205 56.5935 63.9899 56.6442 63.8685C56.6949 63.7471 56.7703 63.6376 56.8657 63.5469C56.9584 63.4537 57.069 63.3801 57.1908 63.3305C57.3126 63.281 57.4431 63.2565 57.5746 63.2585C57.7013 63.2573 57.827 63.2823 57.9436 63.3319C58.0602 63.3815 58.1653 63.4547 58.2522 63.5469C58.3449 63.6391 58.4179 63.7491 58.4668 63.8703C58.5157 63.9915 58.5395 64.1213 58.5367 64.252C58.5384 64.3776 58.514 64.5022 58.4651 64.6179C58.4161 64.7335 58.3436 64.8378 58.2522 64.924C58.164 65.0139 58.0584 65.085 57.942 65.1332C57.8256 65.1813 57.7006 65.2054 57.5746 65.204C57.3105 65.2083 57.0555 65.1076 56.8657 64.924C56.7717 64.8393 56.6969 64.7355 56.6461 64.6197C56.5953 64.5038 56.5697 64.3785 56.5711 64.252V64.252Z" fill="white"/>
<path d="M62.9666 65.0371L62.8048 66.2181H64.1488C64.301 66.2168 64.4527 66.1994 64.6012 66.1661C64.7633 66.1313 64.8652 66.0724 64.907 65.9891C64.9368 66.1001 64.9509 66.2147 64.949 66.3296C64.949 66.8989 64.5372 67.1838 63.7136 67.1841C63.639 67.1841 63.4833 67.1771 63.2466 67.1629C63.0099 67.1487 62.8496 67.1418 62.7656 67.1421V70.3448C62.7611 70.4792 62.7611 70.6209 62.7656 70.7687C62.77 70.9165 62.7762 71.0638 62.7829 71.21C62.7894 71.3512 62.8131 71.4911 62.8535 71.6266C62.8888 71.7484 62.9394 71.8653 63.0041 71.9744C63.0684 72.0768 63.1594 72.1596 63.2673 72.2141C63.3926 72.2765 63.5312 72.3074 63.6711 72.3042C63.9785 72.3016 64.2838 72.2535 64.5772 72.1614C64.8902 72.0668 65.0873 71.9408 65.1668 71.7829C65.2272 71.9232 65.2517 72.0764 65.2382 72.2286C65.2247 72.3808 65.1737 72.5272 65.0896 72.6548C64.9167 72.9396 64.6464 73.1666 64.2787 73.3357C63.9075 73.5057 63.5036 73.5923 63.0954 73.5894C62.656 73.5894 62.2922 73.5385 62.004 73.4365C61.7407 73.3526 61.5109 73.1873 61.3476 72.9645C61.1964 72.7485 61.0912 72.5038 61.0385 72.2454C60.9772 71.9191 60.949 71.5874 60.9545 71.2553C60.9545 70.9033 60.9779 70.3806 61.0245 69.6873C61.0712 68.9941 61.0945 68.4869 61.0945 68.1658C61.0945 67.6193 61.0525 67.2928 60.9685 67.1864C60.7824 66.949 60.5323 66.7697 60.2478 66.6695L60.3178 66.2461C60.3747 66.2437 60.4312 66.2343 60.4858 66.2181C60.5978 66.1838 60.7069 66.1409 60.8123 66.0899C60.9964 65.9953 61.1628 65.8695 61.304 65.7181C61.5028 65.5138 61.6748 65.2849 61.8158 65.0371H62.9666Z" fill="white"/>
<path d="M69.6617 73.3879L69.4937 73.3184C69.3525 73.2574 69.225 73.1689 69.1185 73.058C68.9853 72.9339 68.8871 72.7769 68.834 72.6027L67.5768 68.648C67.4964 68.3789 67.3943 68.1167 67.2716 67.864C67.1824 67.6754 67.0765 67.4951 66.9552 67.3253C66.8704 67.2103 66.7754 67.1033 66.6713 67.0055C66.606 66.9434 66.5353 66.8872 66.4601 66.8375C66.4277 66.8165 66.3924 66.8001 66.3554 66.7888L66.3409 66.5318C66.5353 66.3981 66.7466 66.2908 66.9692 66.2126C67.1919 66.1246 67.4286 66.077 67.6681 66.072C68.0709 66.072 68.3656 66.1668 68.5523 66.3565C68.739 66.5462 68.8883 66.8495 69.0003 67.2665C69.0936 67.8041 69.4681 68.9801 70.1237 70.7945L70.2956 71.1451C70.4009 71.3605 70.4582 71.4822 70.4675 71.5102L70.5375 71.2184C70.5749 71.0506 70.6243 70.8858 70.6853 70.7251L71.5909 68.1614C71.7219 67.7959 71.7874 67.4972 71.7874 67.2654C71.7874 67.0335 71.7079 66.8738 71.5489 66.786L71.5203 66.529C71.8445 66.2506 72.2531 66.0896 72.6801 66.072C73.0161 66.072 73.1841 66.248 73.1841 66.6001C73.1841 66.8454 73.0646 67.2622 72.8257 67.8506L69.9635 74.8259C69.8605 75.0761 69.7738 75.2788 69.7037 75.4341C69.6335 75.5894 69.5429 75.7727 69.4321 75.984C69.34 76.1654 69.2258 76.3347 69.0921 76.488C68.9671 76.623 68.8321 76.7484 68.6884 76.8632C68.5352 76.9877 68.3585 77.0799 68.1687 77.1343C67.9623 77.1912 67.7489 77.2188 67.5348 77.216C67.104 77.216 66.7657 77.054 66.5201 76.7299C66.2744 76.4059 66.1997 76.0029 66.2961 75.5209C66.3898 75.6366 66.5408 75.7316 66.7491 75.8059C66.9506 75.879 67.1631 75.9169 67.3774 75.9179C67.7328 75.9179 68.0358 75.852 68.2863 75.7203C68.525 75.6006 68.713 75.3996 68.8166 75.1535L69.4886 73.688L69.6617 73.3879Z" fill="white"/>
<path d="M65.2064 22.8831C64.8484 22.817 64.4852 22.7838 64.1211 22.784H30.1918C30.1111 22.7841 30.0337 22.8163 29.9766 22.8734C29.9195 22.9305 29.8874 23.0079 29.8872 23.0886V51.5406C29.8867 52.8912 30.3437 54.2023 31.1836 55.2601C40.978 51.4689 58.1941 38.2271 65.9596 23.0713C65.713 22.992 65.4613 22.9292 65.2064 22.8831Z" fill="white"/>
<path d="M70.1125 28.776V57.2268C70.1124 57.3076 70.0802 57.385 70.0231 57.4421C69.966 57.4992 69.8886 57.5313 69.8079 57.5314H35.8786C34.9778 57.5322 34.0885 57.3297 33.2769 56.939C43.2527 52.9456 60.5237 39.5157 68.0635 24.2646C68.7081 24.8261 69.2246 25.5194 69.5781 26.2977C69.9316 27.076 70.1139 27.9212 70.1125 28.776V28.776Z" fill="white"/>
</g>
</svg>
