<svg width="100" height="100" viewBox="0 0 100 100" fill="none" xmlns="http://www.w3.org/2000/svg">
<g opacity="0.4">
<path opacity="0.2" fill-rule="evenodd" clip-rule="evenodd" d="M17 17H82V82H17V17Z" fill="white"/>
<path fill-rule="evenodd" clip-rule="evenodd" d="M53.9813 29.6043H70.6441V46.1019H53.9813V29.6043ZM33.8369 54.4469V56.0609H36.7087V64.5993H38.6889V55.9956H41.3628V54.3817L33.8369 54.448V54.4469ZM32.3579 56.4478V54.8338C30.7692 54.1241 28.9423 53.9097 27.0717 54.8338C24.0041 56.1891 23.8944 62.9002 26.9632 64.2124C28.7252 65.0945 32.4004 64.6855 32.7707 63.9106V58.5978H29.1168V59.9962H30.7256V62.793C25.4394 65.3311 24.4605 53.1347 32.3579 56.4478ZM44.5837 59.91H46.4755C48.0418 59.9752 48.4557 62.9002 46.4106 62.8781H44.5837V59.91V59.91ZM44.5837 55.8022H46.4755C48.0418 56.0819 47.4768 58.3834 46.4106 58.4475H44.5837V55.8022V55.8022ZM42.6258 54.2325V64.5131H47.8247C50.4784 63.5668 50.5881 59.5021 47.8247 59.071C50.3699 58.7924 50.5008 54.1672 46.1063 54.1672L42.6258 54.2325V54.2325ZM51.8053 57.1143V58.641C53.197 58.2541 56.221 57.1785 55.938 59.459C53.2843 59.2865 51.4786 59.7597 51.1743 61.3935C50.6742 64.9221 54.5026 65.2659 56.1125 63.5237V64.3627H57.9394V58.1678C57.483 56.167 54.4601 55.9094 51.8053 57.1143V57.1143ZM53.3492 61.0939C53.7631 60.5556 55.09 60.5766 55.9816 60.8353V62.1905C54.525 63.7381 52.1756 63.0296 53.3503 61.0928L53.3492 61.0939ZM61.7253 58.9427C62.2042 58.4265 64.7493 57.4581 65.1409 58.9427V64.4058H67.1849V58.62C66.7497 56.2101 64.4215 55.7801 61.5944 57.415V56.5119H59.659V64.4489H61.7029L61.7253 58.9427V58.9427ZM73.6021 56.4256L70.9271 59.9741L73.7554 64.3406L76.2133 64.2765L73.1031 60.0825L75.909 56.4898L73.6032 56.4256H73.6021ZM68.7086 53.8223H70.7313V64.3406H68.7075V53.8234L68.7086 53.8223Z" fill="white"/>
<path fill-rule="evenodd" clip-rule="evenodd" d="M53.9834 29.6043H70.6462V46.1019H53.9834V29.6043Z" fill="white"/>
</g>
</svg>
