<svg width="100" height="100" viewBox="0 0 100 100" fill="none" xmlns="http://www.w3.org/2000/svg">
<g opacity="0.4" clip-path="url(#clip0_1532_23226)">
<path d="M3.49754 65.4924L2.79475 69.0864C2.70105 69.3629 2.70105 69.5932 2.70105 69.8697C2.70105 70.653 3.16957 71.0216 3.8255 71.0216C4.66884 71.0216 5.27792 70.4687 5.51218 69.0864L6.26181 65.4924H7.01145L6.30866 69.0864C5.9807 70.8834 5.09051 71.6206 3.77865 71.6206C2.70105 71.6206 1.95142 71.0677 1.95142 69.8236L1.99827 68.9482L2.6542 65.4464H3.49754V65.4924ZM8.08904 71.6206L8.65127 68.5335C8.79183 68.0266 8.79183 67.612 8.88553 67.2433H9.54146L9.4009 68.0727C9.77572 67.4276 10.3848 67.1051 11.0407 67.1051C11.5561 67.1051 12.1183 67.4276 12.1183 68.3031L12.0715 69.0403L11.5561 71.5284H10.7596L11.2281 69.0403L11.275 68.4413C11.275 68.0266 11.0876 67.7041 10.5722 67.7041C10.0568 67.7041 9.26035 68.3031 9.07294 69.4089L8.65127 71.5284H8.08904V71.6206ZM13.7582 71.6206L14.6015 67.2433H15.398L14.5546 71.6206H13.7582ZM14.742 65.9993C14.742 65.7689 15.0232 65.4924 15.2574 65.4924C15.5385 65.4924 15.7259 65.6767 15.7259 65.9532C15.7259 66.2757 15.5385 66.46 15.2106 66.46C14.9295 66.46 14.742 66.2757 14.742 65.9993ZM18.6776 66.0914L18.4902 67.2433H19.521L19.3804 67.7963H18.3497L17.9748 69.9158C17.8811 70.1922 17.8811 70.3765 17.8811 70.653C17.8811 70.8834 18.0217 71.0216 18.3028 71.0216H18.6308L18.5371 71.6206L17.9748 71.6667C17.3189 71.6667 17.0378 71.2981 17.0378 70.8373L17.0847 70.0079L17.5532 67.7963H16.8972L17.0378 67.2433H17.6937L17.8811 66.2757L18.6776 66.0914ZM23.5971 71.3441C23.2691 71.5284 22.7069 71.6667 22.1447 71.6667C20.9734 71.6667 20.458 70.8834 20.458 69.9158C20.458 68.6256 21.4419 67.1051 22.8475 67.1051C23.6908 67.1051 24.1593 67.612 24.1593 68.2109C24.1593 69.3629 22.8475 69.6854 21.2076 69.5932C21.1608 69.8236 21.2076 70.1922 21.3013 70.4687C21.4888 70.8373 21.8167 71.0216 22.2852 71.0216C22.8006 71.0216 23.1754 70.8373 23.4565 70.6991L23.5971 71.3441ZM22.7069 67.7041C22.0041 67.7041 21.4888 68.3953 21.3013 69.0403C22.4726 69.0403 23.3628 68.9021 23.3628 68.2109C23.3628 67.8884 23.1286 67.7041 22.7069 67.7041ZM30.0627 65.1699L29.0788 70.1922C28.9851 70.653 28.8914 71.1598 28.8914 71.5284H28.1418L28.2823 70.6991C27.9075 71.3441 27.2984 71.6667 26.7362 71.6667C25.846 71.6667 25.4243 70.9755 25.4243 70.054C25.4243 68.5335 26.5956 67.1051 28.1418 67.1051C28.4229 67.1051 28.7508 67.1512 28.9382 67.2433L29.3131 65.1699H30.0627ZM28.7977 67.8884C28.6571 67.7502 28.4229 67.7041 28.0949 67.7041C27.0642 67.7041 26.174 68.7639 26.174 69.9158C26.174 70.4687 26.4082 71.0216 27.0642 71.0216C27.6264 71.0216 28.376 70.3765 28.5634 69.4089L28.7977 67.8884ZM34.6073 65.5846C35.029 65.4924 35.4975 65.4464 35.9192 65.4464C36.5751 65.4464 37.0437 65.5846 37.3716 65.8611C37.6527 66.1375 37.8401 66.46 37.8401 66.8287C37.8401 67.612 37.1842 68.2109 36.5283 68.3953C37.1374 68.5796 37.559 69.0403 37.559 69.7315C37.559 70.3765 37.2311 70.8373 36.8562 71.1598C36.3877 71.5284 35.6849 71.6667 34.8416 71.6667L33.5297 71.6206L34.6073 65.5846ZM34.3731 70.9755L35.029 71.0216C35.9192 71.0216 36.8094 70.653 36.8094 69.6854C36.8094 68.9482 36.2003 68.6256 35.4975 68.6256H34.8885L34.3731 70.9755ZM34.9353 68.0727H35.5444C36.3877 68.0727 37.1374 67.612 37.1374 66.9208C37.1374 66.3218 36.6688 66.0914 36.0129 66.0914L35.357 66.1375L34.9353 68.0727ZM41.9631 71.6206L42.1037 70.5148C41.6352 71.3902 40.9792 71.7127 40.3702 71.7127C39.6205 71.7127 39.152 71.0677 39.152 70.3305C39.152 68.7639 40.2765 67.2433 42.1974 67.2433C42.6191 67.2433 43.1344 67.2894 43.4155 67.4276L42.947 69.6854C42.8065 70.4687 42.7596 71.2059 42.7596 71.6667H41.9631V71.6206ZM42.4785 67.7502L41.9631 67.7041C40.8387 67.7041 39.8548 68.856 39.8548 70.054C39.8548 70.5608 40.0422 71.0216 40.6513 71.0216C41.3072 71.0216 42.01 70.1922 42.1974 69.0403L42.4785 67.7502ZM44.6337 71.6206L45.2428 68.5335L45.4302 67.2433H46.0861L45.9456 68.0727C46.3204 67.4276 46.9295 67.1051 47.5854 67.1051C48.1008 67.1051 48.7098 67.4276 48.7098 68.3031L48.6161 69.0403L48.1008 71.5284H47.3043L47.7728 69.0403L47.8196 68.4413C47.8196 68.0266 47.6322 67.7041 47.1169 67.7041C46.6015 67.7041 45.805 68.3031 45.6176 69.4089L45.2428 71.5284H44.6337V71.6206ZM50.3965 71.6206L51.6147 65.2621H52.3643L51.5678 69.2246C51.7084 69.0864 51.8958 68.9021 51.9426 68.7639L53.5356 67.2433H54.4258L52.5049 69.0403L53.7699 71.6206H52.9265L51.8958 69.5011L51.2867 70.0079L50.9587 71.6667H50.3965V71.6206ZM57.9866 71.6206L58.6893 67.7963H58.1271L58.2208 67.2433H58.8299L58.8767 66.9669C59.0173 66.3218 59.2047 65.815 59.6264 65.4464C59.8606 65.1699 60.2823 65.0317 60.6571 65.0317C60.9851 65.0317 61.1725 65.1238 61.2662 65.1699L61.0319 65.7689C60.9382 65.6767 60.7977 65.6767 60.6103 65.6767C60.0012 65.6767 59.6732 66.2757 59.5327 66.9669V67.2433H60.5166L60.376 67.7963H59.439L58.6893 71.6206H57.9866ZM65.4829 68.9482C65.4829 70.3305 64.499 71.7127 62.9997 71.7127C61.9221 71.7127 61.3131 70.8834 61.3131 69.9158C61.3131 68.5335 62.3438 67.1512 63.7962 67.1512C64.9675 67.1051 65.4829 68.0266 65.4829 68.9482ZM62.1095 69.8697C62.1095 70.5608 62.4844 71.0677 63.1403 71.0677C64.0773 71.0677 64.7333 69.9158 64.7333 68.9482C64.7333 68.4413 64.4521 67.7502 63.6557 67.7502C62.7655 67.7041 62.1095 68.856 62.1095 69.8697ZM66.8885 71.6206L67.4038 68.7639C67.5444 68.2109 67.5912 67.612 67.6381 67.2433H68.294L68.2003 68.2109C68.4346 67.612 68.95 67.1512 69.559 67.1512H69.7464L69.6059 67.8884H69.4185C68.7625 67.8884 68.2003 68.6256 67.9661 69.6854L67.5912 71.6206H66.8885ZM74.3848 69.6854L73.4009 71.6206H72.6044L75.8372 65.5846H76.7274L77.6176 71.6206H76.8211L76.54 69.6854H74.3848ZM76.4931 69.0403L76.212 67.2894C76.1652 66.9669 76.1652 66.5061 76.0715 66.1836L75.5561 67.2894L74.6659 69.0403H76.4931ZM79.1637 71.6206L79.8665 67.7963H79.3043L79.4448 67.2433H80.0071L80.1008 66.9669C80.1945 66.3218 80.4287 65.815 80.8035 65.4464C81.0378 65.1699 81.4595 65.0317 81.8343 65.0317C82.1623 65.0317 82.3497 65.1238 82.4434 65.1699L82.256 65.7689C82.1154 65.6767 81.9748 65.6767 81.7874 65.6767C81.1784 65.6767 80.8504 66.2757 80.7567 66.9669L80.663 67.1512H81.6469L81.5063 67.7502H80.5224L79.8196 71.5284H79.1637V71.6206ZM82.4902 71.6206L83.0056 68.7639L83.2867 67.2433H83.9426L83.8021 68.2109C84.0832 67.612 84.5986 67.1512 85.1608 67.1512H85.395L85.2545 67.8884H85.0671C84.4112 67.8884 83.8021 68.6256 83.6147 69.6854L83.2398 71.6206H82.4902ZM86.2384 71.6206L87.0817 67.2433H87.8782L87.0349 71.6206H86.2384ZM87.2223 65.9993C87.2223 65.7689 87.4097 65.4924 87.7377 65.4924C87.9719 65.4924 88.2062 65.6767 88.2062 65.9532C88.2062 66.2757 87.9719 66.46 87.6439 66.46C87.4097 66.46 87.2223 66.2757 87.2223 65.9993ZM92.1886 71.3902C91.9075 71.5284 91.439 71.6667 90.8767 71.6667C89.7054 71.6667 89.1901 70.8834 89.1901 70.0079C89.1901 68.5335 90.2677 67.1512 91.8606 67.1512C92.2355 67.1512 92.6571 67.2894 92.7508 67.3816L92.5634 67.9345C92.376 67.8884 92.1886 67.7502 91.8606 67.7502C90.6893 67.7502 89.9397 68.856 89.9397 69.8697C89.9397 70.5608 90.3614 71.0216 91.0642 71.0216C91.5327 71.0216 91.8606 70.8834 92.0949 70.7451L92.1886 71.3902ZM96.6396 71.6206L96.7333 70.5148C96.3116 71.3902 95.6557 71.7127 95.0466 71.7127C94.2501 71.7127 93.8284 71.0677 93.8284 70.3305C93.8284 68.7639 94.906 67.2433 96.8738 67.2433C97.2955 67.2433 97.8109 67.2894 98.0451 67.4276L97.6235 69.6854C97.4829 70.4687 97.3892 71.2059 97.3892 71.6667H96.6396V71.6206ZM97.1549 67.7502L96.6396 67.7041C95.5151 67.7041 94.5312 68.856 94.5312 70.054C94.5312 70.5608 94.7186 71.0216 95.3277 71.0216C95.9836 71.0216 96.6864 70.1922 96.8738 69.0403L97.1549 67.7502ZM21.0202 39.6897L18.2091 52.4989C17.3658 55.2635 15.8196 57.1987 12.54 57.3369C9.72887 57.3369 8.60442 55.4939 9.3072 51.6235L11.7904 39.6897H7.66738L4.8094 53.3744C4.29402 58.6271 7.43311 60.1015 12.212 59.9633C16.7567 59.8251 19.8958 57.7977 21.6762 53.743L24.8153 39.6897H21.0202ZM55.7377 46.1404L57.3775 52.7754H51.2867L55.7377 46.1404ZM57.0027 39.6897L43.1813 59.5025H46.9295L49.5532 55.6782H58.174L59.0173 59.5025H63.4683L58.5488 39.6897H57.0027ZM70.4492 59.6408H78.3672C85.4888 59.3182 87.0349 56.139 84.7391 50.8402L76.0715 34.2066L70.4492 59.6408ZM89.8929 29C82.7713 29.3225 81.2721 32.5479 83.5678 37.8006L92.1886 54.4341L97.8109 29H89.8929ZM30.2501 57.0144L31.7025 50.3333H33.3423C35.7318 50.3333 37.7464 51.1627 37.7464 53.3744C37.7464 56.0468 35.0759 57.1526 32.0773 57.1526L30.2501 57.0144ZM33.3892 42.2239H35.357C37.5122 42.2239 38.824 42.7307 38.824 44.4356C38.824 46.4629 36.8562 47.7531 33.9046 47.7531H32.2647L33.3892 42.2239ZM30.2501 39.6897L29.9221 39.7358L25.7523 59.5947H33.764C36.4814 59.5947 38.0276 58.8575 39.0583 58.2585C40.6981 57.1987 41.8694 55.4939 42.2911 53.4204C42.8065 50.6098 40.8387 49.1354 38.4024 48.905C40.8855 48.3521 42.9939 46.5551 43.1344 43.9748C43.4624 39.6897 38.5429 39.6897 38.5429 39.6897H30.2501Z" fill="white"/>
</g>
<defs>
<clipPath id="clip0_1532_23226">
<rect width="96" height="42.6667" fill="white" transform="translate(2 29)"/>
</clipPath>
</defs>
</svg>
