<svg width="100" height="100" viewBox="0 0 100 100" fill="none" xmlns="http://www.w3.org/2000/svg">
<g opacity="0.4" clip-path="url(#clip0_1532_23210)">
<path fill-rule="evenodd" clip-rule="evenodd" d="M32.3605 39.6766L32.4357 39.3729L32.5109 38.9934L35.8186 27L71.0004 27.0759L32.135 59.033L49.8763 37.3993H36.5703L35.8186 37.4752C34.2399 37.5512 32.8116 38.538 32.3605 39.6766Z" fill="white"/>
<path fill-rule="evenodd" clip-rule="evenodd" d="M69.121 48.9373C69.121 48.7855 67.9934 55.6931 66.114 62.8284L29.3535 63.0562L69.0458 30.6436L51.2294 52.4291H64.6105L65.3623 52.3532C66.9409 52.2773 68.5948 50.076 69.121 48.9373Z" fill="white"/>
<path fill-rule="evenodd" clip-rule="evenodd" d="M34.2395 73H28L32.285 67.0792H29.4283L29.6538 65.4092H35.5927L31.3077 71.33H34.465L34.2395 73ZM35.4423 73L36.4196 65.4092H40.7045L40.479 67.0792H38.0734L37.9231 68.3696H40.1783L40.028 70.0396H37.6976L37.5472 71.33H39.9528L39.7273 73H35.4423ZM41.0052 73L41.9825 65.4092H43.8619L46.042 69.3564L46.1923 69.8119L46.493 70.6469C46.4975 70.1652 46.5225 69.684 46.5682 69.2046L47.0192 65.4092H48.8986L47.9213 73H46.1171L43.9371 69.1287L43.7115 68.5974L43.4108 67.7624C43.407 68.2693 43.3819 68.7758 43.3357 69.2805L42.8846 73H41.0052ZM49.5 73L50.4773 65.4092H52.4318L51.4545 73H49.5ZM54.0105 73L54.7622 67.231H53.1836L53.4091 65.4092H58.521L58.2955 67.231H56.7168L55.965 73H54.0105ZM58.4458 73L59.4231 65.4092H61.3776L61.0018 68.3696H63.5577L63.9336 65.4092H65.8881L64.9108 73H62.9563L63.3322 69.8878H60.7762L60.4004 73H58.4458Z" fill="white"/>
</g>
<defs>
<clipPath id="clip0_1532_23210">
<rect width="43" height="46" fill="white" transform="translate(28 27)"/>
</clipPath>
</defs>
</svg>
